<svg xmlns="http://www.w3.org/2000/svg" width="62" height="49" viewBox="0 0 62 49">
    <defs>
        <style>
            .cls-1,.cls-2,.cls-5{fill:none}.cls-2{stroke:#d0d5d9}.cls-3,.cls-4{stroke:none}.cls-4{fill:#d0d5d9}
        </style>
    </defs>
    <g id="list_restaurants_thumbnail_empty" transform="translate(-160.006 -580.443)">
        <g id="패스_1193" class="cls-1" data-name="패스 1193">
            <path d="M19.584 5.412a5.476 5.476 0 0 1 8.828 0l21.3 32.137-43.847.151s-2.166.051-3.079-1.386a3.047 3.047 0 0 1 .127-3.051z" class="cls-3" transform="translate(157.844 591.742)"/>
            <path d="M23.998 4.177c-1.513 0-2.844.66-3.565 1.765L3.772 33.778l-.009.014-.009.014c-.007.011-.678 1.1-.124 1.973.464.73 1.647.923 2.207.923h.024l41.996-.146L27.579 5.965l-.003-.005-.004-.005c-.718-1.113-2.054-1.778-3.574-1.778m0-1c1.726 0 3.452.745 4.414 2.235L49.715 37.55l-43.85.151h-.028c-.255 0-2.198-.044-3.05-1.386-.914-1.438.127-3.05.127-3.05l16.67-27.853c.962-1.49 2.688-2.235 4.414-2.235z" class="cls-4" transform="translate(157.844 591.742)"/>
        </g>
        <g id="패스_1194" class="cls-1" data-name="패스 1194">
            <path d="M13.253 4.7a3.345 3.345 0 0 1 5.615 0l11.51 18.647a2.215 2.215 0 0 1-.5 2.074c-.864.844-3.054.746-3.054.746l-11.5.029-8.052-12.304z" class="cls-3" transform="translate(191.024 603.1)"/>
            <path d="M16.06 4.177c-.828 0-1.557.39-1.95 1.042l-.009.016-.01.015-5.625 8.64 7.401 11.31 10.953-.028h.024l.022.001s.062.002.165.002c.984 0 1.867-.19 2.147-.464.318-.31.291-.772.259-.98L18.017 5.229l-.003-.005-.003-.005c-.392-.652-1.121-1.042-1.95-1.042m0-1c1.097 0 2.195.51 2.807 1.527l11.51 18.647s.362 1.23-.501 2.075c-.701.685-2.278.75-2.846.75-.131 0-.208-.004-.208-.004l-11.496.03-8.055-12.31 5.981-9.188c.612-1.018 1.71-1.527 2.808-1.527z" class="cls-4" transform="translate(191.024 603.1)"/>
        </g>
        <g id="타원_1217" class="cls-2" data-name="타원 1217" transform="translate(194.006 591.443)">
            <circle cx="4.5" cy="4.5" r="4.5" class="cls-3"/>
            <circle cx="4.5" cy="4.5" r="4" class="cls-5"/>
        </g>
        <g id="사각형_373" class="cls-2" data-name="사각형 373" transform="translate(160.006 580.443)">
            <rect width="62" height="49" class="cls-3" rx="3"/>
            <rect width="61" height="48" x=".5" y=".5" class="cls-5" rx="2.5"/>
        </g>
    </g>
</svg>
