<svg xmlns="http://www.w3.org/2000/svg" width="34" height="54" viewBox="0 0 34 54">
    <defs>
        <style>
            .cls-1,.cls-2{fill:#fff}.cls-1{opacity:0}.cls-3{fill:#c2c7cc}.cls-4{fill:#16181a}.cls-5,.cls-6{stroke:none}.cls-6{fill:#111}
        </style>
    </defs>
    <g id="list_vote_icon_off" transform="translate(3.941 4.76)">
        <path id="bg" d="M0 0h34v54H0z" class="cls-1" transform="translate(-3.941 -4.76)"/>
        <g id="그룹_1119" data-name="그룹 1119" transform="translate(0 -4)">
            <g id="그룹_797" data-name="그룹 797" transform="translate(0 12.17)">
                <g id="합치기_136" class="cls-2" data-name="합치기 136">
                    <path d="M23.72 18.64H2.518L2.274 9.43l-.017-.618-.617-.015-.87-.02-.112-2.313 1.74-3.425h.047l.184-.32C3.71.853 5.54.65 6.274.65h13.692c1.155 0 2.422.723 3.081 1.757l.195.306h.057l1.996 3.758-.123 2.889-.918-.022-.676-.016.01.676.132 8.643z" class="cls-5" transform="translate(.059)"/>
                    <path d="M23.06 17.99l-.122-7.982-.02-1.352 1.351.032.28.007.09-2.075L22.91 3.37h-.022l-.39-.612c-.538-.844-1.603-1.457-2.533-1.457H6.274c-.623 0-2.171.17-3.082 1.744l-.369.637H2.8L1.315 6.605l.076 1.536.264.006 1.236.03.032 1.235.228 8.58h19.91m1.32 1.3H1.884l-.261-9.845L.15 9.41 0 6.322l1.996-3.928.07-.001C3.039.715 4.71 0 6.275 0h13.692c1.363 0 2.85.834 3.63 2.058l.09-.002 2.266 4.266-.158 3.703-1.556-.037.142 9.303z" class="cls-6" transform="translate(.059)"/>
                </g>
                <g id="패스_899" class="cls-3" data-name="패스 899">
                    <path d="M22.361 21.598H3.617c-1.642 0-2.978-1.449-2.978-3.229V3.277c.139.257.39.55.845.753.461.319 1.334.468 3.194.559h.03c4.815.012 8.689.017 11.515.017 3.624 0 4.62 0 4.952-.025l-.042.008c1.023 0 2.17-.028 2.933-.238.736-.17 1.099-.554 1.273-.962v14.98c0 1.78-1.336 3.229-2.978 3.229z" class="cls-5" transform="translate(.011 3.897)"/>
                    <path d="M1.29 4.673v13.696c0 1.422 1.043 2.579 2.327 2.579h18.744c1.284 0 2.328-1.157 2.328-2.579V4.836a3.203 3.203 0 0 1-.463.145c-.838.227-2.03.258-3.09.258-.14.006-.333.007-.624.009-.813.005-2.296.008-4.289.008-2.827 0-6.701-.005-11.517-.017h-.03l-.03-.001c-1.817-.089-2.765-.24-3.357-.565M24.17.749h.001c.295.2 1.82 1.326 1.82 1.768V18.37c0 2.142-1.625 3.879-3.629 3.879H3.617c-2.004 0-3.628-1.737-3.628-3.879V2.517c.017-.01 1.442-1.323 1.496-1.323h.001c.023.073-1.084 1.703.326 2.27.328.278 1.401.403 2.897.475 5.442.013 9.081.017 11.514.017 4.867 0 4.91-.017 4.91-.017.947 0 2.086-.025 2.774-.218.84-.19.977-.674.921-1.453.013-.175-.66-1.519-.658-1.519z" class="cls-6" transform="translate(.011 3.897)"/>
                </g>
                <rect id="사각형_159" width="9.595" height="1.3" class="cls-4" data-name="사각형 159" rx=".65" transform="translate(8.059 3.826)"/>
                <g id="그룹_1115" data-name="그룹 1115" transform="translate(8.059 15.139)">
                    <g id="그룹_800" data-name="그룹 800">
                        <circle id="타원_1098" cx="1.064" cy="1.064" r="1.064" class="cls-4" data-name="타원 1098"/>
                        <circle id="타원_1099" cx="1.064" cy="1.064" r="1.064" class="cls-4" data-name="타원 1099" transform="translate(4.064)"/>
                        <circle id="타원_1100" cx="1.064" cy="1.064" r="1.064" class="cls-4" data-name="타원 1100" transform="translate(8.071)"/>
                    </g>
                </g>
            </g>
        </g>
    </g>
</svg>
