<?xml version="1.0" encoding="utf-8"?>
<!-- Generator: Adobe Illustrator 24.0.1, SVG Export Plug-In . SVG Version: 6.00 Build 0)  -->
<svg version="1.1" id="레이어_1" xmlns="http://www.w3.org/2000/svg" xmlns:xlink="http://www.w3.org/1999/xlink" x="0px"
	 y="0px" viewBox="0 0 359.8 1061.1" style="enable-background:new 0 0 359.8 1061.1;" xml:space="preserve">
<style type="text/css">
	.st0{fill:#5F5CCE;}
	.st1{opacity:4.000000e-02;fill:#5E5BCE;enable-background:new    ;}
	.st2{opacity:4.000000e-02;}
	.st3{fill:#5E5BCE;stroke:#FFFFFF;stroke-width:5;stroke-linecap:round;stroke-linejoin:round;}
	.st4{fill:#5E5BCE;stroke:#FFFFFF;stroke-width:5;}
	.st5{fill:#FFFFFF;}
	.st6{fill:none;stroke:#FFFFFF;stroke-width:5;stroke-linejoin:round;}
	.st7{fill:none;stroke:#FFFFFF;stroke-width:5;}
	.st8{fill:#5F5CCE;stroke:#FFFFFF;stroke-width:5;}
	.st9{fill:#FFFFFF;stroke:#FFFFFF;stroke-width:2;}
	.st10{fill:none;stroke:#FFFFFF;stroke-width:5;stroke-linecap:round;stroke-linejoin:round;}
	.st11{fill:#FFFFFF;stroke:#FFFFFF;stroke-width:1.5;}
	.st12{fill:#5E5BCE;}
	.st13{fill:none;}
</style>
<g transform="translate(-23.55 126.5)">
	<path id="bg-3" class="st0" d="M204.4-84c65.8,0,127.4,8.6,179.2,23.4c0.1,0.1,0,995.4,0,995.4s-112.6,0-183.5,0H23.6
		c0,0,0.1-995.2,0.1-995C75.4-75.2,138.2-84,204.4-84z"/>
</g>
<g>
	<g id="마스크_그룹_99" transform="translate(-1 169)">
		<g id="bg_illust" transform="translate(-49.454 19.766)">
			<path id="패스_63" class="st1" d="M134,209.6V206l6.1,1.3l-1.3,1.4l-0.8,1.8L134,209.6z"/>
			<path id="패스_1046" class="st1" d="M134,209.6V206l6.1,1.3l-1.3,1.4l-0.8,1.8L134,209.6z"/>
			<path id="패스_64" class="st1" d="M154.3,205.1l1.9-0.5c0.1-1,0.6-2,1.2-2.8c0.9-0.8-3.6,1.2-3.6,1.2L154.3,205.1z"/>
			<path id="패스_1045" class="st1" d="M154.3,205.1l1.9-0.5c0.1-1,0.6-2,1.2-2.8c0.9-0.8-3.6,1.2-3.6,1.2L154.3,205.1z"/>
			<g id="그룹_1125">
				<g id="그룹_897" transform="rotate(-14.98 1258.266 -199.089)" class="st2">
					<path id="합치기_139" class="st3" d="M67.4-73.8c0-0.2,0-0.3,0-0.5c0-0.3,0-0.4,0-0.4v-3.9c-7.2-0.1-12.6-0.3-16.4-0.5
						c-4.5-0.3-6.6-0.5-6.7-0.5c-0.7-0.2-1.5-0.2-2.2,0c-0.5,0.1-1,0.1-1.5,0.1c-0.1,0-0.3,0-0.4,0c-3.6,0-6.4-2.9-6.4-6.5
						c0-3.4,2.7-6.2,6.1-6.4c4.8-4.9,10.1-9.2,15.8-12.9c5.5-3.6,11.4-6.5,17.6-8.6c0-0.1,0.3-0.2,0.8-0.4c0-0.2,0-0.3,0-0.5
						c1-4,4.5-6.9,8.6-7.2c0.6,0,1.2,0.2,1.8,0.5c2.7,0.8,8.1,3.2,16.2,12c6.2,7.1,10.5,14.8,11,18.6v0.1c0,0.1,0,0.2,0,0.4
						c0,0.1,0,0.2,0,0.3c0.2,2.9-0.9,5.7-3.1,7.7c-2.6,2.4-6.6,3-9.5,2.9c-0.3,0-0.5,0-0.7,0c-2.2,0.2-9.2,0.7-19.6,0.9l0,0
						c0,0.3,0.1,0.8,0.1,1.4c2,2.8,1.3,6.8-1.6,8.7c-1,0.7-2.3,1.1-3.5,1.1C70.3-67.4,67.4-70.3,67.4-73.8
						C67.4-73.7,67.4-73.8,67.4-73.8z"/>
					<path id="패스_60" class="st4" d="M74.2-114c9.8,4.9,17.9,12.6,23.2,22.1"/>
					
						<ellipse id="타원_1105" transform="matrix(-1 1.422414e-05 -1.422414e-05 -1 155.5711 -189.5459)" class="st5" cx="77.8" cy="-94.8" rx="5.6" ry="4.1"/>
					
						<ellipse id="타원_1106" transform="matrix(-1 1.415546e-05 -1.415546e-05 -1 114.8423 -188.7123)" class="st5" cx="57.4" cy="-94.4" rx="4.1" ry="3"/>
					
						<ellipse id="타원_1107" transform="matrix(-1 1.403374e-05 -1.403374e-05 -1 132.7238 -202.64)" class="st5" cx="66.4" cy="-101.3" rx="3.1" ry="2.3"/>
					<path id="선_2" class="st6" d="M67.4-74v-11.4"/>
				</g>
				<g id="그룹_898" transform="translate(280.045 309.234)" class="st2">
					<path id="패스_1027" class="st7" d="M54.1-75.7c0,0,7.9,5.1,12-4.9s2.2-27.5-14.4-33"/>
					<path id="합치기_145" class="st8" d="M52.8-97c0-0.9,0.1-1.8,0.4-2.6l-4.6-9.4c-2.6-1.8-4.2-4.8-4.2-7.9
						c0-5.3,4.2-9.5,9.4-9.6c4.6,0,8.6,3.5,9.2,8.1c0.9-0.3,1.9-0.5,2.9-0.5c5.2,0.1,9.4,4.3,9.3,9.5c0,3.4-1.8,6.5-4.7,8.2
						c0.6,1.3,0.9,2.7,0.9,4.1c0.1,5.2-4.1,9.5-9.3,9.5S52.8-91.8,52.8-97z"/>
					<path id="패스_1026" class="st4" d="M6-88.5C10.2-87.2,55.4-75,55.4-75s-6.3-1.8-1.9-13.5c2.3-11.7,1-32.3-19.3-37
						c-20.3-4.7-30.8,12.2-32.8,25.7C0.6-90.8,1.8-89.8,6-88.5z"/>
					<path id="패스_1131" class="st9" d="M20.4-114.4c0.8,0.2,1.3,1.1,1.1,1.9c-0.2,0.8-1.1,1.3-1.9,1.1c-0.8-0.2-1.3-1.1-1.1-1.9
						C18.7-114.1,19.6-114.6,20.4-114.4z"/>
					<path id="패스_1132" class="st9" d="M33.1-111c0.8,0.2,1.3,1.1,1.1,1.9s-1.1,1.3-1.9,1.1s-1.3-1.1-1.1-1.9
						C31.4-110.7,32.3-111.2,33.1-111z"/>
					<path id="패스_1133" class="st9" d="M23.9-105.7c0.8,0.2,1.3,1.1,1.1,1.9c-0.2,0.8-1.1,1.3-1.9,1.1c-0.8-0.2-1.3-1.1-1.1-1.9
						C22.3-105.5,23.1-105.9,23.9-105.7z"/>
					<path id="패스_1134" class="st9" d="M38.6-101.8c0.8,0.2,1.3,1.1,1.1,1.9s-1.1,1.3-1.9,1.1c-0.8-0.2-1.3-1.1-1.1-1.9
						C37-101.5,37.8-102,38.6-101.8z"/>
				</g>
				<g id="그룹_1121">
					<g id="그룹_899" transform="rotate(14.98 -644.435 837.918)" class="st2">
						<path id="패스_1029" class="st10" d="M46-111.7c0,0-6.5-2.3-10.8,1.3c-0.4,0-7-5.4-20.4-3.8c-6.9-3.8-15.3-3.9-22.2,0
							c-0.2-0.2-18.8,3.3-24.2,22.4c0.3,0.5-0.9,4.4,2.3,6.6c3.3,2.2,7.7-0.3,10.1-1.2c2.4-0.9,18.2-5.6,31.1-5.3
							c13,0.3,28.3-4.7,34-14C48.4-109.6,46-111.7,46-111.7z"/>
						<path id="패스_1030" class="st10" d="M-22.9-83.4l0,5.2c0,0,0.5,4.3,2.6,6.9s3.3,3,5.9,3.4c6.7,1.1,33.6,0.1,33.6,0.1
							c2.7,0,5.3-0.7,7.7-1.9c3.4-1.9,5.8-6.1,5.7-11.3c-0.2-9.5,0-14,0-14"/>
						<path id="패스_1031" class="st10" d="M45.2-110.8c0,0,10.7-1.7,11.5-11.6c0.1-0.1-8.9,0-8.9,0l3.1,8.8"/>
						<path id="패스_1032" class="st7" d="M14.6-114.1c-1.9,3.4-2.8,7.3-2.7,11.1"/>
						<path id="패스_1033" class="st7" d="M-7-114.6c0,0-3.1,5.5-1.8,13.9"/>
					</g>
					<g id="그룹_892" transform="rotate(165.02 37.023 129.588)" class="st2">
						<path id="패스_1017" class="st11" d="M14.5,161.2c-3.7,2.8-6.8,5.5-7.7,9c-1.6,5.5-4.9,6.4-6.7,6.4s-5.2-0.8-6.7-6.4
							c-1.2-4.3-5.5-7.4-10.5-11.1c-7.8-5.7-16.6-12.1-16.6-25.2c0-7.8,4.1-12,11.9-12l44.1-0.1c1,0,1.9,0.1,2.8,0.2 M24.3,125.4
							l-46.2,0c-5.9,0-8.5,2.6-8.5,8.6c0,11.3,7.7,17,15.2,22.4c5.3,3.9,10.3,7.5,11.8,12.9c0.7,2.6,1.9,3.9,3.5,3.9
							s2.7-1.3,3.5-3.9c1.5-5.4,6.6-9.1,11.9-13"/>
						<path id="패스_1018" class="st11" d="M-5.9,155.9c-0.8,0.4-1.8,0.1-2.3-0.7l0,0l-3.4-6.8c-0.4-0.8-0.1-1.9,0.8-2.3
							c0.8-0.4,1.8-0.1,2.3,0.7l0,0l3.4,6.8C-4.7,154.5-5.1,155.5-5.9,155.9z"/>
						<path id="패스_1019" class="st11" d="M0.1,156.1c-0.5,0-0.9-0.2-1.2-0.5s-0.5-0.8-0.5-1.2l0-6.8c-0.1-0.9,0.7-1.7,1.6-1.8
							s1.7,0.7,1.8,1.6c0,0.1,0,0.1,0,0.2l0,6.8c0,0.5-0.2,0.9-0.5,1.2C1,155.9,0.6,156.1,0.1,156.1L0.1,156.1z"/>
						<path id="패스_1020" class="st11" d="M8.4,155.1C8,156,7,156.4,6.2,156c-0.9-0.4-1.3-1.4-0.9-2.2c0-0.1,0.1-0.1,0.1-0.2
							l3.4-6.8c0.4-0.9,1.4-1.3,2.2-0.9c0.9,0.4,1.3,1.4,0.9,2.2c0,0.1-0.1,0.1-0.1,0.2L8.4,155.1z"/>
					</g>
					<g id="그룹_900" transform="rotate(-14.98 945.081 -1263.12)" class="st2">
						<path id="선_1_1_" class="st7" d="M34.1-100.9l51.6-19.7"/>
						<path id="패스_1039_1_" class="st7" d="M35.8-94.4l44.9-7.4"/>
						<path id="패스_1036" class="st4" d="M43.5-83.3l0-22.2c0,0-1.1-7.2,4.9-7.2s5.2,7.2,5.2,7.2l0,22.2"/>
						<path id="패스_1038" class="st4" d="M63-83.3l0.1-27.8c0,0-1.1-9,4.9-9c6,0,5.2,9,5.2,9l-0.1,27.8"/>
						<path id="패스_1037" class="st4" d="M53.2-84.5l0.1-27.2c0,0-1.1-7.2,4.9-7.2c6,0,5.2,7.2,5.2,7.2l0,27.2"/>
						<path id="패스_1035_1_" class="st10" d="M75.7-83.3c-17.7,0-41.9,0-41.9,0.2c-0.5,7.1,3.2,16,12.4,22.4
							c-0.1,1.8-0.1,3.5,0,5.3c0.4,2.4,2.5,4.1,4.9,3.8l16.2,0"/>
					</g>
				</g>
				<g id="그룹_911" transform="rotate(165.02 20.111 246.98)" class="st2">
					<g id="그룹_901">
						<g id="합치기_147">
							<path class="st12" d="M-5.1,197.3L-5.1,197.3L-5.1,197.3c-3.3,0-6.4-1.2-8.9-3.3l-0.9-0.8l-1.1,0.2c-0.7,0.1-1.4,0.2-2.1,0.2
								l0,0c-1.8,0-3.6-0.4-5.3-1.1c-1.6-0.7-3-1.6-4.3-2.9c-2.4-2.4-3.7-5.5-3.7-8.8c0-7.1,6-12.8,13.3-12.8l0,0
								c3.3,0,6.4,1.2,8.8,3.3l0.9,0.8l1.1-0.2c0.7-0.1,1.4-0.2,2.1-0.2l0,0c0.9,0,1.8,0.1,2.7,0.3l1.2,0.2l0.9-0.8
								c2.5-2.2,5.7-3.4,9-3.4l0,0c0.4,0,0.8,0,1.2,0.1"/>
							<path class="st5" d="M9,170.5 M9,170.5L9,170.5c-2.8,0-5.4,1-7.4,2.8l-1.9,1.7l-2.4-0.5c-0.7-0.1-1.5-0.2-2.2-0.2l0,0
								c-0.6,0-1.2,0-1.7,0.1l-2.3,0.4l-1.7-1.5c-2-1.7-4.5-2.7-7.2-2.7l0,0c-6,0-10.8,4.6-10.8,10.3c0,2.6,1,5.2,3,7.1
								c2,2,4.8,3.2,7.8,3.2l0,0c0.6,0,1.2,0,1.7-0.1l2.3-0.4l1.8,1.5c2,1.7,4.5,2.7,7.2,2.7l0,0c2.7,0,5.4-1,7.4-2.8l1.9-1.7
								 M1.7,198.4c-2,0.9-4.3,1.5-6.7,1.5l0,0c-4,0-7.7-1.5-10.5-3.9c-0.8,0.1-1.7,0.2-2.5,0.2c-8.7,0-15.7-6.8-15.7-15.3
								c0-8.4,7.1-15.3,15.8-15.3l0,0c4,0,7.7,1.5,10.5,3.9c1.9-0.3,3.8-0.3,5.7,0.1c2.8-2.6,6.5-4.1,10.7-4.1l0,0"/>
						</g>
						<path id="패스_1040_1_" class="st3" d="M7.1,177.9l-32.2,0.1l0-19c0,0-0.3-2.5,5.2-14.7c-0.1-0.4-0.5-15.6-0.5-15.6
							s-0.4-6.2,4.4-6.6s19.2,0,19.2,0s4.3,1,4.2,6.6c-0.1,5.6,0.5,15.6,0.5,15.6s3.5,1.3,5.7,5.7"/>
						<path id="패스_1041_1_" class="st4" d="M-13.1,178c0,0,6.6-0.6,6.6-6.7l0-16.4c0,0,0.2-5,4.8-5c4.7,0,4.4,4.9,4.4,4.9
							l0,16.4c0,0-0.2,5.5,4.5,6.6"/>
					</g>
					<path id="패스_1042" class="st12" d="M-12.4,180.2c0,0,5.7-1.9,7.1-4.6c1.3-2.6,6.8,0,6.8,0c1.5,2.7,2,3.7,5.1,3.8l-0.5,1.8
						C-0.2,181.3-12.4,180.2-12.4,180.2z"/>
				</g>
				<g id="그룹_903" transform="translate(347.2 413.234)" class="st2">
					<g id="타원_1146">
						<ellipse class="st13" cx="15.5" cy="-111" rx="14.4" ry="15.5"/>
						<ellipse class="st7" cx="15.5" cy="-111" rx="11.9" ry="13"/>
					</g>
					<g id="타원_1147" transform="translate(16.872 20)">
						<ellipse class="st13" cx="16" cy="-111" rx="14.9" ry="15.5"/>
						<ellipse class="st7" cx="16" cy="-111" rx="12.4" ry="13"/>
					</g>
					<g id="타원_1148" transform="translate(35.73 38)">
						<ellipse class="st13" cx="15.5" cy="-111" rx="14.4" ry="15.5"/>
						<ellipse class="st7" cx="15.5" cy="-111" rx="11.9" ry="13"/>
					</g>
					<path id="패스_1043" class="st4" d="M2.6-114v24.7c0,0,0,3.4,4.2,3.4s3.7-3.4,3.7-3.4v-20.3"/>
					<path id="패스_1044" class="st7" d="M10.5-103.8c0,0,5.5-0.5,7.5-4.5s5.2-6.8,9.6-5.6"/>
				</g>
				<g id="그룹_1120">
					<g id="그룹_910" transform="rotate(-150 102.473 70.902)" class="st2">
						<g id="그룹_901-2">
							<g id="합치기_147-2">
								<path class="st12" d="M91.4,183L91.4,183c-3.3,0-6.5-1.2-9-3.3l-0.9-0.8l-1.1,0.2c-0.7,0.1-1.4,0.2-2.1,0.2l0,0
									c-7.3,0-13.3-5.8-13.4-12.8c0-3.3,1.3-6.4,3.7-8.8c1.2-1.2,2.7-2.2,4.3-2.9c1.7-0.7,3.5-1.1,5.3-1.1l0,0
									c3.3,0,6.5,1.2,8.9,3.3l0.9,0.8l1.1-0.2c0.7-0.1,1.4-0.2,2.1-0.2l0,0c0.9,0,1.9,0.1,2.8,0.3l1.2,0.3l0.9-0.8
									c2.4-2.2,5.6-3.4,9-3.4l0,0c7.3,0,13.3,5.8,13.4,12.8c0,3.3-1.3,6.4-3.7,8.8c-1.2,1.2-2.7,2.2-4.3,2.9
									c-1.7,0.7-3.5,1.1-5.3,1.1l0,0c-0.9,0-1.9-0.1-2.8-0.3l-1.2-0.3l-0.9,0.8C98,181.8,94.8,183,91.4,183z"/>
								<path class="st5" d="M78.2,156.2c-3,0-5.7,1.1-7.8,3.2c-1.9,1.9-2.9,4.4-2.9,7c0,5.7,4.9,10.3,10.9,10.3l0,0
									c0.6,0,1.1,0,1.7-0.1l2.3-0.3l1.7,1.5c2,1.7,4.6,2.7,7.3,2.7l0,0c2.7,0,5.3-1,7.3-2.7l1.9-1.7l2.5,0.5
									c0.7,0.2,1.5,0.2,2.3,0.2l0,0c3,0,5.7-1.1,7.8-3.2c1.9-1.9,2.9-4.4,2.9-7c0-5.7-4.9-10.3-10.9-10.3l0,0
									c-2.7,0-5.3,1-7.3,2.7l-1.9,1.7l-2.5-0.5c-0.7-0.2-1.5-0.2-2.3-0.2l0,0c-0.6,0-1.1,0-1.7,0.1l-2.3,0.3l-1.7-1.5
									C83.5,157.2,80.9,156.2,78.2,156.2L78.2,156.2 M78.2,151.2L78.2,151.2c3.9,0,7.7,1.4,10.6,3.9c1.9-0.3,3.8-0.2,5.7,0.2
									c2.8-2.5,6.5-4,10.6-4h0.1c8.7,0,15.8,6.9,15.9,15.3c0,8.4-7,15.2-15.7,15.2h-0.1c-1.1,0-2.2-0.1-3.3-0.3
									c-2.8,2.5-6.5,4-10.6,4h-0.1c-3.9,0-7.6-1.4-10.6-3.9c-0.8,0.1-1.7,0.2-2.5,0.2c-8.7,0-15.8-6.9-15.9-15.3
									C62.4,158,69.5,151.2,78.2,151.2L78.2,151.2z"/>
							</g>
							<path id="패스_1040-2" class="st3" d="M71.2,163.6l-0.1-19c0,0-0.3-2.5,5.1-14.6c-0.1-0.4-0.6-13.2-0.6-13.2
								s-0.4-6.2,4.4-6.6s19.3,0.1,19.3,0.1s4.3,1,4.3,6.7c-0.1,5.6,0.6,13.2,0.6,13.2s7.3,8.5,7.4,14.7c0.2,15.8,0.1,19,0.1,19
								L71.2,163.6z"/>
							<path id="패스_1041-2" class="st4" d="M83.2,163.7c0,0,6.6-0.6,6.6-6.7l-0.1-16.4c0,0,0.1-5,4.8-4.9c4.7,0,4.5,5,4.5,5
								l0.1,16.4c0,0-0.2,7,6.5,6.7"/>
						</g>
						<path id="패스_1042-2" class="st12" d="M83.9,165.9c0,0,5.7-1.9,7.1-4.5c1.3-2.6,6.8,0,6.8,0c1.6,2.7,4.4,4.4,7.5,4.6
							C110.8,166.4,83.9,165.9,83.9,165.9z"/>
					</g>
					<g id="그룹_904" transform="translate(269.786 104.234)" class="st2">
						<g id="타원_1146-2">
							<ellipse class="st13" cx="15.5" cy="-111" rx="14.4" ry="15.5"/>
							<ellipse class="st7" cx="15.5" cy="-111" rx="11.9" ry="13"/>
						</g>
						<g id="타원_1147-2" transform="translate(16.872 20)">
							<ellipse class="st13" cx="16" cy="-111" rx="14.9" ry="15.5"/>
							<ellipse class="st7" cx="16" cy="-111" rx="12.4" ry="13"/>
						</g>
						<g id="타원_1148-2" transform="translate(35.73 38)">
							<ellipse class="st13" cx="15.5" cy="-111" rx="14.4" ry="15.5"/>
							<ellipse class="st7" cx="15.5" cy="-111" rx="11.9" ry="13"/>
						</g>
						<path id="패스_1043-2" class="st4" d="M3.6-114v24.7c0,0,0,3.4,4.2,3.4s3.7-3.4,3.7-3.4v-20.3"/>
						<path id="패스_1044-2" class="st7" d="M10.5-103.8c0,0,5.5-0.5,7.5-4.5s5.2-6.8,9.6-5.6"/>
						<path id="패스_1051" class="st7" d="M59.2-65l11.9,12.9"/>
					</g>
				</g>
				<g id="그룹_1123">
					<g id="그룹_906" transform="rotate(-165.02 134.3 31.09)" class="st2">
						<path id="합치기_139-2" class="st3" d="M71.9,170c0-0.2,0-0.3,0-0.4c-0.5-0.1-0.8-0.3-0.8-0.4c-6.2-2.1-12.2-5-17.7-8.6
							c-5.7-3.7-11-8.1-15.8-12.9c-3.6-0.2-6.3-3.3-6-6.9c0.2-3.4,3-6,6.4-6c0.1,0,0.3,0,0.4,0c0.5,0,1,0,1.5,0.1
							c0.7,0.2,1.5,0.2,2.2,0c0.1,0,2.2-0.3,6.7-0.5c3.7-0.2,9.1-0.4,16.4-0.5v-4c0,0,0-0.2,0-0.5c0-0.1,0-0.3,0-0.4
							c-0.1-3.5,2.7-6.4,6.3-6.5h0.1c3.5,0,6.3,2.9,6.2,6.3c0,1.3-0.4,2.5-1.1,3.5c-0.1,0.7-0.2,1.2-0.1,1.4v0.1
							c10.5,0.2,17.4,0.7,19.6,0.9c0.2,0,0.5,0,0.7,0c3-0.1,6.9,0.6,9.5,2.9c2.3,2.1,3.4,5.2,3,8.3c0,0.1,0,0.1-0.1,0.1
							c-0.6,3.8-4.9,11.5-11,18.6c-8,8.7-13.4,11.1-16.1,12c-0.6,0.3-1.2,0.5-1.8,0.5C76.4,176.9,72.9,174,71.9,170z"/>
						<path id="패스_60-2" class="st4" d="M72.1,169.2c9.8-4.9,17.9-12.6,23.3-22.1"/>
						
							<ellipse id="타원_1105-2" transform="matrix(-1.671625e-05 -1 1 -1.671625e-05 -74.12 225.5837)" class="st5" cx="75.7" cy="149.9" rx="4.1" ry="5.6"/>
						
							<ellipse id="타원_1106-2" transform="matrix(-1.671625e-05 -1 1 -1.671625e-05 -94.02 204.8682)" class="st5" cx="55.4" cy="149.4" rx="3" ry="4.1"/>
						
							<ellipse id="타원_1107-2" transform="matrix(-1.808495e-05 -1 1 -1.808495e-05 -92.0152 220.7841)" class="st5" cx="64.4" cy="156.4" rx="2.3" ry="3.1"/>
						<path id="선_2-2" class="st6" d="M65.4,129.2v11.4"/>
					</g>
					<g id="그룹_905" transform="translate(360.436 41.234)" class="st2">
						<path id="패스_1027-2_2_" class="st7" d="M51.7-113.6"/>
						<path id="패스_1027-2_3_" class="st7" d="M54.1-75.7"/>
						<path id="합치기_145-2_1_" class="st8" d="M48.6-109c-2.6-1.8-4.2-4.8-4.2-7.9c0-3.9,2.2-7.1,5.5-8.7"/>
						<path id="패스_1026-2_2_" class="st4" d="M49.8-114.8c-3.1-4.9-8-9-15.7-10.7c-20.3-4.7-30.8,12.2-32.8,25.7
							c-0.8,9,0.4,10,4.6,11.3c3.3,1,31.7,8.7,43.9,12"/>
						<path id="패스_1135" class="st9" d="M20.4-114.4c0.8,0.2,1.3,1.1,1.1,1.9c-0.2,0.8-1.1,1.3-1.9,1.1
							c-0.8-0.2-1.3-1.1-1.1-1.9C18.7-114.1,19.6-114.6,20.4-114.4z"/>
						<path id="패스_1136" class="st9" d="M33.1-111c0.8,0.2,1.3,1.1,1.1,1.9s-1.1,1.3-1.9,1.1s-1.3-1.1-1.1-1.9
							C31.4-110.7,32.3-111.2,33.1-111z"/>
						<path id="패스_1137" class="st9" d="M23.9-105.7c0.8,0.2,1.3,1.1,1.1,1.9c-0.2,0.8-1.1,1.3-1.9,1.1
							c-0.8-0.2-1.3-1.1-1.1-1.9C22.2-105.4,23.1-105.9,23.9-105.7z"/>
						<path id="패스_1138" class="st9" d="M38.6-101.8c0.8,0.2,1.3,1.1,1.1,1.9s-1.1,1.3-1.9,1.1c-0.8-0.2-1.3-1.1-1.1-1.9
							C37-101.5,37.8-102,38.6-101.8z"/>
					</g>
					<g id="그룹_909" transform="rotate(-14.98 60.084 7.888)" class="st2">
						<path id="선_1-2_1_" class="st7" d="M89.2-122"/>
						<path id="패스_1039-2_1_" class="st7" d="M80.4-101.7l14.3-2.4"/>
						<path id="패스_1035-2_1_" class="st10" d="M66.2-51.6l10.4,0c0,0,4.6,0.6,4.3-3.9c-0.3-4.5,0-5.3,0-5.3s13.3-6.7,13-22.4
							c0-0.1-8.6-0.1-19.3-0.1"/>
					</g>
				</g>
				<g id="그룹_1124" transform="rotate(-135 211.705 200.727)" class="st2">
					<path id="선_1-3" class="st7" d="M89.1,139.6l55.1,21"/>
					<path id="패스_1039-3" class="st7" d="M90.8,133.1l58.9,9.7"/>
					<path id="패스_1036-3" class="st4" d="M98.4,121.9v22.2c0,0-1.1,7.2,4.9,7.2s5.2-7.2,5.2-7.2v-22.2"/>
					<path id="패스_1038-3" class="st4" d="M118,121.9l0.1,27.8c0,0-1.1,9,4.9,9c6,0,5.2-9,5.2-9l-0.1-27.8"/>
					<path id="패스_1037-3" class="st4" d="M108.2,123.2l0.1,27.2c0,0-1.1,7.2,4.9,7.2s5.2-7.2,5.2-7.2l-0.1-27.2"/>
					<path id="패스_1035-3" class="st10" d="M88.8,121.7c-0.5-7.1,3.2-16,12.4-22.4c-0.1-1.8-0.1-3.5,0-5.3
						c0.4-2.4,2.5-4.1,4.9-3.8h25.5c0,0,4.6-0.6,4.3,3.9c-0.3,4.5,0,5.3,0,5.3s13.3,6.7,13,22.4C149.1,122,88.9,122,88.8,121.7z"/>
				</g>
			</g>
			<g id="그룹_1126" transform="translate(89 473)">
				<g id="그룹_897-2" transform="rotate(-14.98 1315.2 -191.615)" class="st2">
					<path id="합치기_139-3" class="st3" d="M67.4-73.8c0-0.2,0-0.3,0-0.5c0-0.3,0-0.4,0-0.4v-3.9c-7.2-0.1-12.6-0.3-16.4-0.5
						c-4.5-0.3-6.6-0.5-6.7-0.5c-0.7-0.2-1.5-0.2-2.2,0c-0.5,0.1-1,0.1-1.5,0.1c-0.1,0-0.3,0-0.4,0c-3.6,0-6.4-2.9-6.4-6.5
						c0-3.4,2.7-6.2,6.1-6.4c4.8-4.9,10.1-9.2,15.8-12.9c5.5-3.6,11.4-6.5,17.6-8.6c0-0.1,0.3-0.2,0.8-0.4c0-0.2,0-0.3,0-0.5
						c1-4,4.5-6.9,8.6-7.2c0.6,0,1.2,0.2,1.8,0.5c2.7,0.8,8.1,3.2,16.2,12c6.2,7.1,10.5,14.8,11,18.6v0.1c0,0.1,0,0.2,0,0.4
						c0,0.1,0,0.2,0,0.3c0.2,2.9-0.9,5.7-3.1,7.7c-2.6,2.4-6.6,3-9.5,2.9c-0.3,0-0.5,0-0.7,0c-2.2,0.2-9.2,0.7-19.6,0.9l0,0
						c0,0.3,0.1,0.8,0.1,1.4c2,2.8,1.3,6.8-1.6,8.7c-1,0.7-2.3,1.1-3.5,1.1C70.3-67.4,67.4-70.3,67.4-73.8
						C67.4-73.7,67.4-73.8,67.4-73.8z"/>
					<path id="패스_60-3" class="st4" d="M74.2-114c9.8,4.9,17.9,12.6,23.2,22.1"/>
					
						<ellipse id="타원_1105-3" transform="matrix(-1 1.422414e-05 -1.422414e-05 -1 155.5711 -189.5459)" class="st5" cx="77.8" cy="-94.8" rx="5.6" ry="4.1"/>
					
						<ellipse id="타원_1106-3" transform="matrix(-1 1.415546e-05 -1.415546e-05 -1 114.8423 -188.7123)" class="st5" cx="57.4" cy="-94.4" rx="4.1" ry="3"/>
					
						<ellipse id="타원_1107-3" transform="matrix(-1 1.403374e-05 -1.403374e-05 -1 132.7238 -202.64)" class="st5" cx="66.4" cy="-101.3" rx="3.1" ry="2.3"/>
					<path id="선_2-3" class="st6" d="M67.4-74v-11.4"/>
				</g>
				<g id="그룹_898-2" transform="translate(280.045 324.234)" class="st2">
					<path id="패스_1026-3_1_" class="st4" d="M41.2-122.9c-2-1.1-4.4-2-7-2.6c-20.3-4.7-30.8,12.2-32.8,25.7
						c-0.8,9,0.4,10,4.6,11.3c2.6,0.8,21.6,6,35.2,9.7"/>
					<path id="패스_1131-2" class="st9" d="M20.4-114.4c0.8,0.2,1.3,1.1,1.1,1.9c-0.2,0.8-1.1,1.3-1.9,1.1
						c-0.8-0.2-1.3-1.1-1.1-1.9C18.7-114.1,19.6-114.6,20.4-114.4z"/>
					<path id="패스_1132-2" class="st9" d="M33.1-111c0.8,0.2,1.3,1.1,1.1,1.9s-1.1,1.3-1.9,1.1s-1.3-1.1-1.1-1.9
						C31.4-110.7,32.3-111.2,33.1-111z"/>
					<path id="패스_1133-2" class="st9" d="M23.9-105.7c0.8,0.2,1.3,1.1,1.1,1.9c-0.2,0.8-1.1,1.3-1.9,1.1
						c-0.8-0.2-1.3-1.1-1.1-1.9C22.3-105.5,23.1-105.9,23.9-105.7z"/>
					<path id="패스_1134-2" class="st9" d="M38.6-101.8c0.8,0.2,1.3,1.1,1.1,1.9s-1.1,1.3-1.9,1.1c-0.8-0.2-1.3-1.1-1.1-1.9
						C37-101.5,37.8-102,38.6-101.8z"/>
				</g>
				<g id="그룹_1121-2" transform="translate(0 23)">
					<g id="그룹_899-2" transform="rotate(14.98 -644.435 837.918)" class="st2">
						<path id="패스_1029-2" class="st10" d="M46-111.7c0,0-6.5-2.3-10.8,1.3c-0.4,0-7-5.4-20.4-3.8c-6.9-3.8-15.3-3.9-22.2,0
							c-0.2-0.2-18.8,3.3-24.2,22.4c0.3,0.5-0.9,4.4,2.3,6.6c3.3,2.2,7.7-0.3,10.1-1.2c2.4-0.9,18.2-5.6,31.1-5.3
							c13,0.3,28.3-4.7,34-14C48.4-109.6,46-111.7,46-111.7z"/>
						<path id="패스_1030-2" class="st10" d="M-22.9-83.4l0,5.2c0,0,0.5,4.3,2.6,6.9s3.3,3,5.9,3.4c6.7,1.1,33.6,0.1,33.6,0.1
							c2.7,0,5.3-0.7,7.7-1.9c3.4-1.9,5.8-6.1,5.7-11.3c-0.2-9.5,0-14,0-14"/>
						<path id="패스_1031-2" class="st10" d="M45.2-110.8c0,0,10.7-1.7,11.5-11.6c0.1-0.1-8.9,0-8.9,0l3.1,8.8"/>
						<path id="패스_1032-2" class="st7" d="M14.6-114.1c-1.9,3.4-2.8,7.3-2.7,11.1"/>
						<path id="패스_1033-2" class="st7" d="M-7-114.6c0,0-3.1,5.5-1.8,13.9"/>
					</g>
					<g id="그룹_892-2" transform="rotate(165.02 37.023 129.588)" class="st2">
						<path id="패스_1017-2" class="st11" d="M17.4,159.1c-5,3.7-9.4,6.8-10.6,11.1c-1.6,5.5-4.9,6.4-6.7,6.4s-5.2-0.8-6.7-6.4
							c-1.2-4.3-5.5-7.4-10.5-11.1c-7.8-5.7-16.6-12.1-16.6-25.2c0-7.8,4.1-12,11.9-12l44.1-0.1c7.8,0,11.9,4.1,11.9,11.9
							C34.1,146.9,25.2,153.4,17.4,159.1z M22.2,125.3l-44.1,0.1c-5.9,0-8.5,2.6-8.5,8.6c0,11.3,7.7,17,15.2,22.4
							c5.3,3.9,10.3,7.5,11.8,12.9c0.7,2.6,1.9,3.9,3.5,3.9s2.7-1.3,3.5-3.9c1.5-5.4,6.6-9.1,11.9-13c7.5-5.5,15.3-11.2,15.3-22.5
							C30.7,127.9,28.1,125.3,22.2,125.3z"/>
						<path id="패스_1018-2" class="st11" d="M-5.9,155.9c-0.8,0.4-1.8,0.1-2.3-0.7l0,0l-3.4-6.8c-0.4-0.8-0.1-1.9,0.8-2.3
							c0.8-0.4,1.8-0.1,2.3,0.7l0,0l3.4,6.8C-4.7,154.5-5.1,155.5-5.9,155.9z"/>
						<path id="패스_1019-2" class="st11" d="M0.1,156.1c-0.5,0-0.9-0.2-1.2-0.5s-0.5-0.8-0.5-1.2l0-6.8c-0.1-0.9,0.7-1.7,1.6-1.8
							s1.7,0.7,1.8,1.6c0,0.1,0,0.1,0,0.2l0,6.8c0,0.5-0.2,0.9-0.5,1.2C1,155.9,0.6,156.1,0.1,156.1L0.1,156.1z"/>
						<path id="패스_1020-2" class="st11" d="M8.4,155.1C8,156,7,156.4,6.2,156c-0.9-0.4-1.3-1.4-0.9-2.2c0-0.1,0.1-0.1,0.1-0.2
							l3.4-6.8c0.4-0.9,1.4-1.3,2.2-0.9c0.9,0.4,1.3,1.4,0.9,2.2c0,0.1-0.1,0.1-0.1,0.2L8.4,155.1z"/>
					</g>
				</g>
				<g id="그룹_911-2" transform="rotate(165.02 19.518 251.48)" class="st2">
					<g id="그룹_901-3">
						<g id="합치기_147-3">
							<path class="st12" d="M-5.1,197.3c-3.3,0-6.4-1.2-8.9-3.3l-0.9-0.8l-1.1,0.2c-0.7,0.1-1.4,0.2-2.1,0.2l0,0
								c-1.8,0-3.6-0.4-5.3-1.1c-1.6-0.7-3-1.6-4.3-2.9c-2.4-2.4-3.7-5.5-3.7-8.8c0-7.1,6-12.8,13.3-12.8l0,0c3.3,0,6.4,1.2,8.8,3.3
								l0.9,0.8l1.1-0.2c0.7-0.1,1.4-0.2,2.1-0.2l0,0c0.9,0,1.8,0.1,2.7,0.3l1.2,0.2l0.9-0.8c2.5-2.2,5.7-3.4,9-3.4l0,0
								c1.8,0,3.6,0.4,5.3,1.1c1.6,0.7,3,1.6,4.3,2.9c2.4,2.4,3.7,5.5,3.7,8.8c0,7.1-6,12.8-13.3,12.8l0,0c-0.9,0-1.8-0.1-2.7-0.3
								l-1.2-0.2l-0.9,0.8C1.5,196-1.7,197.3-5.1,197.3L-5.1,197.3L-5.1,197.3z"/>
							<path class="st5" d="M9,170.5L9,170.5c-2.8,0-5.4,1-7.4,2.8l-1.9,1.7l-2.4-0.5c-0.7-0.1-1.5-0.2-2.2-0.2l0,0
								c-0.6,0-1.2,0-1.7,0.1l-2.3,0.4l-1.7-1.5c-2-1.7-4.5-2.7-7.2-2.7l0,0c-6,0-10.8,4.6-10.8,10.3c0,2.6,1,5.2,3,7.1
								c2,2,4.8,3.2,7.8,3.2l0,0c0.6,0,1.2,0,1.7-0.1l2.3-0.4l1.8,1.5c2,1.7,4.5,2.7,7.2,2.7l0,0c2.7,0,5.4-1,7.4-2.8l1.9-1.7
								l2.4,0.5c0.7,0.1,1.5,0.2,2.2,0.2l0,0c6,0,10.8-4.6,10.8-10.3c0-2.6-1-5.2-3-7.1C14.7,171.6,11.9,170.5,9,170.5 M9,165.5
								c8.7,0,15.7,6.8,15.7,15.3c0,8.4-7.1,15.3-15.8,15.3l0,0c-1.1,0-2.2-0.1-3.2-0.3c-2.8,2.5-6.6,4-10.7,4.1l0,0
								c-4,0-7.7-1.5-10.5-3.9c-0.8,0.1-1.7,0.2-2.5,0.2c-8.7,0-15.7-6.8-15.7-15.3c0-8.4,7.1-15.3,15.8-15.3l0,0
								c4,0,7.7,1.5,10.5,3.9c1.9-0.3,3.8-0.3,5.7,0.1C1.1,167,4.8,165.5,9,165.5L9,165.5z"/>
						</g>
						<path id="패스_1040-3" class="st3" d="M-25.1,178l0-19c0,0-0.3-2.5,5.2-14.7c-0.1-0.4-0.5-15.6-0.5-15.6s-0.4-6.2,4.4-6.6
							s19.2,0,19.2,0s4.3,1,4.2,6.6c-0.1,5.6,0.5,15.6,0.5,15.6s7.8,3,7.4,14.6c0.1,15.8,0,19,0,19L-25.1,178z"/>
						<path id="패스_1041-3" class="st4" d="M-13.1,178c0,0,6.6-0.6,6.6-6.7l0-16.4c0,0,0.2-5,4.8-5s4.4,4.9,4.4,4.9l0,16.4
							c0,0-0.2,7,6.4,6.7"/>
					</g>
					<path id="패스_1042-3" class="st12" d="M-12.4,180.2c0,0,5.7-1.9,7.1-4.6c1.4-2.6,6.8,0,6.8,0c1.5,2.7,4.4,4.4,7.5,4.5
						C14.5,180.5-12.4,180.2-12.4,180.2z"/>
				</g>
				<g id="그룹_1120-2" transform="translate(-5 7)">
					<g id="그룹_910-2" transform="rotate(-150 105.143 72.866)" class="st2">
						<g id="그룹_901-4">
							<g id="합치기_147-4">
								<path class="st12" d="M91.4,183L91.4,183c-3.3,0-6.5-1.2-9-3.3l-0.9-0.8l-1.1,0.2c-0.7,0.1-1.4,0.2-2.1,0.2l0,0
									c-7.3,0-13.3-5.8-13.4-12.8c0-3.3,1.3-6.4,3.7-8.8c1.2-1.2,2.7-2.2,4.3-2.9c1.7-0.7,3.5-1.1,5.3-1.1l0,0
									c3.3,0,6.5,1.2,8.9,3.3l0.9,0.8l1.1-0.2c0.7-0.1,1.4-0.2,2.1-0.2l0,0c0.9,0,1.9,0.1,2.8,0.3l1.2,0.3l0.9-0.8
									c2.4-2.2,5.6-3.4,9-3.4l0,0c7.3,0,13.3,5.8,13.4,12.8c0,3.3-1.3,6.4-3.7,8.8c-1.2,1.2-2.7,2.2-4.3,2.9
									c-1.7,0.7-3.5,1.1-5.3,1.1l0,0c-0.9,0-1.9-0.1-2.8-0.3l-1.2-0.3l-0.9,0.8C98,181.8,94.8,183,91.4,183z"/>
								<path class="st5" d="M78.2,156.2c-3,0-5.7,1.1-7.8,3.2c-1.9,1.9-2.9,4.4-2.9,7c0,5.7,4.9,10.3,10.9,10.3l0,0
									c0.6,0,1.1,0,1.7-0.1l2.3-0.3l1.7,1.5c2,1.7,4.6,2.7,7.3,2.7l0,0c2.7,0,5.3-1,7.3-2.7l1.9-1.7l2.5,0.5
									c0.7,0.2,1.5,0.2,2.3,0.2l0,0c3,0,5.7-1.1,7.8-3.2c1.9-1.9,2.9-4.4,2.9-7c0-5.7-4.9-10.3-10.9-10.3l0,0
									c-2.7,0-5.3,1-7.3,2.7l-1.9,1.7l-2.5-0.5c-0.7-0.2-1.5-0.2-2.3-0.2l0,0c-0.6,0-1.1,0-1.7,0.1l-2.3,0.3l-1.7-1.5
									C83.5,157.2,80.9,156.2,78.2,156.2L78.2,156.2 M78.2,151.2L78.2,151.2c3.9,0,7.7,1.4,10.6,3.9c1.9-0.3,3.8-0.2,5.7,0.2
									c2.8-2.5,6.5-4,10.6-4h0.1c8.7,0,15.8,6.9,15.9,15.3c0,8.4-7,15.2-15.7,15.2h-0.1c-1.1,0-2.2-0.1-3.3-0.3
									c-2.8,2.5-6.5,4-10.6,4h-0.1c-3.9,0-7.6-1.4-10.6-3.9c-0.8,0.1-1.7,0.2-2.5,0.2c-8.7,0-15.8-6.9-15.9-15.3
									C62.4,158,69.5,151.2,78.2,151.2L78.2,151.2z"/>
							</g>
							<path id="패스_1040-4" class="st3" d="M71.2,163.6l-0.1-19c0,0-0.3-2.5,5.1-14.6c-0.1-0.4-0.6-13.2-0.6-13.2
								s-0.4-6.2,4.4-6.6c4.8-0.4,19.3,0.1,19.3,0.1s4.3,1,4.3,6.7c-0.1,5.6,0.6,13.2,0.6,13.2s7.3,8.5,7.4,14.7
								c0.2,15.8,0.1,19,0.1,19L71.2,163.6z"/>
							<path id="패스_1041-4" class="st4" d="M83.2,163.7c0,0,6.6-0.6,6.6-6.7l-0.1-16.4c0,0,0.1-5,4.8-4.9c4.7,0.1,4.5,5,4.5,5
								l0.1,16.4c0,0-0.2,7,6.5,6.7"/>
						</g>
						<path id="패스_1042-4" class="st12" d="M83.9,165.9c0,0,5.7-1.9,7.1-4.5c1.3-2.6,6.8,0,6.8,0c1.6,2.7,4.4,4.4,7.5,4.6
							C110.8,166.4,83.9,165.9,83.9,165.9z"/>
					</g>
					<g id="그룹_904-2" transform="translate(275.786 104.234)" class="st2">
						<g id="타원_1146-4">
							<ellipse class="st13" cx="15.5" cy="-111" rx="14.4" ry="15.5"/>
							<ellipse class="st7" cx="15.5" cy="-111" rx="11.9" ry="13"/>
						</g>
						<g id="타원_1147-4" transform="translate(16.872 20)">
							<ellipse class="st13" cx="16" cy="-111" rx="14.9" ry="15.5"/>
							<ellipse class="st7" cx="16" cy="-111" rx="12.4" ry="13"/>
						</g>
						<g id="타원_1148-4" transform="translate(35.73 38)">
							<path class="st13" d="M15.5-95.5c-8,0-14.4-6.9-14.4-15.5s6.4-15.5,14.4-15.5"/>
							<path class="st7" d="M15.5-98c-6.6,0-11.9-5.8-11.9-13s5.3-13,11.9-13"/>
						</g>
						<path id="패스_1043-4" class="st4" d="M3.6-114v24.7c0,0,0,3.4,4.2,3.4s3.7-3.4,3.7-3.4v-20.3"/>
						<path id="패스_1044-4" class="st7" d="M10.5-103.8c0,0,5.5-0.5,7.5-4.5s5.2-6.8,9.6-5.6"/>
					</g>
					<g id="그룹_1127" transform="translate(-34.214 306.234)" class="st2">
						<g id="타원_1146-5">
							<ellipse class="st13" cx="15.5" cy="-111" rx="14.4" ry="15.5"/>
							<ellipse class="st7" cx="15.5" cy="-111" rx="11.9" ry="13"/>
						</g>
						<g id="타원_1147-5" transform="translate(16.872 20)">
							<ellipse class="st13" cx="16" cy="-111" rx="14.9" ry="15.5"/>
							<ellipse class="st7" cx="16" cy="-111" rx="12.4" ry="13"/>
						</g>
						<g id="타원_1148-5" transform="translate(35.73 38)">
							<ellipse class="st13" cx="15.5" cy="-111" rx="14.4" ry="15.5"/>
							<ellipse class="st7" cx="15.5" cy="-111" rx="11.9" ry="13"/>
						</g>
						<path id="패스_1043-5" class="st4" d="M3.6-114v24.7c0,0,0,3.4,4.2,3.4s3.7-3.4,3.7-3.4v-20.3"/>
						<path id="패스_1044-5" class="st7" d="M10.5-103.8c0,0,5.5-0.5,7.5-4.5s5.2-6.8,9.6-5.6"/>
						<path id="패스_1051-3" class="st7" d="M59.2-65l11.9,12.9"/>
					</g>
				</g>
				<g id="그룹_1123-2">
					<g id="그룹_906-2" transform="rotate(-165.02 134.3 31.09)" class="st2">
						<path id="합치기_139-4" class="st3" d="M71.9,170c0-0.2,0-0.3,0-0.4c-0.5-0.1-0.8-0.3-0.8-0.4c-6.2-2.1-12.2-5-17.7-8.6
							c-5.7-3.7-11-8.1-15.8-12.9c-3.6-0.2-6.3-3.3-6-6.9c0.2-3.4,3-6,6.4-6c0.1,0,0.3,0,0.4,0c0.5,0,1,0,1.5,0.1
							c0.7,0.2,1.5,0.2,2.2,0c0.1,0,2.2-0.3,6.7-0.5c3.7-0.2,9.1-0.4,16.4-0.5v-4c0,0,0-0.2,0-0.5c0-0.1,0-0.3,0-0.4
							c-0.1-3.5,2.7-6.4,6.3-6.5h0.1c3.5,0,6.3,2.9,6.2,6.3c0,1.3-0.4,2.5-1.1,3.5c-0.1,0.7-0.2,1.2-0.1,1.4v0.1
							c10.5,0.2,17.4,0.7,19.6,0.9c0.2,0,0.5,0,0.7,0c3-0.1,6.9,0.6,9.5,2.9c2.3,2.1,3.4,5.2,3,8.3c0,0.1,0,0.1-0.1,0.1
							c-0.6,3.8-4.9,11.5-11,18.6c-8,8.7-13.4,11.1-16.1,12c-0.6,0.3-1.2,0.5-1.8,0.5C76.4,176.9,72.9,174,71.9,170z"/>
						<path id="패스_60-4" class="st4" d="M72.1,169.2c9.8-4.9,17.9-12.6,23.3-22.1"/>
						
							<ellipse id="타원_1105-4" transform="matrix(-1.671625e-05 -1 1 -1.671625e-05 -74.12 225.5837)" class="st5" cx="75.7" cy="149.9" rx="4.1" ry="5.6"/>
						
							<ellipse id="타원_1106-4" transform="matrix(-1.671625e-05 -1 1 -1.671625e-05 -94.02 204.8682)" class="st5" cx="55.4" cy="149.4" rx="3" ry="4.1"/>
						
							<ellipse id="타원_1107-4" transform="matrix(-1.808495e-05 -1 1 -1.808495e-05 -92.0152 220.7841)" class="st5" cx="64.4" cy="156.4" rx="2.3" ry="3.1"/>
						<path id="선_2-4" class="st6" d="M65.4,129.2v11.4"/>
					</g>
					<g id="그룹_909-2" transform="rotate(-14.98 265.046 34.794)" class="st2">
						<path id="선_1-5" class="st7" d="M34.1-100.9l55.1-21"/>
						<path id="패스_1039-5" class="st7" d="M35.8-94.4l58.9-9.7"/>
						<path id="패스_1036-5" class="st4" d="M43.5-83.3l0-22.2c0,0-1.1-7.2,4.9-7.2s5.2,7.2,5.2,7.2l0,22.2"/>
						<path id="패스_1038-5" class="st4" d="M63-83.3l0.1-27.8c0,0-1.1-9,4.9-9c6,0,5.2,9,5.2,9l-0.1,27.8"/>
						<path id="패스_1037-5" class="st4" d="M53.2-84.5l0.1-27.2c0,0-1.1-7.2,4.9-7.2c6,0,5.2,7.2,5.2,7.2l0,27.2"/>
						<path id="패스_1035-5" class="st10" d="M33.8-83.1c-0.5,7.1,3.2,16,12.4,22.4c-0.1,1.8-0.1,3.5,0,5.3
							c0.4,2.4,2.5,4.1,4.9,3.8l25.5,0c0,0,4.6,0.6,4.3-3.9c-0.3-4.5,0-5.3,0-5.3s13.3-6.7,13-22.4C94.1-83.3,33.9-83.4,33.8-83.1z"
							/>
					</g>
				</g>
				<g id="그룹_1124-2" transform="rotate(-135 213.57 205.227)" class="st2">
					<path id="선_1-6" class="st7" d="M89.1,139.6l55.1,21"/>
					<path id="패스_1039-6" class="st7" d="M90.8,133.1l58.9,9.7"/>
					<path id="패스_1036-6" class="st4" d="M98.4,121.9v22.2c0,0-1.1,7.2,4.9,7.2s5.2-7.2,5.2-7.2v-22.2"/>
					<path id="패스_1038-6" class="st4" d="M118,121.9l0.1,27.8c0,0-1.1,9,4.9,9c6,0,5.2-9,5.2-9l-0.1-27.8"/>
					<path id="패스_1037-6" class="st4" d="M108.2,123.2l0.1,27.2c0,0-1.1,7.2,4.9,7.2c6,0,5.2-7.2,5.2-7.2l-0.1-27.2"/>
					<path id="패스_1035-6" class="st10" d="M88.8,121.7c-0.5-7.1,3.2-16,12.4-22.4c-0.1-1.8-0.1-3.5,0-5.3
						c0.4-2.4,2.5-4.1,4.9-3.8h25.5c0,0,4.6-0.6,4.3,3.9c-0.3,4.5,0,5.3,0,5.3s13.3,6.7,13,22.4C149.1,122,88.9,122,88.8,121.7z"/>
				</g>
				<g id="그룹_1128" transform="translate(-76.955 167.234)" class="st2">
					<path id="패스_1027-5" class="st7" d="M54.1-75.7c0,0,7.9,5.1,12-4.9s2.2-27.5-14.4-33"/>
					<path id="합치기_145-5" class="st8" d="M52.8-97c0-0.9,0.1-1.8,0.4-2.6l-4.6-9.4c-2.6-1.8-4.2-4.8-4.2-7.9
						c0-5.3,4.2-9.5,9.4-9.6c4.6,0,8.6,3.5,9.2,8.1c0.9-0.3,1.9-0.5,2.9-0.5c5.2,0.1,9.4,4.3,9.3,9.5c0,3.4-1.8,6.5-4.7,8.2
						c0.6,1.3,0.9,2.7,0.9,4.1c0.1,5.2-4.1,9.5-9.3,9.5S52.8-91.8,52.8-97z"/>
					<path id="패스_1026-5_2_" class="st4" d="M38.5-79.6c9.3,2.5,16.9,4.6,16.9,4.6s-6.3-1.8-1.9-13.5c2.1-10.8,1.2-29.2-15-35.7
						"/>
					<path id="패스_1134-3_1_" class="st9" d="M38.6-101.8c0.8,0.2,1.3,1.1,1.1,1.9c-0.1,0.4-0.4,0.7-0.7,0.9"/>
				</g>
			</g>
		</g>
	</g>
</g>
<path class="st5" d="M-0.6,486.4"/>
</svg>
