<svg xmlns="http://www.w3.org/2000/svg" width="52" height="52" viewBox="0 0 52 52">
    <g id="prefix__share_btn_link" data-name="share btn_link" transform="translate(-202 -248)">
        <g id="prefix__btn_circle" transform="translate(202 248)" style="fill:#fff;stroke:#ebedef">
            <circle cx="26" cy="26" r="26" style="stroke:none"/>
            <circle cx="26" cy="26" r="25.5" style="fill:none"/>
        </g>
        <path id="prefix__패스_1195" d="M19.485 982.5a4.676 4.676 0 11-6.613-6.613l3.674-3.674a4.683 4.683 0 016.613 0 .779.779 0 11-1.1 1.1 3.093 3.093 0 00-4.408 0l-3.674 3.674a3.117 3.117 0 104.408 4.408l3.49-3.49a.779.779 0 111.1 1.1l-3.49 3.49zm6.98-6.98a4.683 4.683 0 01-6.613 0 .779.779 0 111.1-1.1 3.093 3.093 0 004.408 0l3.674-3.674a3.117 3.117 0 10-4.408-4.409l-3.49 3.49a.779.779 0 11-1.1-1.1l3.49-3.49a4.676 4.676 0 116.613 6.613z" data-name="패스 1195" transform="translate(206.495 -699.867)" style="fill:#c2c7cc"/>
    </g>
</svg>
