<svg xmlns="http://www.w3.org/2000/svg" width="172" height="150" viewBox="0 0 172 150">
    <defs>
        <style>
            .cls-1,.cls-14,.cls-4,.cls-5{fill:#fff}.cls-1{opacity:0}.cls-2{fill:#5f5cce}.cls-11,.cls-12,.cls-13,.cls-14,.cls-15,.cls-2,.cls-4,.cls-6,.cls-9{stroke:#111}.cls-11,.cls-14,.cls-2,.cls-3,.cls-4,.cls-6,.cls-9{stroke-width:3.5px}.cls-12,.cls-17,.cls-3,.cls-6{fill:none}.cls-3{stroke:#fff}.cls-4{stroke-linecap:round;stroke-linejoin:round}.cls-7{fill:#16181a}.cls-8,.cls-9{fill:#ffed64}.cls-10,.cls-13{fill:#111}.cls-11{fill:#fee000}.cls-12{stroke-width:2.5px}.cls-13{stroke-width:.8px}.cls-16{stroke:none}
        </style>
    </defs>
    <g id="img" transform="translate(-94 -196)">
        <path id="bg" d="M0 0h172v150H0z" class="cls-1" transform="translate(94 196)"/>
        <g id="그룹_1106" data-name="그룹 1106" transform="translate(143.236 222.206)">
            <path id="패스_1112" d="M0 11.012c.041 10.219 0 67.1 0 67.1S.811 88.4 11.026 88.4h53.206s9.673-1.266 9.8-13.622c.085-8.428.029-37.988 0-54.633-.234-.61-8.034-4.26-14.847-9.128C53.685 7.083 49.069-.2 48.792.074 32.811.108 8.833 0 8.833 0S-.041.793 0 11.012z" class="cls-2" data-name="패스 1112"/>
            <path id="패스_1108" d="M0 6.465s6.142 6.936 8.957 9.38C17.173 9.275 29.358 0 29.358 0" class="cls-3" data-name="패스 1108" transform="translate(22.727 35.677)"/>
            <path id="패스_1115" d="M4.363 0L5.4 16.916 6.84 18.4h20.976z" class="cls-4" data-name="패스 1115" transform="translate(45.673 .808)"/>
        </g>
        <g id="그룹_1162" data-name="그룹 1162" transform="translate(87.392 137.128)">
            <g id="그룹_830" data-name="그룹 830" transform="rotate(19.01 -1.983 7.449)">
                <path id="패스_63" d="M5.33 3.149V0L0 1.109 1.163 2.34l.7 1.586z" class="cls-5" data-name="패스 63" transform="translate(99.456 150.037)"/>
                <path id="패스_64" d="M3.512 2.241H1.81A4.933 4.933 0 0 0 .139.167c-.961-.474 3.373.21 3.373.21z" class="cls-5" data-name="패스 64" transform="translate(83.644 150.848)"/>
                <path id="합치기_139" d="M13.088.4c-3.4.2-5.005.406-5.08.4a3.682 3.682 0 0 1-1.695 0 5.45 5.45 0 0 0-1.17-.084 4.294 4.294 0 0 0-.28-.009 4.864 4.864 0 0 0-.307 9.719A70.341 70.341 0 0 0 16.5 20.151a57.862 57.862 0 0 0 13.356 6.424c-.007.091.228.186.611.284-.006.1-.009.205-.009.311a7.1 7.1 0 0 0 6.5 5.388 3.126 3.126 0 0 0 1.142-.291c1.987-.584 6.141-2.252 12.483-9.091 4.682-5.385 7.949-11.184 8.355-14.028a.253.253 0 0 0 .039-.1 7.262 7.262 0 0 0-2.284-6.274C54.732 1.01 51.733.552 49.471.6a6.007 6.007 0 0 0-.766.062C46.514.5 39.763.039 29.851 0H28.49c-7.026 0-12.074.2-15.402.4z" class="cls-4" data-name="합치기 139" transform="rotate(180 62.378 77.312)"/>
                <path id="패스_60" d="M17.62 0A41.146 41.146 0 0 0 0 16.673" class="cls-6" data-name="패스 60" transform="translate(76.555 128.043)"/>
                <ellipse id="타원_1105" cx="3.348" cy="2.455" class="cls-7" data-name="타원 1105" rx="3.348" ry="2.455" transform="translate(87.147 139.39)"/>
                <ellipse id="타원_1106" cx="2.161" cy="1.585" class="cls-7" data-name="타원 1106" rx="2.161" ry="1.585" transform="translate(105.11 140.576)"/>
                <ellipse id="타원_1107" cx="2.373" cy="1.74" class="cls-7" data-name="타원 1107" rx="2.373" ry="1.74" transform="translate(97.648 135.824)"/>
            </g>
            <path id="패스_1168" d="M4.247.107c1.927-1.082-.151 6.3 5.7 8.91s34.17 21.513 34.17 21.513l5.036 2.384a3.48 3.48 0 0 1-2.859 1.039c-1.664-.263-4.916-2.271-4.916-2.271l-17.83-8.436-16.959-9.791S.653 10.481.2 8.164-.333 2.7 4.247.107z" class="cls-8" data-name="패스 1168" transform="rotate(-9 1013.525 -24.712)"/>
        </g>
        <path id="패스_1177" d="M42.809 32a6.4 6.4 0 0 0-4.634 2.035A6.4 6.4 0 0 0 33.541 32a5.542 5.542 0 0 0-4.433 8.866.912.912 0 0 0 .209.2l6.353 6.806a3.247 3.247 0 0 0 2.442 1.212c.016 0 .03.005.047.005h.08a3.247 3.247 0 0 0 2.441-1.219l6.353-6.806a.912.912 0 0 0 .209-.2A5.542 5.542 0 0 0 42.809 32z" class="cls-9" data-name="패스 1177" transform="rotate(-45 327.28 44.185)"/>
        <circle id="타원_1210" cx="2.5" cy="2.5" r="2.5" class="cls-10" data-name="타원 1210" transform="translate(169 206)"/>
        <g id="타원_1212" class="cls-11" data-name="타원 1212" transform="translate(218 213)">
            <circle cx="6" cy="6" r="6" class="cls-16"/>
            <circle cx="6" cy="6" r="4.25" class="cls-17"/>
        </g>
        <g id="타원_1211" class="cls-11" data-name="타원 1211" transform="translate(99 262)">
            <circle cx="6" cy="6" r="6" class="cls-16"/>
            <circle cx="6" cy="6" r="4.25" class="cls-17"/>
        </g>
        <g id="그룹_1164" data-name="그룹 1164" transform="translate(3 6)">
            <path id="선_17" d="M0 0h13" class="cls-6" data-name="선 17" transform="translate(147.5 199.5)"/>
            <path id="선_18" d="M0 0h13" class="cls-6" data-name="선 18" transform="rotate(90 -19.5 173.5)"/>
        </g>
        <g id="그룹_1165" data-name="그룹 1165" transform="translate(85 31)">
            <path id="선_17-2" d="M0 0h13" class="cls-12" data-name="선 17" transform="translate(147.5 199.5)"/>
            <path id="선_18-2" d="M0 0h13" class="cls-12" data-name="선 18" transform="rotate(90 -19.5 173.5)"/>
        </g>
        <g id="그룹_1167" data-name="그룹 1167" transform="translate(-19)">
            <g id="noun_Beer_1954638" transform="translate(470.687 -87.387)">
                <g id="그룹_942" data-name="그룹 942" transform="translate(-242.086 333.337)">
                    <g id="그룹_1163" data-name="그룹 1163">
                        <path id="패스_1178" d="M5.7 12.639V25.3l2.069 9.564 2.667 8.606.64 12.53v2.269l1.305.791h14.066l1.623-1.623v-15.39l3.544-13.577V14.684l3.4-.984V7.48L30.07 3.542h-4.8l-5.5-2.178-5.176 1.021-3.518 2.421H6.408L1.779 8.555l.88 5.145 1.635 1.938z" class="cls-5" data-name="패스 1178" transform="translate(-.144 -.11)"/>
                        <path id="패스_1066" d="M-189.54 382.965a8.586 8.586 0 0 0-8.627-8.877 9.194 9.194 0 0 0-2.626.375 11.308 11.308 0 0 0-7.127-2.563 10.961 10.961 0 0 0-7.127 2.563 9.518 9.518 0 0 0-2.626-.375 8.549 8.549 0 0 0-8.627 8.877c0 3 1.313 5 3.939 5.939l-.313 5.314v.063a34.825 34.825 0 0 0 2.438 12.816l1.125 2.876a30.737 30.737 0 0 1 1.313 8.877v11.566a3.068 3.068 0 0 0 3.063 3.063h13.754a3.068 3.068 0 0 0 3.063-3.063V418.85a30.739 30.739 0 0 1 1.313-8.877l1.125-2.876a34.825 34.825 0 0 0 2.438-12.816V388.9c2.501-.871 3.502-2.934 3.502-5.935zm-19.693 8.815v7.187a7.828 7.828 0 0 0 1.021 3.2 4.136 4.136 0 0 0 3.709 1.656 3.777 3.777 0 0 0 4.022-3.765v-6.914l-.125.816h3.518l1.573-1.589v2.5a43.5 43.5 0 0 1-.543 5.975 23.579 23.579 0 0 1-1.741 5.663 25.083 25.083 0 0 0-1.712 4.962 46.244 46.244 0 0 0-.941 7.379v11.566h-15.365v-16.99s-.933-4.866-2.024-6.917c-.341-1.721-1.225-3.212-1.628-5.663-.686-1.963-.657-6.627-.657-6.627l.438-8.565h7.83a2.575 2.575 0 0 1 2.563 2.563v3.563zm8.69 38.635a.56.56 0 0 1-.563.563h-13.754c-.313 0 0 .313 0 0l6.647 2.015 7.76-2.577-.9 1.845zm.063-36.457v-5.742a2.358 2.358 0 0 1 2.563-2.563 2.3 2.3 0 0 1 2.4 2.037v4.679l-1.573 1.589zm6.752-7.68a4.3 4.3 0 0 0-4.126-3.126c-3.5 0-5.064 2.251-5.064 5.064v10.53c0 1.8-.641 2.53-1.881 2.53-1.844 0-1.87-2.03-1.87-2.53v-10.53a5.043 5.043 0 0 0-5.064-5.064h-10.315l-.188 3.063a3.285 3.285 0 0 1-1.625-3.251 6.046 6.046 0 0 1 6.127-6.377 6.8 6.8 0 0 1 2.5.438l.75.25.563-.563a8.85 8.85 0 0 1 6-2.376 8.566 8.566 0 0 1 6 2.376l.563.563.75-.25a6.8 6.8 0 0 1 2.5-.438 6.046 6.046 0 0 1 6.127 6.377c-.06 1.689-.56 2.69-1.748 3.315z" class="cls-13" data-name="패스 1066" transform="translate(226.3 -371.9)"/>
                    </g>
                </g>
            </g>
            <path id="패스_1179" d="M3417.408 2304.7l9.8.293s-.022 8.012.056 8.605c.119 1.023.919 4.768 4.748 4.342 4.646-.516 4.519-2.976 4.724-5.109l-.056-8.132h4.264s-.255 8.369-.329 9.114a19.3 19.3 0 0 1-.614 3.06c-.668 2.407-2.083 5.964-2.624 8.061-.968 3.752-1.2 18.79-1.2 18.79h-15.7l1.077-15.224a49.571 49.571 0 0 0-1.824-7.281 38.489 38.489 0 0 1-2.333-7.486s-.251-2.326-.3-4.015.311-5.018.311-5.018z" class="cls-8" data-name="패스 1179" transform="translate(-3182 -2040)"/>
        </g>
        <g id="그룹_1161" data-name="그룹 1161" transform="rotate(30 312.635 437.46)">
            <g id="그룹_898" data-name="그룹 898" transform="rotate(-14.98 1412.472 -340.24)">
                <path id="패스_1027" d="M10.475 28.391s-5.936 3.8-9.071-3.667S-.24 4.123 12.313 0" class="cls-9" data-name="패스 1027" transform="translate(6.102 12.94)"/>
                <path id="합치기_145" d="M0 21.772A6.921 6.921 0 0 1 3.369 15.9l3.648-6.945a6.629 6.629 0 0 1-.287-1.932A7.262 7.262 0 0 1 14.21 0a7.262 7.262 0 0 1 7.479 7.023 6.649 6.649 0 0 1-.741 3.051 6.955 6.955 0 0 1 3.732 6.079 7.262 7.262 0 0 1-7.48 7.024 7.922 7.922 0 0 1-2.329-.347 7.35 7.35 0 0 1-7.4 5.966A7.262 7.262 0 0 1 0 21.772z" class="cls-14" data-name="합치기 145" transform="rotate(180 12.34 14.398)"/>
                <path id="합치기_157" d="M0 15.493a4.915 4.915 0 0 1 2.425-4.177L5.05 6.373A4.669 4.669 0 0 1 4.844 5a5.2 5.2 0 0 1 5.382-5 5.2 5.2 0 0 1 5.382 5 4.689 4.689 0 0 1-.533 2.171 4.943 4.943 0 0 1 2.686 4.326 5.2 5.2 0 0 1-5.382 5 5.76 5.76 0 0 1-1.676-.247 5.275 5.275 0 0 1-5.322 4.245A5.2 5.2 0 0 1 0 15.493z" class="cls-8" data-name="합치기 157" transform="rotate(180 12.281 12.77)"/>
                <path id="패스_1026" d="M37.326 28.192C34.162 29.174 0 38.336 0 38.336s4.773-1.33 1.446-10.144C-.318 19.406 2.091 3.113 16.069.4c15.443-2.751 23.278 9.168 24.812 19.27.519 6.753-.391 7.54-3.555 8.522z" class="cls-14" data-name="패스 1026" transform="translate(15.632 3.539)"/>
                <path id="패스_1171" d="M33.284 17.119C31.361 17.716 0 26.264 0 26.264s6.014-3.036 8.863-7.2 2.05-6.62 2.533-9.454c.717-4.222 2.061-8.562 7.866-9.417 9.272-1.366 15.521 4.719 16.454 10.861.313 4.107-.508 5.467-2.432 6.065z" class="cls-8" data-name="패스 1171" transform="translate(19.064 13.277)"/>
                <g id="타원_1136" class="cls-15" data-name="타원 1136" transform="rotate(165.02 20.927 9.99)">
                    <ellipse cx="1.157" cy="1.157" class="cls-16" rx="1.157" ry="1.157"/>
                    <ellipse cx="1.157" cy="1.157" class="cls-17" rx="1.657" ry="1.657"/>
                </g>
                <g id="타원_1137" class="cls-15" data-name="타원 1137" transform="rotate(165.02 15.962 10.644)">
                    <ellipse cx="1.157" cy="1.157" class="cls-16" rx="1.157" ry="1.157"/>
                    <ellipse cx="1.157" cy="1.157" class="cls-17" rx="1.657" ry="1.657"/>
                </g>
                <g id="타원_1138" class="cls-15" data-name="타원 1138" transform="rotate(165.02 19.164 13.074)">
                    <ellipse cx="1.157" cy="1.157" class="cls-16" rx="1.157" ry="1.157"/>
                    <ellipse cx="1.157" cy="1.157" class="cls-17" rx="1.657" ry="1.657"/>
                </g>
                <g id="타원_1139" class="cls-15" data-name="타원 1139" transform="rotate(165.02 13.407 13.831)">
                    <ellipse cx="1.157" cy="1.157" class="cls-16" rx="1.157" ry="1.157"/>
                    <ellipse cx="1.157" cy="1.157" class="cls-17" rx="1.657" ry="1.657"/>
                </g>
            </g>
            <path id="패스_1166" d="M0 0a8.768 8.768 0 0 0 5.334 4.586" class="cls-14" data-name="패스 1166" transform="rotate(-60 393.903 60.892)"/>
            <path id="패스_1167" d="M4.7 3.992A58.892 58.892 0 0 0 0 0" class="cls-14" data-name="패스 1167" transform="rotate(174 66.714 184.49)"/>
        </g>
    </g>
</svg>
