<svg xmlns="http://www.w3.org/2000/svg" width="155" height="106" viewBox="0 0 155 106">
    <defs>
        <style>
            .cls-1,.cls-12,.cls-13,.cls-2,.cls-4,.cls-7,.cls-9{fill:#fff}.cls-1{opacity:0}.cls-3{fill:#90b9c9}.cls-4,.cls-9{stroke-linecap:round;stroke-linejoin:round}.cls-14,.cls-5,.cls-6{fill:none}.cls-6,.cls-7,.cls-9{stroke:#111;stroke-width:3.8px}.cls-8{fill:#fee000}.cls-10{fill:#468ba5;opacity:.6}.cls-11{opacity:.5}.cls-12,.cls-14{stroke:#fff}.cls-12{stroke-width:.5px}.cls-14{stroke-width:1.5px}.cls-15,.cls-16{stroke:none}.cls-16{fill:#111}
        </style>
    </defs>
    <g id="theme_C" transform="translate(-188 -38)">
        <path id="bg" d="M0 0h155v106H0z" class="cls-1" transform="translate(188 38)"/>
        <g id="illust" transform="translate(9 2)">
            <g id="합치기_153" class="cls-2" data-name="합치기 153">
                <path d="M259-959.9a8.086 8.086 0 0 1-4.141-1.137l-.9-.537-.935.475a10.977 10.977 0 0 1-5.024 1.2c-2.116 0-4.173-.598-5.948-1.727l-1.115-.709-1.052.797A8.025 8.025 0 0 1 235-959.9c-4.466 0-8.1-3.634-8.1-8.1 0-4.467 3.634-8.1 8.1-8.1.526 0 1.052.05 1.563.15l1.29.252.691-1.12a11.183 11.183 0 0 1 3.965-3.83A11.098 11.098 0 0 1 248-982.1c3.804 0 7.302 1.916 9.356 5.124l.563.88 1.045-.004H259c4.466 0 8.1 3.633 8.1 8.1 0 4.466-3.634 8.1-8.1 8.1z" class="cls-15" transform="translate(-16 1070)"/>
                <path d="M259-961.8c3.419 0 6.2-2.781 6.2-6.2 0-3.42-2.781-6.2-6.2-6.2h-.029l-2.089.008-1.126-1.759A9.172 9.172 0 0 0 248-980.2c-1.599 0-3.172.416-4.55 1.202a9.277 9.277 0 0 0-3.289 3.178l-1.38 2.24-2.582-.505A6.207 6.207 0 0 0 228.8-968c0 3.419 2.781 6.2 6.2 6.2a6.14 6.14 0 0 0 3.737-1.252l2.106-1.595 2.229 1.418A9.165 9.165 0 0 0 248-961.8a9.095 9.095 0 0 0 4.163-.993l1.868-.95 1.8 1.073a6.186 6.186 0 0 0 3.17.87m0 3.8a9.952 9.952 0 0 1-5.116-1.406A12.943 12.943 0 0 1 248-958c-2.564 0-4.954-.742-6.968-2.023A9.955 9.955 0 0 1 235-958c-5.522 0-10-4.477-10-10s4.478-10 10-10c.66 0 1.304.063 1.927.185A12.993 12.993 0 0 1 248-984a12.99 12.99 0 0 1 10.956 6H259c5.523 0 10 4.477 10 10s-4.477 10-10 10z" class="cls-16" transform="translate(-16 1070)"/>
            </g>
            <path id="합치기_154" d="M248.439-971.629A9.629 9.629 0 0 1 241.75-969a9.744 9.744 0 0 1-5.654-1.772A5.375 5.375 0 0 1 231.5-968c-3.037 0-5.5-2.756-5.5-6.154s2.462-6.154 5.5-6.154a4.958 4.958 0 0 1 1.439.213 9.207 9.207 0 0 1 8.811-5.9 9.148 9.148 0 0 1 8.959 6.375 4.246 4.246 0 0 1 2.291-.683c2.761 0 5 2.756 5 6.154S255.761-968 253-968a5.072 5.072 0 0 1-4.561-3.629z" class="cls-3" data-name="합치기 154" transform="translate(-10 1078)"/>
            <g id="그룹_1137" data-name="그룹 1137" transform="translate(-11 33.59)">
                <g id="합치기_152" class="cls-4" data-name="합치기 152">
                    <path d="M46.881 23.1H11.119a.219.219 0 0 1-.07-.427l3.368-1.097-2.776-2.199a17.443 17.443 0 0 1-4.777-5.9 17.092 17.092 0 0 1-1.779-7.644c0-.226.02-.452.057-.67l.384-2.224H2.42a.52.52 0 0 1 0-1.039h62.16a.52.52 0 0 1 0 1.04H49.29l.384 2.223c.038.218.057.444.057.67v3.334a13.89 13.89 0 0 1-4.447 10.205l-3.538 3.291h5.136a.219.219 0 0 1 0 .437z" class="cls-15" transform="translate(215 68.41)"/>
                    <path d="M42.803 21.2a3.8 3.8 0 0 1 1.187-3.22 12 12 0 0 0 3.84-8.813V5.833c0-.12-.01-.233-.029-.347a3.8 3.8 0 0 1 .09-1.686H6.925c.154.542.187 1.118.09 1.686-.02.114-.03.227-.03.347 0 4.723 2.127 9.117 5.836 12.055a3.8 3.8 0 0 1 1.426 3.312h28.556M46.88 25H11.119a2.119 2.119 0 0 1-.658-4.133c-4.432-3.51-7.276-8.94-7.276-15.034 0-.34.029-.67.085-.994h-.85A2.42 2.42 0 0 1 2.42 0h62.16a2.42 2.42 0 0 1 0 4.84H51.546c.056.322.084.654.084.993v3.334a15.79 15.79 0 0 1-5.052 11.596h.303a2.118 2.118 0 1 1 0 4.237z" class="cls-16" transform="translate(215 68.41)"/>
                </g>
                <g id="그룹_1138" data-name="그룹 1138" transform="translate(12.648 4.33)">
                    <path id="합치기_152-2" d="M7.351 17A1.441 1.441 0 0 1 7 14.161 13.009 13.009 0 0 1 2.092 3.966a3.983 3.983 0 0 1 .058-.676h-.5a1.645 1.645 0 0 1 0-3.29h40.71a1.645 1.645 0 0 1 0 3.29h-7.511a3.983 3.983 0 0 1 .058.676v2.267a10.753 10.753 0 0 1-4.61 8.834A1.442 1.442 0 0 1 28.942 17z" class="cls-3" data-name="합치기 152" transform="translate(215.352 68.079)"/>
                    <path id="패스_1163" d="M262.343 110.191h5.473" class="cls-5" data-name="패스 1163" transform="translate(-43.672 -35.083)"/>
                </g>
                <path id="패스_1163-2" d="M262.343 110.191h7.457" class="cls-6" data-name="패스 1163" transform="translate(-42.339 -32.278)"/>
            </g>
            <g id="그룹_1136" data-name="그룹 1136">
                <g id="타원_1177" class="cls-7" data-name="타원 1177" transform="translate(245 64)">
                    <circle cx="18.5" cy="18.5" r="18.5" class="cls-15"/>
                    <circle cx="18.5" cy="18.5" r="16.6" class="cls-5"/>
                </g>
                <g id="타원_1178" class="cls-7" data-name="타원 1178" transform="translate(253 71)">
                    <circle cx="11" cy="11" r="11" class="cls-15"/>
                    <circle cx="11" cy="11" r="9.1" class="cls-5"/>
                </g>
                <g id="타원_1174" class="cls-7" data-name="타원 1174" transform="translate(260 59)">
                    <circle cx="26" cy="26" r="26" class="cls-15"/>
                    <circle cx="26" cy="26" r="24.1" class="cls-5"/>
                </g>
                <g id="타원_1175" class="cls-7" data-name="타원 1175" transform="translate(269 68)">
                    <circle cx="17" cy="17" r="17" class="cls-15"/>
                    <circle cx="17" cy="17" r="15.1" class="cls-5"/>
                </g>
                <g id="그룹_1135" data-name="그룹 1135" transform="rotate(30 44.98 562.518)">
                    <g id="패스_1159" class="cls-2" data-name="패스 1159">
                        <path d="M16.895 34.997c-.238 0-.483-.004-.727-.012l-.043-.001h-.043c-.074.002-.148.002-.22.002-2.108 0-4.084-.415-5.874-1.232a13.14 13.14 0 0 1-4.391-3.262c-1.358-1.531-2.404-3.415-3.023-5.447a15.623 15.623 0 0 1-.563-6.376l.013-.113v-.114C2.024 9.321 8.342 1.9 16.108 1.9c7.765 0 14.083 7.42 14.083 16.542v.052l.003.051c.156 2.87-.08 5.437-.698 7.63-.599 2.12-1.557 3.887-2.849 5.251-2.244 2.37-5.525 3.57-9.752 3.571z" class="cls-15"/>
                        <path d="M16.108 3.8c-3.15 0-6.145 1.453-8.43 4.09-1.166 1.345-2.084 2.92-2.73 4.682a17 17 0 0 0-1.024 5.87v.228l-.027.226a13.709 13.709 0 0 0 .494 5.595c.54 1.772 1.45 3.412 2.628 4.74 1.559 1.759 4.359 3.855 8.842 3.855l.195-.001.086-.001.086.002c.224.007.448.011.667.011 3.685 0 6.502-1.002 8.373-2.977 2.26-2.386 3.306-6.353 3.028-11.472l-.005-.103v-.103a17 17 0 0 0-1.024-5.87c-.646-1.762-1.564-3.337-2.73-4.682-2.285-2.637-5.279-4.09-8.43-4.09m0-3.8c8.828 0 15.984 8.257 15.984 18.442.613 11.294-4.473 18.455-15.196 18.455-.26 0-.521-.004-.787-.013-.083.002-.165.002-.247.002-10.555 0-16.837-9.3-15.737-18.444C.124 8.257 7.28 0 16.108 0z" class="cls-16"/>
                    </g>
                    <path id="패스_1160" d="M7.091 0c3.886 0 7.036 3.635 7.036 8.118.277 5.092-2.079 8.275-7.036 8.118A7.045 7.045 0 0 1 .055 8.118C.055 3.635 3.2 0 7.091 0z" class="cls-8" data-name="패스 1160" transform="translate(8.996 10.327)"/>
                </g>
                <g id="그룹_1134" data-name="그룹 1134" transform="translate(245.223 85.404)">
                    <path id="패스_1035" d="M1.294.707C.095 1.738.081 2.505.012 4.417c0 1.287-.319 9.463 2.251 14.113s5.873 9.538 12.594 12.427c.035-.016 0 6.284 0 6.284s-.266 4.6 4.52 4.6 27.89.086 27.89.086a4.349 4.349 0 0 0 4.633-4.686c-.06-6.147 0-6.2 0-6.2s8.15-3.457 11.921-10.114 3.136-15.1 3.164-16.513a7.564 7.564 0 0 0-.862-3.185 3.307 3.307 0 0 0-2.3-1.155H5.565S2.493-.324 1.294.707z" class="cls-9" data-name="패스 1035"/>
                    <path id="패스_1162" d="M.464-.724C-.53.133-.541 1.77-.6 3.36a20.4 20.4 0 0 0 3.673 11.262c3.567 5.2 10.742 8.965 16.314 11.368.029-.013-5.785 1.536-5.785 1.536s-1.5 7.262 2.464 7.262 23.125.072 23.125.072a4.874 4.874 0 0 1 1.043 0c.306-.025 3.057.163 2.8-3.9-.05-5.111 0-6.555 0-6.555s1.435-.547 2.123-.807c1.052-.8 5.252-2.637 8.735-7.169a37.48 37.48 0 0 0 4.051-13.914 6.3 6.3 0 0 0-.714-2.648 2.738 2.738 0 0 0-1.909-.961h-2.746l-25.633.157-22.936-.312S1.458-1.582.464-.724z" class="cls-10" data-name="패스 1162" transform="translate(7.31 5.22)"/>
                    <path id="패스_1060" d="M0 6.438C2.7 5.359 6.131 3.628 7.9 0" class="cls-6" data-name="패스 1060" transform="translate(48.284 16.702)"/>
                    <path id="패스_1158" d="M262.343 110.191H294" class="cls-6" data-name="패스 1158" transform="translate(-247.562 -78.682)"/>
                    <path id="선_13" d="M0 0h78.754" class="cls-6" data-name="선 13" transform="translate(-.723 41.872)"/>
                    <path id="선_14" d="M0 0l78.754 3.776" class="cls-6" data-name="선 14" transform="translate(-.723 45.096)"/>
                </g>
                <path id="패스_1161" d="M33.947 1070.347s-.984-13.277-15.041-13.425a15.161 15.161 0 0 0 3.723 13.425c.45.109 11.318 0 11.318 0z" class="cls-7" data-name="패스 1161" transform="translate(225 -985)"/>
                <path id="패스_1164" d="M26.068 1064.456s-4.009-8.433-7.725-8.209c-.008-.118-1.565 5.739 2.208 8.209.22.061 5.517 0 5.517 0z" class="cls-3" data-name="패스 1164" transform="translate(231.396 -981.07)"/>
            </g>
            <g id="그룹_1131" class="cls-11" data-name="그룹 1131" transform="translate(114.831 53.028)">
                <g id="그룹_1110" data-name="그룹 1110" transform="translate(81.554 29.965)">
                    <g id="사각형_316" class="cls-12" data-name="사각형 316">
                        <path d="M0 0h6v1H0z" class="cls-15" transform="translate(-.384 2.007)"/>
                        <path d="M-.25-.25h6.5v1.5h-6.5z" class="cls-5" transform="translate(-.384 2.007)"/>
                    </g>
                    <g id="사각형_317" class="cls-12" data-name="사각형 317">
                        <path d="M0 0h5.623v.937H0z" class="cls-15" transform="rotate(90 1.64 1.64)"/>
                        <path d="M-.25-.25h6.123v1.437H-.25z" class="cls-5" transform="rotate(90 1.64 1.64)"/>
                    </g>
                </g>
                <g id="그룹_1112" data-name="그룹 1112" transform="translate(209.831 20.525)">
                    <g id="사각형_316-2" class="cls-12" data-name="사각형 316">
                        <path d="M0 0h5v1H0z" class="cls-15" transform="translate(.339 2.447)"/>
                        <path d="M-.25-.25h5.5v1.5h-5.5z" class="cls-5" transform="translate(.339 2.447)"/>
                    </g>
                    <g id="사각형_317-2" class="cls-12" data-name="사각형 317">
                        <path d="M0 0h5.623v.937H0z" class="cls-15" transform="rotate(90 1.64 1.64)"/>
                        <path d="M-.25-.25h6.123v1.437H-.25z" class="cls-5" transform="rotate(90 1.64 1.64)"/>
                    </g>
                </g>
                <g id="그룹_1111" data-name="그룹 1111" transform="translate(204.459 7.965)">
                    <path id="사각형_316-3" d="M0 0h6v1H0z" class="cls-13" data-name="사각형 316" transform="translate(-.29 2.007)"/>
                    <path id="사각형_317-3" d="M0 0h5.623v.937H0z" class="cls-13" data-name="사각형 317" transform="rotate(90 1.64 1.64)"/>
                </g>
                <g id="그룹_1139" data-name="그룹 1139" transform="translate(112.459 .965)">
                    <path id="사각형_316-4" d="M0 0h6v1H0z" class="cls-13" data-name="사각형 316" transform="translate(-2.29 2.007)"/>
                    <path id="사각형_317-4" d="M0 0h5.623v.937H0z" class="cls-13" data-name="사각형 317" transform="rotate(90 .64 .64)"/>
                </g>
                <circle id="타원_1186" cx="1.5" cy="1.5" r="1.5" class="cls-13" data-name="타원 1186" transform="translate(104.169 8.972)"/>
                <g id="타원_1165" class="cls-14" data-name="타원 1165" transform="translate(112.169 19.972)">
                    <circle cx="3" cy="3" r="3" class="cls-15"/>
                    <circle cx="3" cy="3" r="2.25" class="cls-5"/>
                </g>
                <g id="타원_1185" class="cls-14" data-name="타원 1185" transform="translate(149.169 -9.028)">
                    <circle cx="4" cy="4" r="4" class="cls-15"/>
                    <circle cx="4" cy="4" r="3.25" class="cls-5"/>
                </g>
            </g>
        </g>
    </g>
</svg>
