<svg xmlns="http://www.w3.org/2000/svg" width="263" height="261" viewBox="0 0 263 261">
    <defs>
        <style>
            .cls-1,.cls-4,.cls-5,.cls-9{fill:#fff}.cls-1{opacity:0}.cls-2{fill:#fee000}.cls-13,.cls-16,.cls-3{fill:none}.cls-3,.cls-4{stroke:#111}.cls-13,.cls-3,.cls-4{stroke-width:3.5px}.cls-6{fill:#fed700}.cls-7{fill:#edf6ff}.cls-14,.cls-18,.cls-8{fill:#c2c7cc}.cls-10,.cls-12{fill:#5f5cce}.cls-11{fill:#16181a}.cls-13{stroke:#fff}.cls-14{stroke:#c2c7cc;stroke-width:1.5px}.cls-15,.cls-17,.cls-18{stroke:none}.cls-17{fill:#111}.cls-19{filter:url(#타원_1150)}
        </style>
        <filter id="타원_1150" width="263" height="261" x="0" y="0" filterUnits="userSpaceOnUse">
            <feOffset dy="5"/>
            <feGaussianBlur result="blur" stdDeviation="7.5"/>
            <feFlood flood-color="#fee000" flood-opacity=".349"/>
            <feComposite in2="blur" operator="in"/>
            <feComposite in="SourceGraphic"/>
        </filter>
    </defs>
    <g id="img" transform="translate(-48.5 -269.5)">
        <path id="bg" d="M0 0h236v216H0z" class="cls-1" transform="translate(61.096 287)"/>
        <g class="cls-19" transform="translate(48.5 269.5)">
            <ellipse id="타원_1150-2" cx="109" cy="108" class="cls-2" data-name="타원 1150" rx="109" ry="108" transform="translate(22.5 17.5)"/>
        </g>
        <g id="그룹_7" data-name="그룹 7" transform="rotate(30 -654.102 347.422)">
            <path id="패스_14" d="M0 0l2.986 49.735" class="cls-3" data-name="패스 14" transform="translate(7.891 .229)"/>
            <path id="패스_13" d="M0 0v10.615a7.038 7.038 0 0 0 1.7 4.259C4.073 17.068 5.611 17 8.014 17h.067s-.076.051.028 0c6.453.4 8.176-4.153 8.214-6.388S16.324 0 16.324 0" class="cls-3" data-name="패스 13"/>
        </g>
        <g id="그룹_6" data-name="그룹 6" transform="rotate(-30 837.195 -282.438)">
            <path id="패스_920" d="M0 0l-.252 47.026" class="cls-3" data-name="패스 920" transform="translate(9.224 6.282)"/>
            <g id="사각형_3" class="cls-4" data-name="사각형 3">
                <rect width="19.55" height="24.496" class="cls-15" rx="9.775"/>
                <rect width="16.05" height="20.996" x="1.75" y="1.75" class="cls-16" rx="8.025"/>
            </g>
        </g>
        <circle id="타원_1159" cx="3" cy="3" r="3" class="cls-5" data-name="타원 1159" transform="translate(210 342)"/>
        <circle id="타원_1158" cx="65.5" cy="65.5" r="65.5" class="cls-6" data-name="타원 1158" transform="translate(115 330)"/>
        <g id="그룹_1150" data-name="그룹 1150" transform="translate(8 17)">
            <g id="사각형_332" class="cls-4" data-name="사각형 332" transform="translate(193 283)">
                <rect width="40" height="48" class="cls-15" rx="8"/>
                <rect width="36.5" height="44.5" x="1.75" y="1.75" class="cls-16" rx="6.25"/>
            </g>
            <path id="사각형_338" d="M8 0a8 8 0 0 1 8 8v22a6 6 0 0 1-6 6H6a6 6 0 0 1-6-6V8a8 8 0 0 1 8-8z" class="cls-7" data-name="사각형 338" transform="translate(213 291)"/>
            <circle id="타원_1205" cx="2.5" cy="2.5" r="2.5" class="cls-8" data-name="타원 1205" transform="translate(201 300)"/>
            <circle id="타원_1206" cx="2.5" cy="2.5" r="2.5" class="cls-8" data-name="타원 1206" transform="translate(201 307)"/>
            <circle id="타원_1207" cx="2.5" cy="2.5" r="2.5" class="cls-8" data-name="타원 1207" transform="translate(201 314)"/>
            <path id="사각형_334" d="M0 0h16v3H0z" class="cls-8" data-name="사각형 334" transform="translate(208 301)"/>
            <path id="사각형_335" d="M0 0h16v3H0z" class="cls-8" data-name="사각형 335" transform="translate(208 308)"/>
            <path id="사각형_336" d="M0 0h16v3H0z" class="cls-8" data-name="사각형 336" transform="translate(208 315)"/>
        </g>
        <g id="list_vote_icon_on" transform="rotate(-30 698.998 -6.5)">
            <g id="그룹_797" data-name="그룹 797" transform="translate(7.347 43.824)">
                <g id="합치기_136" class="cls-9" data-name="합치기 136">
                    <path d="M72.178 56.769H7.422l-.746-28.162-.044-1.663-1.664-.04-2.841-.068-.356-7.278L7.138 8.995l.15-.002.496-.857c1.229-2.123 2.914-3.76 5.01-4.868 1.877-.993 4.035-1.518 6.238-1.518h41.535c1.707 0 3.591.533 5.304 1.502 1.736.981 3.237 2.377 4.227 3.93l.526.824.183-.003 6.15 11.578-.387 9.04-3.004-.072-1.82-.044.028 1.82.404 26.444z" class="cls-15" transform="translate(.179)"/>
                    <path d="M70.401 55.019l-.376-24.667-.056-3.64 3.64.088 1.286.03.293-6.849L69.764 9.77l-.09.001-1.051-1.648C66.915 5.444 63.527 3.5 60.567 3.5H19.032c-1.92 0-3.794.455-5.42 1.315-1.8.952-3.252 2.364-4.313 4.197l-.993 1.715-.086.002-4.679 9.208.254 5.189 1.215.029 3.327.08.088 3.326.7 26.458h61.276m3.554 3.5H5.717l-.79-29.865-4.469-.107L0 19.18 6.055 7.262l.215-.003C9.216 2.169 14.284 0 19.032 0h41.535c4.133 0 8.64 2.53 11.007 6.241l.277-.004 6.875 12.943-.48 11.232-4.722-.113.431 28.22z" class="cls-17" transform="translate(.179)"/>
                </g>
                <g id="패스_899" class="cls-10" data-name="패스 899">
                    <path d="M67.855 64.215h-56.86c-5.104 0-9.256-4.493-9.256-10.016V7.225c.047.191.107.382.18.571.323.84 1.057 1.976 2.719 2.714 1.349.935 4.04 1.395 9.585 1.664l.04.002h.04c14.606.035 26.36.052 34.932.052 7.632 0 11.28-.014 12.996-.026a61.934 61.934 0 0 0 1.9-.026h-.001c3.09 0 6.552-.085 8.842-.715 1.706-.393 2.859-1.175 3.523-2.39.415-.76.574-1.605.615-2.407V54.2c0 5.523-4.152 10.016-9.255 10.016z" class="cls-15" transform="translate(.011 13.345)"/>
                    <path d="M3.49 11.9v42.3c0 4.557 3.366 8.265 7.504 8.265h56.86c4.139 0 7.506-3.708 7.506-8.266V12.46a8.69 8.69 0 0 1-1.958.699c-2.47.67-6.017.767-9.186.768-.092.004-.181.006-.267.008-.338.007-.912.013-1.706.018-2.465.017-6.963.026-13.008.026-8.572 0-20.326-.017-34.936-.052h-.08l-.082-.004c-5.861-.285-8.673-.778-10.362-1.882a8.193 8.193 0 0 1-.286-.14M73.341.75c.895.606 5.519 4.02 5.519 5.363v48.086c0 6.498-4.927 11.766-11.005 11.766h-56.86c-6.079 0-11.006-5.268-11.006-11.766V6.113c.052-.032 4.374-4.015 4.538-4.015.002 0 .003 0 .004.002.07.22-3.289 5.164.987 6.882.995.846 4.252 1.224 8.79 1.444 16.507.04 27.546.052 34.927.052 14.764 0 14.895-.052 14.895-.052 2.872 0 6.326-.078 8.414-.662 2.546-.574 2.964-2.044 2.794-4.409.039-.528-2.005-4.606-1.997-4.606z" class="cls-17" transform="translate(.011 13.345)"/>
                </g>
                <rect id="사각형_159" width="29.108" height="3.944" class="cls-11" data-name="사각형 159" rx="1" transform="translate(24.447 11.607)"/>
                <path id="패스_1139" d="M0-2.4s1.171 4.505 10.5 5.14c34.3.536-1.8-.1 48.846 0 8.777 0 11.64-4.758 11.64-4.758v40.273a9.1 9.1 0 0 1-9.1 9.1H9.1a9.1 9.1 0 0 1-9.1-9.1V-2.4z" class="cls-12" data-name="패스 1139" transform="translate(3.819 28.694)"/>
                <path id="패스_898" d="M120.791 1213.6l11.821 10.457 19.814-17.158" class="cls-13" data-name="패스 898" transform="translate(-96.344 -1165.311)"/>
            </g>
        </g>
        <g id="그룹_1151" data-name="그룹 1151" transform="rotate(28 113.805 216.71)">
            <g id="사각형_332-2" class="cls-4" data-name="사각형 332" transform="translate(193 283)">
                <rect width="40" height="48" class="cls-15" rx="8"/>
                <rect width="36.5" height="44.5" x="1.75" y="1.75" class="cls-16" rx="6.25"/>
            </g>
            <path id="사각형_337" d="M5.5 0h17A5.5 5.5 0 0 1 28 5.5v1.375A4.125 4.125 0 0 1 23.875 11H5.5A5.5 5.5 0 0 1 0 5.5 5.5 5.5 0 0 1 5.5 0z" class="cls-7" data-name="사각형 337" transform="translate(201 315)"/>
            <g id="그룹_1102" data-name="그룹 1102" transform="translate(33.209 185.954)">
                <g id="타원_1151" class="cls-14" data-name="타원 1151" transform="translate(171 113.5)">
                    <ellipse cx="9.25" cy="2.678" class="cls-15" rx="9.25" ry="2.678"/>
                    <ellipse cx="9.25" cy="2.678" class="cls-16" rx="8.5" ry="1.928"/>
                </g>
                <g id="패스_1109" class="cls-9" data-name="패스 1109">
                    <path d="M9.25 16.46c-1.238 0-3.665-.34-6.02-2.619C1.725 12.383.75 10.52.75 9.092c0-.261-.002-.497-.004-.71-.003-.325-.005-.658.005-.89.159.034.358.084.564.136 1.275.322 3.647.922 7.935.922 4.472 0 6.839-.608 8.11-.935.14-.036.284-.073.408-.102.001.17-.003.38-.007.585-.005.285-.011.608-.011.994 0 1.424-.974 3.287-2.481 4.746-1.012.98-3.138 2.622-6.02 2.622z" class="cls-15" transform="translate(171 108.942)"/>
                    <path d="M1.497 8.447c.001.195.003.41.003.645 0 1.234.884 2.886 2.252 4.21.93.9 2.88 2.408 5.498 2.408 2.617 0 4.567-1.51 5.497-2.41C16.115 11.973 17 10.322 17 9.091c0-.222.002-.427.005-.613-1.4.343-3.758.821-7.755.821-4.002 0-6.377-.513-7.753-.853M.477 6.699c.817 0 3 1.101 8.773 1.101 5.946 0 8.098-1.1 8.862-1.1.537 0 .388.542.388 2.392 0 3.27-4.142 8.118-9.25 8.118C4.14 17.21 0 12.37 0 9.092 0 7.242-.098 6.7.476 6.7z" class="cls-18" transform="translate(171 108.942)"/>
                </g>
                <g id="패스_1110" class="cls-9" data-name="패스 1110">
                    <path d="M5.158 3.632c-2.25 0-3.713-.295-4.408-.48V1.014c.924.235 2.436.515 4.408.515 2.177 0 3.825-.294 4.802-.531v2.142c-.756.186-2.371.493-4.802.493z" class="cls-15" transform="translate(174.895 123.772)"/>
                    <path d="M9.21 1.921a22.342 22.342 0 0 1-4.052.357c-1.477 0-2.716-.154-3.658-.333v.612c.76.155 1.976.325 3.658.325 1.858 0 3.215-.184 4.052-.347v-.614M0 0s1.932.778 5.158.778C8.638.778 10.71 0 10.71 0v3.705s-1.872.677-5.552.677C1.678 4.382 0 3.705 0 3.705V0z" class="cls-18" transform="translate(174.895 123.772)"/>
                </g>
            </g>
        </g>
    </g>
</svg>
