<svg xmlns="http://www.w3.org/2000/svg" width="155" height="106.003" viewBox="0 0 155 106.003">
    <defs>
        <style>
            .cls-1{fill:#763362}.cls-1,.cls-2,.cls-4,.cls-8{stroke-linecap:round}.cls-14,.cls-15,.cls-2,.cls-4,.cls-5,.cls-6,.cls-7{fill:#fff}.cls-12,.cls-3{fill:#c3cfdd}.cls-10,.cls-11,.cls-12,.cls-4,.cls-6,.cls-8{stroke:#111;stroke-width:3.8px}.cls-4,.cls-8{stroke-linejoin:round}.cls-5{opacity:0}.cls-8,.cls-9{fill:#fee000}.cls-10{fill:#5f5cce}.cls-11,.cls-16,.cls-19{fill:none}.cls-13{opacity:.5}.cls-14,.cls-16{stroke:#fff}.cls-14{stroke-width:.5px}.cls-16{stroke-width:1.5px}.cls-17,.cls-18{stroke:none}.cls-18{fill:#111}
        </style>
    </defs>
    <g id="theme_B" transform="translate(-188 -37.997)">
        <g id="그룹_936" data-name="그룹 936" transform="translate(275.165 82.582)">
            <g id="합치기_149" class="cls-1" data-name="합치기 149">
                <path d="M27.895 22.13a4.107 4.107 0 0 1-2.57-.907 4.1 4.1 0 0 1-5.138.002 4.108 4.108 0 0 1-2.57.905 4.12 4.12 0 0 1-2.569-.907 4.123 4.123 0 0 1-2.569.907c-.977 0-1.91-.352-2.639-.963a4.096 4.096 0 0 1-2.132.597 4.088 4.088 0 0 1-3.154-1.477 5.566 5.566 0 0 1-.773-.36A4.107 4.107 0 0 1-.273 14.69 4.123 4.123 0 0 1-1.9 11.423c0-1.575.886-2.971 2.24-3.658L5.07-.909l.58-1.065 1.21.078L33.862-.151a4.106 4.106 0 0 1 5.372 4.783 4.1 4.1 0 0 1-.426 2.936c.342.604.53 1.296.53 2.018 0 .992-.355 1.927-.974 2.656a4.104 4.104 0 0 1-2.361 5.2 4.109 4.109 0 0 1-5.165 3.44 4.112 4.112 0 0 1-2.943 1.248z" class="cls-17" transform="translate(4.337 11.305)"/>
                <path d="M27.895 20.23a2.202 2.202 0 0 0 2.119-1.6c.136-.028.276-.058.418-.091a2.202 2.202 0 0 0 3.678-1.949c.23-.24.448-.5.65-.779a2.202 2.202 0 0 0 1.43-3.602c.033-.22.058-.446.076-.675a2.202 2.202 0 0 0-.006-3.897V7.5a2.203 2.203 0 0 0 .978-2.868 2.202 2.202 0 0 0-3.045-2.858L6.738 0 1.677 9.283a2.202 2.202 0 0 0-.084 4.256c.072.303.166.647.287 1.005a2.202 2.202 0 0 0 2.358 3.41c.482.372.947.575 1.513.719a2.203 2.203 0 0 0 3.635.415c.375.016.771.03 1.185.04a2.202 2.202 0 0 0 3.792.042c.45-.001.908-.003 1.367-.007a2.202 2.202 0 0 0 3.806-.053l1.287-.028a2.203 2.203 0 0 0 3.923-.107l1.143-.037a2.203 2.203 0 0 0 2.006 1.292m0 3.8a5.989 5.989 0 0 1-2.566-.578 5.997 5.997 0 0 1-5.144 0 5.994 5.994 0 0 1-5.136.001 5.998 5.998 0 0 1-5.372-.12 6.002 6.002 0 0 1-1.97.331 5.982 5.982 0 0 1-4.275-1.786 7.474 7.474 0 0 1-.13-.06 6.01 6.01 0 0 1-5.617-6.444A6.033 6.033 0 0 1-3.8 11.422a5.988 5.988 0 0 1 2.727-5.034l4.475-8.207 1.16-2.13 2.42.157L33.635-2.07a6.008 6.008 0 0 1 7.534 6.702 6.043 6.043 0 0 1-.278 2.936c.227.637.347 1.318.347 2.018a5.998 5.998 0 0 1-.818 3.031 6.001 6.001 0 0 1-2.76 6.113 6.014 6.014 0 0 1-6.265 4.176 6.035 6.035 0 0 1-3.499 1.124z" class="cls-18" transform="translate(4.337 11.305)"/>
            </g>
            <g id="합치기_150" class="cls-2" data-name="합치기 150">
                <path d="M27.895 22.13a4.107 4.107 0 0 1-2.57-.907 4.1 4.1 0 0 1-5.138.002 4.108 4.108 0 0 1-2.57.905 4.12 4.12 0 0 1-2.569-.907 4.123 4.123 0 0 1-2.569.907c-.977 0-1.91-.352-2.639-.963a4.096 4.096 0 0 1-2.132.597 4.088 4.088 0 0 1-3.154-1.477 5.566 5.566 0 0 1-.773-.36A4.107 4.107 0 0 1-.273 14.69 4.123 4.123 0 0 1-1.9 11.423c0-1.575.886-2.971 2.24-3.658L5.07-.909l.58-1.065 1.21.078L33.862-.151a4.106 4.106 0 0 1 5.372 4.783 4.1 4.1 0 0 1-.426 2.936c.342.604.53 1.296.53 2.018 0 .992-.355 1.927-.974 2.656a4.104 4.104 0 0 1-2.361 5.2 4.109 4.109 0 0 1-5.165 3.44 4.112 4.112 0 0 1-2.943 1.248z" class="cls-17" transform="translate(4.337 11.305)"/>
                <path d="M27.895 20.23a2.202 2.202 0 0 0 2.119-1.6c.136-.028.276-.058.418-.091a2.202 2.202 0 0 0 3.678-1.949c.23-.24.448-.5.65-.779a2.202 2.202 0 0 0 1.43-3.602c.033-.22.058-.446.076-.675a2.202 2.202 0 0 0-.006-3.897V7.5a2.203 2.203 0 0 0 .978-2.868 2.202 2.202 0 0 0-3.045-2.858L6.738 0 1.677 9.283a2.202 2.202 0 0 0-.084 4.256c.072.303.166.647.287 1.005a2.202 2.202 0 0 0 2.358 3.41c.482.372.947.575 1.513.719a2.203 2.203 0 0 0 3.635.415c.375.016.771.03 1.185.04a2.202 2.202 0 0 0 3.792.042c.45-.001.908-.003 1.367-.007a2.202 2.202 0 0 0 3.806-.053l1.287-.028a2.203 2.203 0 0 0 3.923-.107l1.143-.037a2.203 2.203 0 0 0 2.006 1.292m0 3.8a5.989 5.989 0 0 1-2.566-.578 5.997 5.997 0 0 1-5.144 0 5.994 5.994 0 0 1-5.136.001 5.998 5.998 0 0 1-5.372-.12 6.002 6.002 0 0 1-1.97.331 5.982 5.982 0 0 1-4.275-1.786 7.474 7.474 0 0 1-.13-.06 6.01 6.01 0 0 1-5.617-6.444A6.033 6.033 0 0 1-3.8 11.422a5.988 5.988 0 0 1 2.727-5.034l4.475-8.207 1.16-2.13 2.42.157L33.635-2.07a6.008 6.008 0 0 1 7.534 6.702 6.043 6.043 0 0 1-.278 2.936c.227.637.347 1.318.347 2.018a5.998 5.998 0 0 1-.818 3.031 6.001 6.001 0 0 1-2.76 6.113 6.014 6.014 0 0 1-6.265 4.176 6.035 6.035 0 0 1-3.499 1.124z" class="cls-18" transform="translate(4.337 11.305)"/>
            </g>
            <path id="합치기_155" d="M18.973 13.321l-.838.026a1.645 1.645 0 0 1-2.875.075l-.942.019a1.649 1.649 0 0 1-2.79.038h-1a1.649 1.649 0 0 1-2.779-.029c-.3-.008-.594-.017-.869-.029a1.652 1.652 0 0 1-2.664-.292 2.927 2.927 0 0 1-1.109-.505 1.678 1.678 0 0 1-.416.052 1.582 1.582 0 0 1-1.614-1.55 1.5 1.5 0 0 1 .3-.9 7.358 7.358 0 0 1-.21-.708 1.534 1.534 0 0 1 .062-2.988L4.938 0l20.121 1.248a1.66 1.66 0 0 1 .764-.184 1.582 1.582 0 0 1 1.614 1.549 1.492 1.492 0 0 1-.146.645 1.5 1.5 0 0 1 .1.288 3.529 3.529 0 0 1-.612 6.62 1.608 1.608 0 0 1-1.307.955 5 5 0 0 1-.472.549 1.5 1.5 0 0 1 .019.237 1.582 1.582 0 0 1-1.619 1.549 1.645 1.645 0 0 1-1.1-.415q-.156.035-.306.064a1.639 1.639 0 0 1-3.024.217z" class="cls-3" data-name="합치기 155" transform="translate(5.337 18.305)"/>
            <g id="그룹_926" data-name="그룹 926">
                <path id="패스_1029" d="M.025 19.5a3.42 3.42 0 0 0 1.642 2.9c1.962 1.436 4.643-.191 6.112-.829s5.014-3.636 16.589-2.734c13.483.769 20.544 13.967 24.037 7.877.7-1.238.847-7.06-1.387-11.671C45.961 12.863 38.141-.158 22.378 0 8.41-.233-.54 9.033.025 19.5z" class="cls-4" data-name="패스 1029"/>
                <path id="패스_1156" d="M.018 14.513A2.578 2.578 0 0 0 1.2 16.675c1.411 1.069 2.9-1.687 3.96-2.162s3.509-1.648 11.831-.976c9.016.532 16.817 6.064 16.817 6.064s1.606-4.97 0-8.4C33.047 9.575 27.424-.117 16.09 0 6.047-.173-.388 6.724.018 14.513z" class="cls-3" data-name="패스 1156" transform="translate(6.737 3.584)"/>
            </g>
        </g>
        <g id="그룹_1132" data-name="그룹 1132" transform="translate(14 5)">
            <path id="bg" d="M0 0h155v106H0z" class="cls-5" transform="translate(174 33)"/>
            <g id="그룹_932" data-name="그룹 932" transform="translate(203.783 33.997)">
                <g id="그룹_899" data-name="그룹 899">
                    <g id="사각형_210" class="cls-6" data-name="사각형 210" transform="translate(17.751 45.907)">
                        <rect width="53.894" height="34.096" class="cls-17" rx="17.048"/>
                        <rect width="50.094" height="30.296" x="1.9" y="1.9" class="cls-19" rx="15.148"/>
                    </g>
                    <rect id="사각형_331" width="35.894" height="26.096" class="cls-3" data-name="사각형 331" rx="13.048" transform="translate(31.751 49.907)"/>
                    <g id="패스_1075" class="cls-7" data-name="패스 1075">
                        <path d="M0 2.424L45.318 0l.19 3.705L.19 6.129z" class="cls-17" transform="rotate(62 14.079 21.546)"/>
                        <path d="M45.318 0l.19 3.705L.19 6.13 0 2.424 45.318 0z" class="cls-18" transform="rotate(62 14.079 21.546)"/>
                    </g>
                    <path id="패스_1031" d="M0 10S9.23 8.511 9.976.026c.079-.058-7.693 0-7.693 0l2.663 7.562" class="cls-8" data-name="패스 1031" transform="rotate(-9 230.21 -484.482)"/>
                    <path id="패스_1029-2" d="M67.124 4.608s-5.658-2-9.353 1.148c-.33.025-6.069-4.658-17.638-3.266a19.9 19.9 0 0 0-19.211 0C20.735 2.291 4.694 5.382 0 21.8c.3.391-.813 3.8 2 5.684s6.646-.252 8.75-1.089 15.733-4.854 26.934-4.6a46.41 46.41 0 0 0 15.67-2.428c5.856-1.985 11.043-5.253 13.774-9.622 2.096-3.401-.004-5.137-.004-5.137z" class="cls-8" data-name="패스 1029" transform="translate(12.933 34.304)"/>
                    <path id="패스_1157" d="M56.508 4.364s-5.418-2.383-8.458 0c-.271.019-5.509-3.533-15.028-2.481a17.625 17.625 0 0 0-15.807 0A17.53 17.53 0 0 0 1.286 14.644c.244.3-1.3 4.159 1.007 5.585s5.988-.771 7.719-1.4 12.2-4.377 21.413-4.182c4.184.089 12.607-.622 12.607-.622s9.468-3.338 11.713-6.64c1.728-2.577.763-3.021.763-3.021z" class="cls-9" data-name="패스 1157" transform="translate(13.962 39.807)"/>
                    <path id="패스_1032" d="M2.374 0A18.139 18.139 0 0 0 .032 9.573" class="cls-10" data-name="패스 1032" transform="translate(50.551 36.897)"/>
                    <path id="패스_1033" d="M3.21 0A19.713 19.713 0 0 0 0 11.586" class="cls-10" data-name="패스 1033" transform="rotate(-8 279.884 -203.489)"/>
                    <path id="패스_1059" d="M0 0a4.385 4.385 0 0 0 3.813 2.018A3.39 3.39 0 0 0 7 0" class="cls-11" data-name="패스 1059" transform="rotate(-41 119.816 -38.41)"/>
                    <g id="패스_1076" class="cls-7" data-name="패스 1076">
                        <path d="M0 0l48.961.862v3.783L0 3.783z" class="cls-17" transform="rotate(36 -17.776 10.417)"/>
                        <path d="M0 0l48.96.862v3.783L0 3.783V0z" class="cls-18" transform="rotate(36 -17.776 10.417)"/>
                    </g>
                </g>
            </g>
            <g id="사각형_324" class="cls-6" data-name="사각형 324" transform="translate(214 110)">
                <rect width="101" height="16" class="cls-17" rx="5"/>
                <rect width="97.2" height="12.2" x="1.9" y="1.9" class="cls-19" rx="3.1"/>
            </g>
            <path id="사각형_327" d="M3 0h86a4 4 0 0 1 4 4v2H1a1 1 0 0 1-1-1V3a3 3 0 0 1 3-3z" class="cls-3" data-name="사각형 327" transform="translate(218 116)"/>
            <g id="사각형_325" class="cls-12" data-name="사각형 325">
                <path d="M0 0h17v10H0z" class="cls-17" transform="translate(222.5 122.2)"/>
                <path d="M1.9 1.9h13.2v6.2H1.9z" class="cls-19" transform="translate(222.5 122.2)"/>
            </g>
            <g id="사각형_326" class="cls-12" data-name="사각형 326">
                <path d="M0 0h17v10H0z" class="cls-17" transform="translate(289.727 122.2)"/>
                <path d="M1.9 1.9h13.2v6.2H1.9z" class="cls-19" transform="translate(289.727 122.2)"/>
            </g>
        </g>
        <g id="그룹_1131" class="cls-13" data-name="그룹 1131" transform="translate(190.831 51.028)">
            <g id="그룹_1110" data-name="그룹 1110" transform="translate(22.554 33.965)">
                <g id="사각형_316" class="cls-14" data-name="사각형 316">
                    <path d="M0 0h6v1H0z" class="cls-17" transform="translate(-.384 2.007)"/>
                    <path d="M-.25-.25h6.5v1.5h-6.5z" class="cls-19" transform="translate(-.384 2.007)"/>
                </g>
                <g id="사각형_317" class="cls-14" data-name="사각형 317">
                    <path d="M0 0h5.623v.937H0z" class="cls-17" transform="rotate(90 1.64 1.64)"/>
                    <path d="M-.25-.25h6.123v1.437H-.25z" class="cls-19" transform="rotate(90 1.64 1.64)"/>
                </g>
            </g>
            <g id="그룹_1112" data-name="그룹 1112" transform="translate(122.831 .525)">
                <g id="사각형_316-2" class="cls-14" data-name="사각형 316">
                    <path d="M0 0h5v1H0z" class="cls-17" transform="translate(.339 2.447)"/>
                    <path d="M-.25-.25h5.5v1.5h-5.5z" class="cls-19" transform="translate(.339 2.447)"/>
                </g>
                <g id="사각형_317-2" class="cls-14" data-name="사각형 317">
                    <path d="M0 0h5.623v.937H0z" class="cls-17" transform="rotate(90 1.64 1.64)"/>
                    <path d="M-.25-.25h6.123v1.437H-.25z" class="cls-19" transform="rotate(90 1.64 1.64)"/>
                </g>
            </g>
            <g id="그룹_1111" data-name="그룹 1111" transform="translate(73.459 -5.035)">
                <path id="사각형_316-3" d="M0 0h6v1H0z" class="cls-15" data-name="사각형 316" transform="translate(-.29 2.007)"/>
                <path id="사각형_317-3" d="M0 0h5.623v.937H0z" class="cls-15" data-name="사각형 317" transform="rotate(90 1.64 1.64)"/>
            </g>
            <circle id="타원_1161" cx="1.5" cy="1.5" r="1.5" class="cls-15" data-name="타원 1161" transform="translate(-2.831 13.972)"/>
            <g id="타원_1165" class="cls-16" data-name="타원 1165" transform="translate(24.169 21.972)">
                <circle cx="3" cy="3" r="3" class="cls-17"/>
                <circle cx="3" cy="3" r="2.25" class="cls-19"/>
            </g>
            <g id="타원_1173" class="cls-16" data-name="타원 1173" transform="translate(92.169 5.972)">
                <circle cx="3.5" cy="3.5" r="3.5" class="cls-17"/>
                <circle cx="3.5" cy="3.5" r="2.75" class="cls-19"/>
            </g>
        </g>
    </g>
</svg>
