<svg xmlns="http://www.w3.org/2000/svg" width="26" height="26" viewBox="0 0 26 26">
    <defs>
        <style>
            .cls-1,.cls-2,.cls-3{fill:#fff}.cls-1{opacity:0}.cls-2{stroke:#959da6;stroke-width:1.2px}.cls-3{stroke-linecap:round;stroke-linejoin:round}.cls-4{fill:none;stroke:#5f5cce}.cls-5,.cls-6{stroke:none}.cls-6{fill:#959da6}
        </style>
    </defs>
    <g id="floating_btn_list_icon" data-name="floating btn_list_icon" transform="translate(.006 1.009)">
        <path id="bg" d="M0 0h26v26H0z" class="cls-1" transform="translate(-.006 -1.009)"/>
        <path id="합치기_11" d="M3.244 9.1a2 2 0 0 1-2-2V5.273L.111 5.26 0 4.531l1.261-2.795A2 2 0 0 1 3.244 0h14.419a2 2 0 0 1 1.973 1.664l1.344 2.757V5.5l-1.316-.015V7.1a2 2 0 0 1-2 2z" class="cls-2" data-name="합치기 11" transform="translate(2.606 1.08)"/>
        <path id="패스_110" d="M783.764 1811.218v-11.748h17.489v11.748" class="cls-2" data-name="패스 110" transform="translate(-779.143 -1789.945)"/>
        <g id="합치기_10" class="cls-3" data-name="합치기 10">
            <path d="M19.105 6.464c-.872 0-1.68-.412-2.16-1.103l-.493-.708-.492.708a2.621 2.621 0 0 1-2.161 1.103c-.873 0-1.68-.412-2.161-1.103l-.493-.708-.492.708a2.621 2.621 0 0 1-2.161 1.103c-.873 0-1.681-.412-2.162-1.103l-.492-.708-.493.708a2.621 2.621 0 0 1-2.16 1.103C1.758 6.464.6 5.368.6 4.02c0-.036 0-.073.003-.11l.029-.627H.6V.6h20.97l.098 2.683h-.006l.026.628.002.11c0 1.347-1.16 2.443-2.585 2.443z" class="cls-5" transform="translate(1.989 5.505)"/>
            <path d="M19.105 5.864c1.095 0 1.985-.827 1.985-1.844 0-.027 0-.054-.002-.081a1.187 1.187 0 0 1 0-.1L20.99 1.2H1.2v2.594a1.2 1.2 0 0 1 .002.145 1.751 1.751 0 0 0-.002.081c0 1.017.89 1.844 1.984 1.844.676 0 1.3-.316 1.668-.846a1.2 1.2 0 0 1 1.97 0c.37.53.993.846 1.67.846.676 0 1.3-.316 1.668-.846a1.2 1.2 0 0 1 1.97 0c.369.53.992.846 1.669.846.676 0 1.3-.316 1.668-.846a1.2 1.2 0 0 1 1.97 0c.369.53.992.846 1.668.846m0 1.2a3.222 3.222 0 0 1-2.653-1.36 3.221 3.221 0 0 1-2.653 1.36 3.221 3.221 0 0 1-2.654-1.36 3.222 3.222 0 0 1-2.653 1.36 3.223 3.223 0 0 1-2.654-1.36 3.221 3.221 0 0 1-2.654 1.36C1.426 7.064 0 5.701 0 4.02c0-.046.001-.092.003-.137H0V0h22.148l.142 3.883h-.003c.002.045.003.091.003.137 0 1.681-1.426 3.044-3.185 3.044z" class="cls-6" transform="translate(1.989 5.505)"/>
        </g>
        <path id="패스_1187" d="M9.377 14.239l3.369 2.961 4.883-4.408" class="cls-4" data-name="패스 1187" transform="translate(.086 1.7)"/>
    </g>
</svg>
