<svg xmlns="http://www.w3.org/2000/svg" width="19" height="21" viewBox="0 0 19 21">
    <defs>
        <style>
            .cls-1{fill:#fff;opacity:0}.cls-2{fill:none}.cls-3,.cls-4{stroke:none}.cls-4{fill:#c2c7cc}
        </style>
    </defs>
    <g id="info_icon_location" transform="translate(2 2)">
        <path id="bg" d="M0 0h19v21H0z" class="cls-1" transform="translate(-2 -2)"/>
        <g id="패스_932" class="cls-2" data-name="패스 932">
            <path d="M38.7 24.3a2.5 2.5 0 1 0 2.5 2.5 2.506 2.506 0 0 0-2.5-2.5z" class="cls-3" transform="translate(-31.776 -20.054)"/>
            <path d="M38.701 25.3c-.828 0-1.501.673-1.501 1.501 0 .828.673 1.501 1.501 1.501.828 0 1.501-.673 1.501-1.501 0-.828-.673-1.501-1.501-1.501m0-1a2.495 2.495 0 0 1 2.501 2.501 2.506 2.506 0 0 1-2.501 2.501 2.506 2.506 0 0 1-2.501-2.501 2.506 2.506 0 0 1 2.501-2.501z" class="cls-4" transform="translate(-31.776 -20.054)"/>
        </g>
        <g id="패스_933" class="cls-2" data-name="패스 933">
            <path d="M23.51 5.4a6.939 6.939 0 0 0-7.01 6.848 6.84 6.84 0 0 0 1.382 4.1l.277.372 4.531 5.692a1 1 0 0 0 .813.406 1 1 0 0 0 .813-.406l4.649-5.829.154-.255a6.667 6.667 0 0 0 1.382-4.1A6.9 6.9 0 0 0 23.51 5.4z" class="cls-3" transform="translate(-16.5 -5.4)"/>
            <path d="M23.51 6.4c-3.314 0-6.01 2.623-6.01 5.848 0 1.256.41 2.468 1.184 3.507l.267.358 4.521 5.68.005.006.005.007a.13.13 0 0 0 .014.016.09.09 0 0 0 .012 0 .13.13 0 0 0 .015-.016l.005-.007.005-.007 4.609-5.778.12-.2.028-.046.033-.043a5.643 5.643 0 0 0 1.177-3.498v-.005c.008-1.511-.587-2.946-1.675-4.04A6.038 6.038 0 0 0 23.51 6.4m0-1c3.86 0 7.01 3.068 6.99 6.827a6.667 6.667 0 0 1-1.382 4.105l-.154.255-4.649 5.829a1.001 1.001 0 0 1-.813.406c-.325 0-.61-.142-.812-.406l-4.531-5.692-.277-.372a6.84 6.84 0 0 1-1.382-4.104c0-3.78 3.15-6.848 7.01-6.848z" class="cls-4" transform="translate(-16.5 -5.4)"/>
        </g>
    </g>
</svg>
