<svg xmlns="http://www.w3.org/2000/svg" width="19" height="21" viewBox="0 0 19 21">
    <defs>
        <style>
            .cls-1{fill:#fff;opacity:0}.cls-2{fill:#c2c7cc;stroke:#fff;stroke-width:.1px}
        </style>
    </defs>
    <g id="info_icon_phone" transform="translate(-16 -429)">
        <path id="bg" d="M0 0h19v21H0z" class="cls-1" transform="translate(16 429)"/>
        <path id="패스_1118" d="M22.118 11.953c.719-.237 1.921-.633 1.706-1.975a13.269 13.269 0 0 0-1.49-4.119 2.313 2.313 0 0 0-2.478-.8 7.242 7.242 0 0 0-3.568 1.773c-1.611 1.61-.879 4.754 2.446 10.513 2.979 5.16 5.181 7.467 7.188 7.467a2.662 2.662 0 0 0 .693-.093 7.243 7.243 0 0 0 3.32-2.2 2.315 2.315 0 0 0 .545-2.546 13.273 13.273 0 0 0-2.824-3.351c-1.053-.856-2-.013-2.562.491-.688.614-.783.591-.954.435a11.44 11.44 0 0 1-1.662-2.362 11.456 11.456 0 0 1-1.214-2.619c-.049-.232-.021-.325.854-.614zm-1.928.847a13.048 13.048 0 0 0 1.336 2.934 13.054 13.054 0 0 0 1.874 2.622c.966.878 1.881.061 2.428-.427.714-.638.875-.669 1.135-.458A12.354 12.354 0 0 1 29.5 20.46c.221.442-.1.98-.409 1.353a6.216 6.216 0 0 1-2.756 1.842c-1.564.42-3.736-1.825-6.643-6.861-2.948-5.106-3.781-8.025-2.62-9.184a6.216 6.216 0 0 1 2.968-1.467 2.954 2.954 0 0 1 .484-.044 1.013 1.013 0 0 1 .892.366 12.35 12.35 0 0 1 1.322 3.688c.053.332-.055.455-.964.755-.697.229-1.862.613-1.584 1.892z" class="cls-2" data-name="패스 1118" transform="translate(.532 424.19)"/>
    </g>
</svg>
