<svg xmlns="http://www.w3.org/2000/svg" width="11" height="11" viewBox="0 0 11 11">
    <defs>
        <style>
            .cls-1{fill:#dfe2e6}
        </style>
    </defs>
    <path id="list_restaurant_icon_star_off" d="M239.9 98.949l1.046 3.134a.443.443 0 0 0 .332.253l3.35.209a.468.468 0 0 1 .245.787l-2.712 1.834a.476.476 0 0 0-.127.409l1.033 3.576a.445.445 0 0 1-.639.487l-2.742-2.268a.421.421 0 0 0-.41 0l-2.692 2.268a.445.445 0 0 1-.639-.487l.767-3.576a.476.476 0 0 0-.127-.409l-2.445-1.834a.467.467 0 0 1 .244-.787l3.181-.209a.443.443 0 0 0 .332-.253l1.215-3.134a.432.432 0 0 1 .788 0z" class="cls-1" transform="translate(-234.006 -98.691)"/>
</svg>
