<svg xmlns="http://www.w3.org/2000/svg" width="405.073" height="1063.786" viewBox="0 0 405.073 1063.786">
    <defs>
        <style>
            .cls-1,.cls-12,.cls-14,.cls-18,.cls-2{fill:#fff}.cls-2{opacity:0}.cls-11,.cls-3{fill:#5f5cce}.cls-4{clip-path:url(#clip-path)}.cls-15,.cls-16,.cls-5,.cls-7,.cls-8{fill:#5e5bce}.cls-5,.cls-6{opacity:.04}.cls-10,.cls-11,.cls-12,.cls-13,.cls-14,.cls-7,.cls-8,.cls-9{stroke:#fff}.cls-13,.cls-7{stroke-linecap:round}.cls-13,.cls-7,.cls-9{stroke-linejoin:round}.cls-10,.cls-11,.cls-13,.cls-7,.cls-8,.cls-9{stroke-width:5px}.cls-10,.cls-13,.cls-19,.cls-9{fill:none}.cls-12{stroke-width:2px}.cls-14{stroke-width:1.5px}.cls-17,.cls-18{stroke:none}.cls-20{filter:url(#bg)}
        </style>
        <filter id="bg" width="405.073" height="1063.786" x="0" y="0" filterUnits="userSpaceOnUse">
            <feOffset dy="-20"/>
            <feGaussianBlur result="blur" stdDeviation="7.5"/>
            <feFlood flood-color="#5e5bce" flood-opacity=".059"/>
            <feComposite in2="blur" operator="in"/>
            <feComposite in="SourceGraphic"/>
        </filter>
        <clipPath id="clip-path">
            <path id="mask" d="M0 0h360.289l1.684 1018H1z" class="cls-1" transform="translate(-2 1)"/>
        </clipPath>
    </defs>
    <g id="main_bg" transform="translate(23.554 -126.5)">
        <path id="bg-2" d="M0 0h357.289v505H0z" class="cls-2" data-name="bg" transform="translate(0 135)"/>
        <g class="cls-20" transform="translate(-23.55 126.5)">
            <path id="bg-3" d="M181.772 0c65.833 0 127.4 8.569 179.2 23.351.149.149.032 995.436.032 995.436s-112.593-.029-183.548-.029H.973s.076-995.221.1-995.046C52.81 8.847 115.572 0 181.772 0z" class="cls-3" data-name="bg" transform="translate(21.53 42.5)"/>
        </g>
        <g id="마스크_그룹_99" class="cls-4" data-name="마스크 그룹 99" transform="translate(-1 169)">
            <g id="bg_illust" transform="translate(-49.454 19.766)">
                <path id="패스_63" d="M236.47 3309.637v-3.6l6.057 1.269-1.322 1.411-.793 1.815z" class="cls-5" data-name="패스 63" transform="translate(-103.552 -2973.531)"/>
                <path id="패스_1046" d="M236.47 3309.637v-3.6l6.057 1.269-1.322 1.411-.793 1.815z" class="cls-5" data-name="패스 1046" transform="translate(-103.552 -2973.531)"/>
                <path id="패스_64" d="M0 2.569h1.935A5.675 5.675 0 0 1 3.837.187C4.931-.356 0 .435 0 .435z" class="cls-5" data-name="패스 64" transform="rotate(-14.98 1327.745 -415.439)"/>
                <path id="패스_1045" d="M0 2.569h1.935A5.675 5.675 0 0 1 3.837.187C4.931-.356 0 .435 0 .435z" class="cls-5" data-name="패스 1045" transform="rotate(-14.98 1327.745 -415.439)"/>
                <g id="그룹_1125" data-name="그룹 1125">
                    <g id="그룹_897" class="cls-6" data-name="그룹 897" transform="rotate(-14.98 1258.266 -199.089)">
                        <path id="합치기_139" d="M33.626 48.1c0-.157 0-.312.013-.464-.011-.282 0-.449 0-.449v-3.906c-7.241-.056-12.626-.275-16.364-.5-4.489-.266-6.6-.534-6.7-.521a4.8 4.8 0 0 0-2.238-.008 7.162 7.162 0 0 1-1.532.117 7.07 7.07 0 0 1-.414.013 6.468 6.468 0 0 1-.367-12.923 93.232 93.232 0 0 1 15.784-12.943A76.3 76.3 0 0 1 39.457 7.96c-.008-.121.3-.247.809-.377a7.478 7.478 0 0 1-.013-.454 9.41 9.41 0 0 1 8.6-7.171 4.576 4.576 0 0 1 1.775.506c2.719.844 8.117 3.2 16.213 11.991C73.014 19.6 77.322 27.3 77.861 31.088a.211.211 0 0 1 .026.079q.012.178.02.355c.007.1.01.2.011.3a9.489 9.489 0 0 1-3.056 7.695c-2.59 2.353-6.553 2.966-9.541 2.906q-.378-.008-.718-.044c-2.207.167-9.183.675-19.644.857v.049c0 .264.068.78.146 1.448a6.276 6.276 0 0 1-5.1 9.868 6.379 6.379 0 0 1-6.379-6.501z" class="cls-7" data-name="합치기 139"/>
                        <path id="패스_60" d="M0 0a54.169 54.169 0 0 1 23.235 22.124" class="cls-8" data-name="패스 60" transform="translate(40.415 7.913)"/>
                        <ellipse id="타원_1105" cx="5.642" cy="4.138" class="cls-1" data-name="타원 1105" rx="5.642" ry="4.138" transform="translate(38.387 23.004)"/>
                        <ellipse id="타원_1106" cx="4.075" cy="2.988" class="cls-1" data-name="타원 1106" rx="4.075" ry="2.988" transform="translate(19.577 24.617)"/>
                        <ellipse id="타원_1107" cx="3.134" cy="2.299" class="cls-1" data-name="타원 1107" rx="3.134" ry="2.299" transform="translate(29.538 18.279)"/>
                        <path id="선_2" d="M.029 11.396L0 0" class="cls-9" data-name="선 2" transform="translate(33.635 36.563)"/>
                    </g>
                    <g id="그룹_898" class="cls-6" data-name="그룹 898" transform="translate(280.045 309.234)">
                        <path id="패스_1027" d="M-981.4 1253.311s7.853 5.065 12-4.889 2.176-27.459-14.432-32.954" class="cls-10" data-name="패스 1027" transform="translate(1034.414 -1202.477)"/>
                        <path id="합치기_145" d="M8.391 29.488a9.7 9.7 0 0 1 .357-2.616L4.2 17.461A9.554 9.554 0 0 1 0 9.512 9.42 9.42 0 0 1 9.323 0a9.385 9.385 0 0 1 9.217 8.08 9.158 9.158 0 0 1 2.9-.47 9.42 9.42 0 0 1 9.323 9.512 9.544 9.544 0 0 1-4.654 8.235 9.629 9.629 0 0 1 .924 4.131A9.419 9.419 0 0 1 17.714 39a9.42 9.42 0 0 1-9.323-9.512z" class="cls-11" data-name="합치기 145" transform="translate(43.336)"/>
                        <path id="패스_1026" d="M-1032.544 1239.854c4.185 1.309 49.379 13.521 49.379 13.521s-6.313-1.773-1.913-13.521c2.335-11.711.982-32.265-19.343-37.041s-30.8 12.217-32.825 25.682c-.683 9.005.517 10.05 4.702 11.359z" class="cls-8" data-name="패스 1026" transform="translate(1037.426 -1201.816)"/>
                        <path id="패스_1131" d="M1.53 0a1.542 1.542 0 0 1 .006 3.084A1.542 1.542 0 0 1 1.53 0z" class="cls-12" data-name="패스 1131" transform="rotate(14.98 -35.581 73.721)"/>
                        <path id="패스_1132" d="M1.53 0a1.542 1.542 0 0 1 .006 3.084A1.542 1.542 0 0 1 1.53 0z" class="cls-12" data-name="패스 1132" transform="rotate(14.98 -42.263 123.587)"/>
                        <path id="패스_1133" d="M1.53 0a1.542 1.542 0 0 1 .006 3.084A1.542 1.542 0 0 1 1.53 0z" class="cls-12" data-name="패스 1133" transform="rotate(14.98 -66.798 91.448)"/>
                        <path id="패스_1134" d="M1.53 0a1.542 1.542 0 0 1 .006 3.084A1.542 1.542 0 0 1 1.53 0z" class="cls-12" data-name="패스 1134" transform="rotate(14.98 -74.544 149.268)"/>
                    </g>
                    <g id="그룹_1121" data-name="그룹 1121">
                        <g id="그룹_899" class="cls-6" data-name="그룹 899" transform="rotate(14.98 -644.435 837.918)">
                            <path id="패스_1029" d="M77.627 5.476S71.078 3.13 66.811 6.792c-.382.029-7.03-5.436-20.409-3.841A22.907 22.907 0 0 0 24.18 2.91C23.963 2.677 5.416 6.241.022 25.35c.344.455-.932 4.419 2.322 6.622s7.687-.278 10.119-1.249 18.188-5.617 31.145-5.291 28.264-4.659 34.031-13.965c2.42-3.967-.012-5.991-.012-5.991z" class="cls-13" data-name="패스 1029" transform="translate(.005 5.333)"/>
                            <path id="패스_1030" d="M.01 11.58l.01 5.168s.486 4.34 2.622 6.934S5.98 26.7 8.563 27.126c6.728 1.1 33.595.064 33.595.064a17.776 17.776 0 0 0 7.713-1.87c3.353-1.889 5.793-6.09 5.709-11.263-.156-9.544-.027-14.009-.027-14.009" class="cls-13" data-name="패스 1030" transform="translate(8.683 27.522)"/>
                            <path id="패스_1031" d="M.01 11.634S10.683 9.919 11.528.042c.092-.067-8.9-.017-8.9-.017l3.1 8.811" class="cls-13" data-name="패스 1031" transform="translate(76.799 .067)"/>
                            <path id="패스_1032" d="M2.735 0A21.162 21.162 0 0 0 .048 11.143" class="cls-10" data-name="패스 1032" transform="translate(43.508 8.4)"/>
                            <path id="패스_1033" d="M3.705 0S-.109 5 .008 13.493" class="cls-10" data-name="패스 1033" transform="rotate(-8 70.84 -145.506)"/>
                        </g>
                        <g id="그룹_892" class="cls-6" data-name="그룹 892" transform="rotate(165.02 37.023 129.588)">
                            <path id="패스_1017" d="M51.173 37.15C46.147 40.826 41.8 44 40.585 48.276c-1.583 5.539-4.9 6.373-6.735 6.376s-5.15-.817-6.712-6.352c-1.2-4.27-5.534-7.429-10.547-11.086C8.8 31.531-.035 25.085-.01 12.014 0 4.193 4.12.05 11.891.035l44.122-.084c7.771-.015 11.871 4.113 11.856 11.934-.024 13.072-8.881 19.551-16.696 25.265zm4.833-33.782l-44.122.083c-5.868.011-8.49 2.65-8.5 8.557-.022 11.329 7.716 16.978 15.205 22.438C23.88 38.308 28.88 41.955 30.4 47.358c.726 2.576 1.889 3.881 3.451 3.878s2.73-1.313 3.466-3.891c1.545-5.409 6.558-9.075 11.863-12.957 7.508-5.489 15.269-11.167 15.29-22.5.016-5.902-2.595-8.531-8.464-8.52z" class="cls-14" data-name="패스 1017"/>
                            <path id="패스_1018" d="M5.833 10.06a1.689 1.689 0 0 1-2.275-.76L.177 2.474A1.718 1.718 0 0 1 .94.181 1.687 1.687 0 0 1 3.216.94L6.6 7.766a1.718 1.718 0 0 1-.767 2.294z" class="cls-14" data-name="패스 1018" transform="translate(22.026 23.927)"/>
                            <path id="패스_1019" d="M1.686 10.247a1.684 1.684 0 0 1-1.2-.5 1.706 1.706 0 0 1-.493-1.205L.005 1.71A1.7 1.7 0 1 1 3.4 1.7l-.013 6.836a1.719 1.719 0 0 1-.5 1.209 1.7 1.7 0 0 1-1.2.5z" class="cls-14" data-name="패스 1019" transform="translate(32.201 23.908)"/>
                            <path id="패스_1020" d="M3.207 9.3A1.7 1.7 0 1 1 .174 7.782L3.58.943a1.7 1.7 0 1 1 3.034 1.522z" class="cls-14" data-name="패스 1020" transform="translate(38.989 23.891)"/>
                        </g>
                        <g id="그룹_900" class="cls-6" data-name="그룹 900" transform="rotate(-14.98 945.081 -1263.12)">
                            <path id="선_1" d="M0 21.028L55.066 0" class="cls-10" data-name="선 1" transform="translate(.354 -.048)"/>
                            <path id="패스_1039" d="M-.008 9.616L58.934-.051" class="cls-10" data-name="패스 1039" transform="translate(2.017 17.878)"/>
                            <path id="패스_1036" d="M.037 29.429L.079 7.192S-1.053.007 4.977 0s5.234 7.177 5.234 7.177L10.17 29.41" class="cls-8" data-name="패스 1036" transform="translate(9.661 9.212)"/>
                            <path id="패스_1038" d="M.025 36.815L.077 9S-1.051.007 4.979 0s5.231 8.98 5.231 8.98l-.053 27.82" class="cls-8" data-name="패스 1038" transform="translate(29.238 1.79)"/>
                            <path id="패스_1037" d="M.028 34.353L.079 7.192S-1.053.007 4.977 0s5.234 7.177 5.234 7.177l-.051 27.161" class="cls-8" data-name="패스 1037" transform="translate(19.455 3.039)"/>
                            <path id="패스_1035" d="M.05.194C-.494 7.318 3.246 16.2 12.457 22.566a51.861 51.861 0 0 0-.01 5.319 4.566 4.566 0 0 0 4.915 3.844l25.515-.048s4.612.6 4.338-3.862.01-5.319.01-5.319S60.573 15.842 60.254.08C60.357-.056.192-.1.05.194z" class="cls-13" data-name="패스 1035" transform="translate(-.033 38.634)"/>
                        </g>
                    </g>
                    <g id="그룹_911" class="cls-6" data-name="그룹 911" transform="rotate(165.02 20.111 246.98)">
                        <g id="그룹_901" data-name="그룹 901">
                            <g id="합치기_147" class="cls-15" data-name="합치기 147">
                                <path d="M28.71 31.77c-3.277 0-6.42-1.158-8.85-3.262l-.874-.758-1.144.177c-.69.106-1.396.161-2.1.162h-.027c-1.84 0-3.617-.354-5.285-1.053a13.188 13.188 0 0 1-4.259-2.856c-2.382-2.387-3.69-5.528-3.684-8.844C2.5 8.28 8.477 2.528 15.809 2.514h.027c3.278 0 6.42 1.159 8.85 3.263l.874.757 1.144-.176c.69-.107 1.397-.162 2.1-.163h.027c.919 0 1.835.09 2.725.27l1.223.245.932-.83c2.467-2.197 5.675-3.41 9.032-3.417h.027c1.839 0 3.617.354 5.285 1.053a13.186 13.186 0 0 1 4.258 2.856c2.382 2.386 3.69 5.527 3.684 8.844-.013 7.056-5.989 12.809-13.321 12.823h-.027c-.919 0-1.836-.091-2.725-.27l-1.223-.245-.932.83c-2.467 2.197-5.675 3.41-9.031 3.417h-.027z" class="cls-17" transform="translate(-.038 43.57)"/>
                                <path d="M42.77 4.963h-.022c-2.746.005-5.364.994-7.374 2.784l-1.864 1.66-2.447-.492a11.358 11.358 0 0 0-2.232-.22h-.022c-.578.001-1.158.046-1.724.133l-2.287.353-1.749-1.515c-1.975-1.71-4.536-2.652-7.213-2.652h-.022C9.854 5.025 4.997 9.658 4.987 15.34c-.005 2.648 1.044 5.16 2.953 7.073 2.044 2.048 4.806 3.176 7.775 3.176h.022a11.478 11.478 0 0 0 1.724-.134l2.287-.353 1.75 1.515c1.974 1.71 4.536 2.653 7.213 2.653h.022c2.745-.006 5.363-.994 7.373-2.785l1.864-1.66 2.446.492c.728.146 1.48.22 2.233.22h.022c5.959-.01 10.816-4.644 10.826-10.327.005-2.648-1.044-5.16-2.953-7.073C48.5 6.091 45.74 4.963 42.77 4.963m0-5c8.706 0 15.744 6.825 15.728 15.257-.016 8.443-7.097 15.302-15.816 15.319h-.032c-1.103 0-2.179-.11-3.218-.319-2.815 2.508-6.57 4.043-10.689 4.05h-.031c-4.031 0-7.706-1.463-10.487-3.872a16.437 16.437 0 0 1-2.509.192C7.01 30.59-.029 23.764-.013 15.33.003 6.888 7.084.031 15.804.014h.032c4.03 0 7.705 1.464 10.487 3.873a16.438 16.438 0 0 1 5.725.126c2.816-2.507 6.57-4.042 10.69-4.05h.032z" class="cls-18" transform="translate(-.038 43.57)"/>
                            </g>
                            <path id="패스_1040" d="M-.048 56.044l.036-19s-.267-2.464 5.161-14.656c-.068-.416-.468-15.557-.468-15.557S4.291.586 9.1.177 28.337.141 28.337.141s4.324.994 4.243 6.638.468 15.557.468 15.557 7.76 3.044 7.352 14.631c.073 15.787-.036 19-.036 19z" class="cls-7" data-name="패스 1040" transform="translate(8.686 -.008)"/>
                            <path id="패스_1041" d="M-.024 28.053s6.634-.619 6.646-6.7l.03-16.396S6.813 0 11.482-.01s4.431 4.949 4.431 4.949l-.031 16.392s-.249 7.019 6.44 6.68" class="cls-8" data-name="패스 1041" transform="translate(20.648 27.992)"/>
                        </g>
                        <path id="패스_1042" d="M0 5.725s5.716-1.931 7.066-4.561 6.756-.013 6.756-.013a9.016 9.016 0 0 0 7.5 4.534C26.858 6.091 0 5.725 0 5.725z" class="cls-16" data-name="패스 1042" transform="translate(21.38 52.515)"/>
                    </g>
                    <g id="그룹_903" class="cls-6" data-name="그룹 903" transform="translate(347.2 413.234)">
                        <g id="타원_1146" class="cls-10" data-name="타원 1146">
                            <ellipse cx="14.391" cy="15.5" class="cls-17" rx="14.391" ry="15.5"/>
                            <ellipse cx="14.391" cy="15.5" class="cls-19" rx="11.891" ry="13"/>
                        </g>
                        <g id="타원_1147" class="cls-10" data-name="타원 1147" transform="translate(16.872 20)">
                            <ellipse cx="14.887" cy="15.5" class="cls-17" rx="14.887" ry="15.5"/>
                            <ellipse cx="14.887" cy="15.5" class="cls-19" rx="12.387" ry="13"/>
                        </g>
                        <g id="타원_1148" class="cls-10" data-name="타원 1148" transform="translate(35.73 38)">
                            <ellipse cx="14.391" cy="15.5" class="cls-17" rx="14.391" ry="15.5"/>
                            <ellipse cx="14.391" cy="15.5" class="cls-19" rx="11.891" ry="13"/>
                        </g>
                        <path id="패스_1043" d="M-1445.12 1291.75v24.744s-.011 3.378 4.245 3.378 3.712-3.378 3.712-3.378v-20.341" class="cls-8" data-name="패스 1043" transform="translate(1446.595 -1279.236)"/>
                        <path id="패스_1044" d="M-1434.568 1301.9s5.528-.49 7.548-4.51 5.152-6.794 9.6-5.588" class="cls-10" data-name="패스 1044" transform="translate(1444.023 -1279.199)"/>
                    </g>
                    <g id="그룹_1120" data-name="그룹 1120">
                        <g id="그룹_910" class="cls-6" data-name="그룹 910" transform="rotate(-150 102.473 70.902)">
                            <g id="그룹_901-2" data-name="그룹 901">
                                <g id="합치기_147-2" class="cls-15" data-name="합치기 147">
                                    <path d="M28.97 31.8h-.046c-3.299-.01-6.469-1.187-8.926-3.312l-.868-.751-1.136.169c-.675.1-1.367.151-2.057.151h-.046C8.543 28.033 2.546 22.28 2.523 15.23c-.01-3.298 1.287-6.423 3.654-8.798a13.15 13.15 0 0 1 4.257-2.855c1.67-.699 3.45-1.053 5.295-1.053h.046c3.3.01 6.47 1.187 8.926 3.312l.868.751 1.136-.169c.675-.1 1.367-.151 2.057-.151h.046c.93.003 1.859.098 2.76.283l1.226.252.936-.83c2.442-2.167 5.628-3.36 8.97-3.36h.047c7.348.024 13.344 5.778 13.367 12.826.011 3.3-1.287 6.424-3.654 8.8a13.149 13.149 0 0 1-4.257 2.854 13.63 13.63 0 0 1-5.294 1.054h-.046c-.93-.004-1.86-.099-2.761-.284l-1.226-.252-.936.83c-2.443 2.167-5.628 3.36-8.97 3.36z" class="cls-17" transform="translate(.062 41.136)"/>
                                    <path d="M15.729 5.024c-2.978 0-5.742 1.127-7.782 3.173-1.894 1.901-2.933 4.396-2.924 7.025.018 5.68 4.898 10.316 10.877 10.335h.037c.567 0 1.135-.041 1.69-.124l2.27-.338 1.737 1.502c2.005 1.735 4.597 2.695 7.3 2.703h.037c2.73 0 5.325-.969 7.31-2.73l1.872-1.66 2.451.503c.74.152 1.502.23 2.268.232h.037c2.978 0 5.74-1.126 7.78-3.173 1.895-1.9 2.934-4.396 2.925-7.026-.018-5.679-4.897-10.315-10.876-10.334H42.7c-2.73 0-5.326.97-7.311 2.73l-1.872 1.66L31.065 9c-.739-.151-1.501-.23-2.266-.232h-.037c-.567 0-1.135.042-1.689.124l-2.271.338-1.737-1.502c-2.005-1.734-4.597-2.694-7.299-2.703h-.037m0-5h.055a16.172 16.172 0 0 1 10.553 3.922 16.465 16.465 0 0 1 5.734.155C34.865 1.623 38.596.111 42.7.111h.054C51.487.142 58.587 7 58.615 15.43c.027 8.414-7 15.216-15.706 15.216h-.055a16.442 16.442 0 0 1-3.255-.335c-2.794 2.479-6.525 3.99-10.628 3.99h-.055a16.172 16.172 0 0 1-10.553-3.922 16.462 16.462 0 0 1-2.48.178C7.151 30.53.05 23.67.023 15.238-.005 6.824 7.023.024 15.729.024z" class="cls-18" transform="translate(.062 41.136)"/>
                                </g>
                                <path id="패스_1040-2" d="M.116 53.545L.054 34.572s-.279-2.462 5.094-14.609C5.078 19.547 4.594 6.8 4.594 6.8S4.171.563 8.986.179s19.262.063 19.262.063 4.336 1.015 4.283 6.651.554 13.161.554 13.161 7.275 8.451 7.441 14.65c.154 15.766.062 18.974.062 18.974z" class="cls-7" data-name="패스 1040" transform="translate(8.655 .013)"/>
                                <path id="패스_1041-2" d="M.042 27.982s6.64-.584 6.62-6.661L6.609 4.952S6.745 0 11.42.017s4.462 4.965 4.462 4.965l.053 16.369s-.213 7.008 6.484 6.7" class="cls-8" data-name="패스 1041" transform="translate(20.731 25.647)"/>
                            </g>
                            <path id="패스_1042-2" d="M.009 5.691s5.719-1.9 7.058-4.518 6.766.022 6.766.022a9.148 9.148 0 0 0 7.534 4.566c5.543.434-21.358-.07-21.358-.07z" class="cls-16" data-name="패스 1042" transform="translate(21.529 50.134)"/>
                        </g>
                        <g id="그룹_904" class="cls-6" data-name="그룹 904" transform="translate(269.786 104.234)">
                            <g id="타원_1146-2" class="cls-10" data-name="타원 1146">
                                <ellipse cx="14.391" cy="15.5" class="cls-17" rx="14.391" ry="15.5"/>
                                <ellipse cx="14.391" cy="15.5" class="cls-19" rx="11.891" ry="13"/>
                            </g>
                            <g id="타원_1147-2" class="cls-10" data-name="타원 1147" transform="translate(16.872 20)">
                                <ellipse cx="14.887" cy="15.5" class="cls-17" rx="14.887" ry="15.5"/>
                                <ellipse cx="14.887" cy="15.5" class="cls-19" rx="12.387" ry="13"/>
                            </g>
                            <g id="타원_1148-2" class="cls-10" data-name="타원 1148" transform="translate(35.73 38)">
                                <ellipse cx="14.391" cy="15.5" class="cls-17" rx="14.391" ry="15.5"/>
                                <ellipse cx="14.391" cy="15.5" class="cls-19" rx="11.891" ry="13"/>
                            </g>
                            <path id="패스_1043-2" d="M-1445.12 1291.75v24.744s-.011 3.378 4.245 3.378 3.712-3.378 3.712-3.378v-20.341" class="cls-8" data-name="패스 1043" transform="translate(1447.588 -1279.236)"/>
                            <path id="패스_1044-2" d="M-1434.568 1301.9s5.528-.49 7.548-4.51 5.152-6.794 9.6-5.588" class="cls-10" data-name="패스 1044" transform="translate(1444.023 -1279.199)"/>
                            <path id="패스_1051" d="M0 0l11.908 12.877" class="cls-10" data-name="패스 1051" transform="translate(58.061 61.5)"/>
                        </g>
                    </g>
                    <g id="그룹_1123" data-name="그룹 1123">
                        <g id="그룹_906" class="cls-6" data-name="그룹 906" transform="rotate(-165.02 134.3 31.09)">
                            <path id="합치기_139-2" d="M40.3 47.5c0-.153 0-.3.013-.446-.523-.134-.847-.262-.839-.385a76.316 76.316 0 0 1-17.65-8.555A93.246 93.246 0 0 1 6.038 25.167a6.469 6.469 0 0 1 .4-12.922c.139 0 .276 0 .413.013a7.008 7.008 0 0 1 1.5.116 4.8 4.8 0 0 0 2.239-.007c.1.012 2.213-.256 6.7-.522 3.743-.222 9.137-.442 16.391-.5V7.44s-.01-.184 0-.489a6.596 6.596 0 0 1-.01-.424A6.378 6.378 0 0 1 40.056.035a6.277 6.277 0 0 1 5.091 9.874c-.078.665-.151 1.178-.146 1.441v.05c10.469.182 17.443.692 19.632.857.23-.025.473-.04.73-.045 2.988-.059 6.95.552 9.541 2.906a9.709 9.709 0 0 1 3.025 8.345.4.4 0 0 1-.062.148c-.581 3.807-4.874 11.459-11.011 18.565-8 8.688-13.369 11.092-16.118 11.961a4.678 4.678 0 0 1-1.839.536A9.411 9.411 0 0 1 40.3 47.5z" class="cls-7" data-name="합치기 139"/>
                            <path id="패스_60-2" d="M.019 22.144A54.169 54.169 0 0 0 23.254.02" class="cls-8" data-name="패스 60" transform="translate(40.456 24.574)"/>
                            <ellipse id="타원_1105-2" cx="5.642" cy="4.138" class="cls-1" data-name="타원 1105" rx="5.642" ry="4.138" transform="translate(38.432 23.298)"/>
                            <ellipse id="타원_1106-2" cx="4.075" cy="2.988" class="cls-1" data-name="타원 1106" rx="4.075" ry="2.988" transform="translate(19.626 23.998)"/>
                            <ellipse id="타원_1107-2" cx="3.134" cy="2.299" class="cls-1" data-name="타원 1107" rx="3.134" ry="2.299" transform="translate(29.59 31.725)"/>
                            <path id="선_2-2" d="M.029 0L0 11.396" class="cls-9" data-name="선 2" transform="translate(33.695 6.672)"/>
                        </g>
                        <g id="그룹_905" class="cls-6" data-name="그룹 905" transform="translate(360.436 41.234)">
                            <path id="패스_1027-2" d="M-981.4 1253.311s7.853 5.065 12-4.889 2.176-27.459-14.432-32.954" class="cls-10" data-name="패스 1027" transform="translate(1034.414 -1202.477)"/>
                            <path id="합치기_145-2" d="M8.391 29.488a9.7 9.7 0 0 1 .357-2.616L4.2 17.461A9.554 9.554 0 0 1 0 9.512 9.42 9.42 0 0 1 9.323 0a9.385 9.385 0 0 1 9.217 8.08 9.158 9.158 0 0 1 2.9-.47 9.42 9.42 0 0 1 9.323 9.512 9.544 9.544 0 0 1-4.654 8.235 9.629 9.629 0 0 1 .924 4.131A9.419 9.419 0 0 1 17.714 39a9.42 9.42 0 0 1-9.323-9.512z" class="cls-11" data-name="합치기 145" transform="translate(43.336)"/>
                            <path id="패스_1026-2" d="M-1032.544 1239.854c4.185 1.309 49.379 13.521 49.379 13.521s-6.313-1.773-1.913-13.521c2.335-11.711.982-32.265-19.343-37.041s-30.8 12.217-32.825 25.682c-.683 9.005.517 10.05 4.702 11.359z" class="cls-8" data-name="패스 1026" transform="translate(1037.426 -1201.816)"/>
                            <path id="패스_1135" d="M1.53 0a1.542 1.542 0 0 1 .006 3.084A1.542 1.542 0 0 1 1.53 0z" class="cls-12" data-name="패스 1135" transform="rotate(14.98 -35.581 73.721)"/>
                            <path id="패스_1136" d="M1.53 0a1.542 1.542 0 0 1 .006 3.084A1.542 1.542 0 0 1 1.53 0z" class="cls-12" data-name="패스 1136" transform="rotate(14.98 -42.263 123.587)"/>
                            <path id="패스_1137" d="M1.53 0a1.542 1.542 0 0 1 .006 3.084A1.542 1.542 0 0 1 1.53 0z" class="cls-12" data-name="패스 1137" transform="rotate(14.98 -66.798 91.448)"/>
                            <path id="패스_1138" d="M1.53 0a1.542 1.542 0 0 1 .006 3.084A1.542 1.542 0 0 1 1.53 0z" class="cls-12" data-name="패스 1138" transform="rotate(14.98 -74.544 149.268)"/>
                        </g>
                        <g id="그룹_909" class="cls-6" data-name="그룹 909" transform="rotate(-14.98 60.084 7.888)">
                            <path id="선_1-2" d="M0 21.028L55.066 0" class="cls-10" data-name="선 1" transform="translate(.354 -.048)"/>
                            <path id="패스_1039-2" d="M-.008 9.616L58.934-.051" class="cls-10" data-name="패스 1039" transform="translate(2.017 17.878)"/>
                            <path id="패스_1036-2" d="M.037 29.429L.079 7.192S-1.053.007 4.977 0s5.234 7.177 5.234 7.177L10.17 29.41" class="cls-8" data-name="패스 1036" transform="translate(9.661 9.212)"/>
                            <path id="패스_1038-2" d="M.025 36.815L.077 9S-1.051.007 4.979 0s5.231 8.98 5.231 8.98l-.053 27.82" class="cls-8" data-name="패스 1038" transform="translate(29.238 1.79)"/>
                            <path id="패스_1037-2" d="M.028 34.353L.079 7.192S-1.053.007 4.977 0s5.234 7.177 5.234 7.177l-.051 27.161" class="cls-8" data-name="패스 1037" transform="translate(19.455 3.039)"/>
                            <path id="패스_1035-2" d="M.05.194C-.494 7.318 3.246 16.2 12.457 22.566a51.861 51.861 0 0 0-.01 5.319 4.566 4.566 0 0 0 4.915 3.844l25.515-.048s4.612.6 4.338-3.862.01-5.319.01-5.319S60.573 15.842 60.254.08C60.357-.056.192-.1.05.194z" class="cls-13" data-name="패스 1035" transform="translate(-.033 38.634)"/>
                        </g>
                    </g>
                    <g id="그룹_1124" class="cls-6" data-name="그룹 1124" transform="rotate(-135 211.705 200.727)">
                        <path id="선_1-3" d="M0 0l55.066 21.028" class="cls-10" data-name="선 1" transform="translate(.388 49.382)"/>
                        <path id="패스_1039-3" d="M0 0l58.942 9.667" class="cls-10" data-name="패스 1039" transform="translate(2.043 42.868)"/>
                        <path id="패스_1036-3" d="M.043 0l.041 22.238s-1.132 7.185 4.9 7.2 5.234-7.177 5.234-7.177L10.175.019" class="cls-8" data-name="패스 1036" transform="translate(9.69 31.721)"/>
                        <path id="패스_1038-3" d="M.031 0l.053 27.819s-1.128 8.988 4.9 9 5.231-8.98 5.231-8.98L10.164.019" class="cls-8" data-name="패스 1038" transform="translate(29.266 31.758)"/>
                        <path id="패스_1037-3" d="M.033 0l.051 27.161s-1.132 7.185 4.9 7.2 5.234-7.177 5.234-7.177L10.166.019" class="cls-8" data-name="패스 1037" transform="translate(19.484 32.97)"/>
                        <path id="패스_1035-3" d="M.052 31.535c-.544-7.124 3.2-16.008 12.407-22.372a51.861 51.861 0 0 1-.01-5.319A4.566 4.566 0 0 1 17.363 0l25.515.048s4.612-.6 4.338 3.862.01 5.319.01 5.319 13.348 6.658 13.029 22.42c.103.135-60.062.184-60.203-.114z" class="cls-13" data-name="패스 1035"/>
                    </g>
                </g>
                <g id="그룹_1126" data-name="그룹 1126" transform="translate(89 473)">
                    <g id="그룹_897-2" class="cls-6" data-name="그룹 897" transform="rotate(-14.98 1315.2 -191.615)">
                        <path id="합치기_139-3" d="M33.626 48.1c0-.157 0-.312.013-.464-.011-.282 0-.449 0-.449v-3.906c-7.241-.056-12.626-.275-16.364-.5-4.489-.266-6.6-.534-6.7-.521a4.8 4.8 0 0 0-2.238-.008 7.162 7.162 0 0 1-1.532.117 7.07 7.07 0 0 1-.414.013 6.468 6.468 0 0 1-.367-12.923 93.232 93.232 0 0 1 15.784-12.943A76.3 76.3 0 0 1 39.457 7.96c-.008-.121.3-.247.809-.377a7.478 7.478 0 0 1-.013-.454 9.41 9.41 0 0 1 8.6-7.171 4.576 4.576 0 0 1 1.775.506c2.719.844 8.117 3.2 16.213 11.991C73.014 19.6 77.322 27.3 77.861 31.088a.211.211 0 0 1 .026.079q.012.178.02.355c.007.1.01.2.011.3a9.489 9.489 0 0 1-3.056 7.695c-2.59 2.353-6.553 2.966-9.541 2.906q-.378-.008-.718-.044c-2.207.167-9.183.675-19.644.857v.049c0 .264.068.78.146 1.448a6.276 6.276 0 0 1-5.1 9.868 6.379 6.379 0 0 1-6.379-6.501z" class="cls-7" data-name="합치기 139"/>
                        <path id="패스_60-3" d="M0 0a54.169 54.169 0 0 1 23.235 22.124" class="cls-8" data-name="패스 60" transform="translate(40.415 7.913)"/>
                        <ellipse id="타원_1105-3" cx="5.642" cy="4.138" class="cls-1" data-name="타원 1105" rx="5.642" ry="4.138" transform="translate(38.387 23.004)"/>
                        <ellipse id="타원_1106-3" cx="4.075" cy="2.988" class="cls-1" data-name="타원 1106" rx="4.075" ry="2.988" transform="translate(19.577 24.617)"/>
                        <ellipse id="타원_1107-3" cx="3.134" cy="2.299" class="cls-1" data-name="타원 1107" rx="3.134" ry="2.299" transform="translate(29.538 18.279)"/>
                        <path id="선_2-3" d="M.029 11.396L0 0" class="cls-9" data-name="선 2" transform="translate(33.635 36.563)"/>
                    </g>
                    <g id="그룹_898-2" class="cls-6" data-name="그룹 898" transform="translate(280.045 324.234)">
                        <path id="패스_1027-3" d="M-981.4 1253.311s7.853 5.065 12-4.889 2.176-27.459-14.432-32.954" class="cls-10" data-name="패스 1027" transform="translate(1034.414 -1202.477)"/>
                        <path id="합치기_145-3" d="M8.391 29.488a9.7 9.7 0 0 1 .357-2.616L4.2 17.461A9.554 9.554 0 0 1 0 9.512 9.42 9.42 0 0 1 9.323 0a9.385 9.385 0 0 1 9.217 8.08 9.158 9.158 0 0 1 2.9-.47 9.42 9.42 0 0 1 9.323 9.512 9.544 9.544 0 0 1-4.654 8.235 9.629 9.629 0 0 1 .924 4.131A9.419 9.419 0 0 1 17.714 39a9.42 9.42 0 0 1-9.323-9.512z" class="cls-11" data-name="합치기 145" transform="translate(43.336)"/>
                        <path id="패스_1026-3" d="M-1032.544 1239.854c4.185 1.309 49.379 13.521 49.379 13.521s-6.313-1.773-1.913-13.521c2.335-11.711.982-32.265-19.343-37.041s-30.8 12.217-32.825 25.682c-.683 9.005.517 10.05 4.702 11.359z" class="cls-8" data-name="패스 1026" transform="translate(1037.426 -1201.816)"/>
                        <path id="패스_1131-2" d="M1.53 0a1.542 1.542 0 0 1 .006 3.084A1.542 1.542 0 0 1 1.53 0z" class="cls-12" data-name="패스 1131" transform="rotate(14.98 -35.581 73.721)"/>
                        <path id="패스_1132-2" d="M1.53 0a1.542 1.542 0 0 1 .006 3.084A1.542 1.542 0 0 1 1.53 0z" class="cls-12" data-name="패스 1132" transform="rotate(14.98 -42.263 123.587)"/>
                        <path id="패스_1133-2" d="M1.53 0a1.542 1.542 0 0 1 .006 3.084A1.542 1.542 0 0 1 1.53 0z" class="cls-12" data-name="패스 1133" transform="rotate(14.98 -66.798 91.448)"/>
                        <path id="패스_1134-2" d="M1.53 0a1.542 1.542 0 0 1 .006 3.084A1.542 1.542 0 0 1 1.53 0z" class="cls-12" data-name="패스 1134" transform="rotate(14.98 -74.544 149.268)"/>
                    </g>
                    <g id="그룹_1121-2" data-name="그룹 1121" transform="translate(0 23)">
                        <g id="그룹_899-2" class="cls-6" data-name="그룹 899" transform="rotate(14.98 -644.435 837.918)">
                            <path id="패스_1029-2" d="M77.627 5.476S71.078 3.13 66.811 6.792c-.382.029-7.03-5.436-20.409-3.841A22.907 22.907 0 0 0 24.18 2.91C23.963 2.677 5.416 6.241.022 25.35c.344.455-.932 4.419 2.322 6.622s7.687-.278 10.119-1.249 18.188-5.617 31.145-5.291 28.264-4.659 34.031-13.965c2.42-3.967-.012-5.991-.012-5.991z" class="cls-13" data-name="패스 1029" transform="translate(.005 5.333)"/>
                            <path id="패스_1030-2" d="M.01 11.58l.01 5.168s.486 4.34 2.622 6.934S5.98 26.7 8.563 27.126c6.728 1.1 33.595.064 33.595.064a17.776 17.776 0 0 0 7.713-1.87c3.353-1.889 5.793-6.09 5.709-11.263-.156-9.544-.027-14.009-.027-14.009" class="cls-13" data-name="패스 1030" transform="translate(8.683 27.522)"/>
                            <path id="패스_1031-2" d="M.01 11.634S10.683 9.919 11.528.042c.092-.067-8.9-.017-8.9-.017l3.1 8.811" class="cls-13" data-name="패스 1031" transform="translate(76.799 .067)"/>
                            <path id="패스_1032-2" d="M2.735 0A21.162 21.162 0 0 0 .048 11.143" class="cls-10" data-name="패스 1032" transform="translate(43.508 8.4)"/>
                            <path id="패스_1033-2" d="M3.705 0S-.109 5 .008 13.493" class="cls-10" data-name="패스 1033" transform="rotate(-8 70.84 -145.506)"/>
                        </g>
                        <g id="그룹_892-2" class="cls-6" data-name="그룹 892" transform="rotate(165.02 37.023 129.588)">
                            <path id="패스_1017-2" d="M51.173 37.15C46.147 40.826 41.8 44 40.585 48.276c-1.583 5.539-4.9 6.373-6.735 6.376s-5.15-.817-6.712-6.352c-1.2-4.27-5.534-7.429-10.547-11.086C8.8 31.531-.035 25.085-.01 12.014 0 4.193 4.12.05 11.891.035l44.122-.084c7.771-.015 11.871 4.113 11.856 11.934-.024 13.072-8.881 19.551-16.696 25.265zm4.833-33.782l-44.122.083c-5.868.011-8.49 2.65-8.5 8.557-.022 11.329 7.716 16.978 15.205 22.438C23.88 38.308 28.88 41.955 30.4 47.358c.726 2.576 1.889 3.881 3.451 3.878s2.73-1.313 3.466-3.891c1.545-5.409 6.558-9.075 11.863-12.957 7.508-5.489 15.269-11.167 15.29-22.5.016-5.902-2.595-8.531-8.464-8.52z" class="cls-14" data-name="패스 1017"/>
                            <path id="패스_1018-2" d="M5.833 10.06a1.689 1.689 0 0 1-2.275-.76L.177 2.474A1.718 1.718 0 0 1 .94.181 1.687 1.687 0 0 1 3.216.94L6.6 7.766a1.718 1.718 0 0 1-.767 2.294z" class="cls-14" data-name="패스 1018" transform="translate(22.026 23.927)"/>
                            <path id="패스_1019-2" d="M1.686 10.247a1.684 1.684 0 0 1-1.2-.5 1.706 1.706 0 0 1-.493-1.205L.005 1.71A1.7 1.7 0 1 1 3.4 1.7l-.013 6.836a1.719 1.719 0 0 1-.5 1.209 1.7 1.7 0 0 1-1.2.5z" class="cls-14" data-name="패스 1019" transform="translate(32.201 23.908)"/>
                            <path id="패스_1020-2" d="M3.207 9.3A1.7 1.7 0 1 1 .174 7.782L3.58.943a1.7 1.7 0 1 1 3.034 1.522z" class="cls-14" data-name="패스 1020" transform="translate(38.989 23.891)"/>
                        </g>
                        <g id="그룹_900-2" class="cls-6" data-name="그룹 900" transform="rotate(-14.98 945.081 -1263.12)">
                            <path id="선_1-4" d="M0 21.028L55.066 0" class="cls-10" data-name="선 1" transform="translate(.354 -.048)"/>
                            <path id="패스_1039-4" d="M-.008 9.616L58.934-.051" class="cls-10" data-name="패스 1039" transform="translate(2.017 17.878)"/>
                            <path id="패스_1036-4" d="M.037 29.429L.079 7.192S-1.053.007 4.977 0s5.234 7.177 5.234 7.177L10.17 29.41" class="cls-8" data-name="패스 1036" transform="translate(9.661 9.212)"/>
                            <path id="패스_1038-4" d="M.025 36.815L.077 9S-1.051.007 4.979 0s5.231 8.98 5.231 8.98l-.053 27.82" class="cls-8" data-name="패스 1038" transform="translate(29.238 1.79)"/>
                            <path id="패스_1037-4" d="M.028 34.353L.079 7.192S-1.053.007 4.977 0s5.234 7.177 5.234 7.177l-.051 27.161" class="cls-8" data-name="패스 1037" transform="translate(19.455 3.039)"/>
                            <path id="패스_1035-4" d="M.05.194C-.494 7.318 3.246 16.2 12.457 22.566a51.861 51.861 0 0 0-.01 5.319 4.566 4.566 0 0 0 4.915 3.844l25.515-.048s4.612.6 4.338-3.862.01-5.319.01-5.319S60.573 15.842 60.254.08C60.357-.056.192-.1.05.194z" class="cls-13" data-name="패스 1035" transform="translate(-.033 38.634)"/>
                        </g>
                    </g>
                    <g id="그룹_911-2" class="cls-6" data-name="그룹 911" transform="rotate(165.02 19.518 251.48)">
                        <g id="그룹_901-3" data-name="그룹 901">
                            <g id="합치기_147-3" class="cls-15" data-name="합치기 147">
                                <path d="M28.71 31.77c-3.277 0-6.42-1.158-8.85-3.262l-.874-.758-1.144.177c-.69.106-1.396.161-2.1.162h-.027c-1.84 0-3.617-.354-5.285-1.053a13.188 13.188 0 0 1-4.259-2.856c-2.382-2.387-3.69-5.528-3.684-8.844C2.5 8.28 8.477 2.528 15.809 2.514h.027c3.278 0 6.42 1.159 8.85 3.263l.874.757 1.144-.176c.69-.107 1.397-.162 2.1-.163h.027c.919 0 1.835.09 2.725.27l1.223.245.932-.83c2.467-2.197 5.675-3.41 9.032-3.417h.027c1.839 0 3.617.354 5.285 1.053a13.186 13.186 0 0 1 4.258 2.856c2.382 2.386 3.69 5.527 3.684 8.844-.013 7.056-5.989 12.809-13.321 12.823h-.027c-.919 0-1.836-.091-2.725-.27l-1.223-.245-.932.83c-2.467 2.197-5.675 3.41-9.031 3.417h-.027z" class="cls-17" transform="translate(-.038 43.57)"/>
                                <path d="M42.77 4.963h-.022c-2.746.005-5.364.994-7.374 2.784l-1.864 1.66-2.447-.492a11.358 11.358 0 0 0-2.232-.22h-.022c-.578.001-1.158.046-1.724.133l-2.287.353-1.749-1.515c-1.975-1.71-4.536-2.652-7.213-2.652h-.022C9.854 5.025 4.997 9.658 4.987 15.34c-.005 2.648 1.044 5.16 2.953 7.073 2.044 2.048 4.806 3.176 7.775 3.176h.022a11.478 11.478 0 0 0 1.724-.134l2.287-.353 1.75 1.515c1.974 1.71 4.536 2.653 7.213 2.653h.022c2.745-.006 5.363-.994 7.373-2.785l1.864-1.66 2.446.492c.728.146 1.48.22 2.233.22h.022c5.959-.01 10.816-4.644 10.826-10.327.005-2.648-1.044-5.16-2.953-7.073C48.5 6.091 45.74 4.963 42.77 4.963m0-5c8.706 0 15.744 6.825 15.728 15.257-.016 8.443-7.097 15.302-15.816 15.319h-.032c-1.103 0-2.179-.11-3.218-.319-2.815 2.508-6.57 4.043-10.689 4.05h-.031c-4.031 0-7.706-1.463-10.487-3.872a16.437 16.437 0 0 1-2.509.192C7.01 30.59-.029 23.764-.013 15.33.003 6.888 7.084.031 15.804.014h.032c4.03 0 7.705 1.464 10.487 3.873a16.438 16.438 0 0 1 5.725.126c2.816-2.507 6.57-4.042 10.69-4.05h.032z" class="cls-18" transform="translate(-.038 43.57)"/>
                            </g>
                            <path id="패스_1040-3" d="M-.048 56.044l.036-19s-.267-2.464 5.161-14.656c-.068-.416-.468-15.557-.468-15.557S4.291.586 9.1.177 28.337.141 28.337.141s4.324.994 4.243 6.638.468 15.557.468 15.557 7.76 3.044 7.352 14.631c.073 15.787-.036 19-.036 19z" class="cls-7" data-name="패스 1040" transform="translate(8.686 -.008)"/>
                            <path id="패스_1041-3" d="M-.024 28.053s6.634-.619 6.646-6.7l.03-16.396S6.813 0 11.482-.01s4.431 4.949 4.431 4.949l-.031 16.392s-.249 7.019 6.44 6.68" class="cls-8" data-name="패스 1041" transform="translate(20.648 27.992)"/>
                        </g>
                        <path id="패스_1042-3" d="M0 5.725s5.716-1.931 7.066-4.561 6.756-.013 6.756-.013a9.016 9.016 0 0 0 7.5 4.534C26.858 6.091 0 5.725 0 5.725z" class="cls-16" data-name="패스 1042" transform="translate(21.38 52.515)"/>
                    </g>
                    <g id="그룹_903-2" class="cls-6" data-name="그룹 903" transform="translate(347.2 413.234)">
                        <g id="타원_1146-3" class="cls-10" data-name="타원 1146">
                            <ellipse cx="14.391" cy="15.5" class="cls-17" rx="14.391" ry="15.5"/>
                            <ellipse cx="14.391" cy="15.5" class="cls-19" rx="11.891" ry="13"/>
                        </g>
                        <g id="타원_1147-3" class="cls-10" data-name="타원 1147" transform="translate(16.872 20)">
                            <ellipse cx="14.887" cy="15.5" class="cls-17" rx="14.887" ry="15.5"/>
                            <ellipse cx="14.887" cy="15.5" class="cls-19" rx="12.387" ry="13"/>
                        </g>
                        <g id="타원_1148-3" class="cls-10" data-name="타원 1148" transform="translate(35.73 38)">
                            <ellipse cx="14.391" cy="15.5" class="cls-17" rx="14.391" ry="15.5"/>
                            <ellipse cx="14.391" cy="15.5" class="cls-19" rx="11.891" ry="13"/>
                        </g>
                        <path id="패스_1043-3" d="M-1445.12 1291.75v24.744s-.011 3.378 4.245 3.378 3.712-3.378 3.712-3.378v-20.341" class="cls-8" data-name="패스 1043" transform="translate(1446.595 -1279.236)"/>
                        <path id="패스_1044-3" d="M-1434.568 1301.9s5.528-.49 7.548-4.51 5.152-6.794 9.6-5.588" class="cls-10" data-name="패스 1044" transform="translate(1444.023 -1279.199)"/>
                    </g>
                    <g id="그룹_1120-2" data-name="그룹 1120" transform="translate(-5 7)">
                        <g id="그룹_910-2" class="cls-6" data-name="그룹 910" transform="rotate(-150 105.143 72.866)">
                            <g id="그룹_901-4" data-name="그룹 901">
                                <g id="합치기_147-4" class="cls-15" data-name="합치기 147">
                                    <path d="M28.97 31.8h-.046c-3.299-.01-6.469-1.187-8.926-3.312l-.868-.751-1.136.169c-.675.1-1.367.151-2.057.151h-.046C8.543 28.033 2.546 22.28 2.523 15.23c-.01-3.298 1.287-6.423 3.654-8.798a13.15 13.15 0 0 1 4.257-2.855c1.67-.699 3.45-1.053 5.295-1.053h.046c3.3.01 6.47 1.187 8.926 3.312l.868.751 1.136-.169c.675-.1 1.367-.151 2.057-.151h.046c.93.003 1.859.098 2.76.283l1.226.252.936-.83c2.442-2.167 5.628-3.36 8.97-3.36h.047c7.348.024 13.344 5.778 13.367 12.826.011 3.3-1.287 6.424-3.654 8.8a13.149 13.149 0 0 1-4.257 2.854 13.63 13.63 0 0 1-5.294 1.054h-.046c-.93-.004-1.86-.099-2.761-.284l-1.226-.252-.936.83c-2.443 2.167-5.628 3.36-8.97 3.36z" class="cls-17" transform="translate(.062 41.136)"/>
                                    <path d="M15.729 5.024c-2.978 0-5.742 1.127-7.782 3.173-1.894 1.901-2.933 4.396-2.924 7.025.018 5.68 4.898 10.316 10.877 10.335h.037c.567 0 1.135-.041 1.69-.124l2.27-.338 1.737 1.502c2.005 1.735 4.597 2.695 7.3 2.703h.037c2.73 0 5.325-.969 7.31-2.73l1.872-1.66 2.451.503c.74.152 1.502.23 2.268.232h.037c2.978 0 5.74-1.126 7.78-3.173 1.895-1.9 2.934-4.396 2.925-7.026-.018-5.679-4.897-10.315-10.876-10.334H42.7c-2.73 0-5.326.97-7.311 2.73l-1.872 1.66L31.065 9c-.739-.151-1.501-.23-2.266-.232h-.037c-.567 0-1.135.042-1.689.124l-2.271.338-1.737-1.502c-2.005-1.734-4.597-2.694-7.299-2.703h-.037m0-5h.055a16.172 16.172 0 0 1 10.553 3.922 16.465 16.465 0 0 1 5.734.155C34.865 1.623 38.596.111 42.7.111h.054C51.487.142 58.587 7 58.615 15.43c.027 8.414-7 15.216-15.706 15.216h-.055a16.442 16.442 0 0 1-3.255-.335c-2.794 2.479-6.525 3.99-10.628 3.99h-.055a16.172 16.172 0 0 1-10.553-3.922 16.462 16.462 0 0 1-2.48.178C7.151 30.53.05 23.67.023 15.238-.005 6.824 7.023.024 15.729.024z" class="cls-18" transform="translate(.062 41.136)"/>
                                </g>
                                <path id="패스_1040-4" d="M.116 53.545L.054 34.572s-.279-2.462 5.094-14.609C5.078 19.547 4.594 6.8 4.594 6.8S4.171.563 8.986.179s19.262.063 19.262.063 4.336 1.015 4.283 6.651.554 13.161.554 13.161 7.275 8.451 7.441 14.65c.154 15.766.062 18.974.062 18.974z" class="cls-7" data-name="패스 1040" transform="translate(8.655 .013)"/>
                                <path id="패스_1041-4" d="M.042 27.982s6.64-.584 6.62-6.661L6.609 4.952S6.745 0 11.42.017s4.462 4.965 4.462 4.965l.053 16.369s-.213 7.008 6.484 6.7" class="cls-8" data-name="패스 1041" transform="translate(20.731 25.647)"/>
                            </g>
                            <path id="패스_1042-4" d="M.009 5.691s5.719-1.9 7.058-4.518 6.766.022 6.766.022a9.148 9.148 0 0 0 7.534 4.566c5.543.434-21.358-.07-21.358-.07z" class="cls-16" data-name="패스 1042" transform="translate(21.529 50.134)"/>
                        </g>
                        <g id="그룹_904-2" class="cls-6" data-name="그룹 904" transform="translate(275.786 104.234)">
                            <g id="타원_1146-4" class="cls-10" data-name="타원 1146">
                                <ellipse cx="14.391" cy="15.5" class="cls-17" rx="14.391" ry="15.5"/>
                                <ellipse cx="14.391" cy="15.5" class="cls-19" rx="11.891" ry="13"/>
                            </g>
                            <g id="타원_1147-4" class="cls-10" data-name="타원 1147" transform="translate(16.872 20)">
                                <ellipse cx="14.887" cy="15.5" class="cls-17" rx="14.887" ry="15.5"/>
                                <ellipse cx="14.887" cy="15.5" class="cls-19" rx="12.387" ry="13"/>
                            </g>
                            <g id="타원_1148-4" class="cls-10" data-name="타원 1148" transform="translate(35.73 38)">
                                <ellipse cx="14.391" cy="15.5" class="cls-17" rx="14.391" ry="15.5"/>
                                <ellipse cx="14.391" cy="15.5" class="cls-19" rx="11.891" ry="13"/>
                            </g>
                            <path id="패스_1043-4" d="M-1445.12 1291.75v24.744s-.011 3.378 4.245 3.378 3.712-3.378 3.712-3.378v-20.341" class="cls-8" data-name="패스 1043" transform="translate(1447.588 -1279.236)"/>
                            <path id="패스_1044-4" d="M-1434.568 1301.9s5.528-.49 7.548-4.51 5.152-6.794 9.6-5.588" class="cls-10" data-name="패스 1044" transform="translate(1444.023 -1279.199)"/>
                            <path id="패스_1051-2" d="M0 0l11.908 12.877" class="cls-10" data-name="패스 1051" transform="translate(58.061 61.5)"/>
                        </g>
                        <g id="그룹_1127" class="cls-6" data-name="그룹 1127" transform="translate(-34.214 306.234)">
                            <g id="타원_1146-5" class="cls-10" data-name="타원 1146">
                                <ellipse cx="14.391" cy="15.5" class="cls-17" rx="14.391" ry="15.5"/>
                                <ellipse cx="14.391" cy="15.5" class="cls-19" rx="11.891" ry="13"/>
                            </g>
                            <g id="타원_1147-5" class="cls-10" data-name="타원 1147" transform="translate(16.872 20)">
                                <ellipse cx="14.887" cy="15.5" class="cls-17" rx="14.887" ry="15.5"/>
                                <ellipse cx="14.887" cy="15.5" class="cls-19" rx="12.387" ry="13"/>
                            </g>
                            <g id="타원_1148-5" class="cls-10" data-name="타원 1148" transform="translate(35.73 38)">
                                <ellipse cx="14.391" cy="15.5" class="cls-17" rx="14.391" ry="15.5"/>
                                <ellipse cx="14.391" cy="15.5" class="cls-19" rx="11.891" ry="13"/>
                            </g>
                            <path id="패스_1043-5" d="M-1445.12 1291.75v24.744s-.011 3.378 4.245 3.378 3.712-3.378 3.712-3.378v-20.341" class="cls-8" data-name="패스 1043" transform="translate(1447.588 -1279.236)"/>
                            <path id="패스_1044-5" d="M-1434.568 1301.9s5.528-.49 7.548-4.51 5.152-6.794 9.6-5.588" class="cls-10" data-name="패스 1044" transform="translate(1444.023 -1279.199)"/>
                            <path id="패스_1051-3" d="M0 0l11.908 12.877" class="cls-10" data-name="패스 1051" transform="translate(58.061 61.5)"/>
                        </g>
                    </g>
                    <g id="그룹_1123-2" data-name="그룹 1123">
                        <g id="그룹_906-2" class="cls-6" data-name="그룹 906" transform="rotate(-165.02 134.3 31.09)">
                            <path id="합치기_139-4" d="M40.3 47.5c0-.153 0-.3.013-.446-.523-.134-.847-.262-.839-.385a76.316 76.316 0 0 1-17.65-8.555A93.246 93.246 0 0 1 6.038 25.167a6.469 6.469 0 0 1 .4-12.922c.139 0 .276 0 .413.013a7.008 7.008 0 0 1 1.5.116 4.8 4.8 0 0 0 2.239-.007c.1.012 2.213-.256 6.7-.522 3.743-.222 9.137-.442 16.391-.5V7.44s-.01-.184 0-.489a6.596 6.596 0 0 1-.01-.424A6.378 6.378 0 0 1 40.056.035a6.277 6.277 0 0 1 5.091 9.874c-.078.665-.151 1.178-.146 1.441v.05c10.469.182 17.443.692 19.632.857.23-.025.473-.04.73-.045 2.988-.059 6.95.552 9.541 2.906a9.709 9.709 0 0 1 3.025 8.345.4.4 0 0 1-.062.148c-.581 3.807-4.874 11.459-11.011 18.565-8 8.688-13.369 11.092-16.118 11.961a4.678 4.678 0 0 1-1.839.536A9.411 9.411 0 0 1 40.3 47.5z" class="cls-7" data-name="합치기 139"/>
                            <path id="패스_60-4" d="M.019 22.144A54.169 54.169 0 0 0 23.254.02" class="cls-8" data-name="패스 60" transform="translate(40.456 24.574)"/>
                            <ellipse id="타원_1105-4" cx="5.642" cy="4.138" class="cls-1" data-name="타원 1105" rx="5.642" ry="4.138" transform="translate(38.432 23.298)"/>
                            <ellipse id="타원_1106-4" cx="4.075" cy="2.988" class="cls-1" data-name="타원 1106" rx="4.075" ry="2.988" transform="translate(19.626 23.998)"/>
                            <ellipse id="타원_1107-4" cx="3.134" cy="2.299" class="cls-1" data-name="타원 1107" rx="3.134" ry="2.299" transform="translate(29.59 31.725)"/>
                            <path id="선_2-4" d="M.029 0L0 11.396" class="cls-9" data-name="선 2" transform="translate(33.695 6.672)"/>
                        </g>
                        <g id="그룹_905-2" class="cls-6" data-name="그룹 905" transform="translate(360.436 41.234)">
                            <path id="패스_1027-4" d="M-981.4 1253.311s7.853 5.065 12-4.889 2.176-27.459-14.432-32.954" class="cls-10" data-name="패스 1027" transform="translate(1034.414 -1202.477)"/>
                            <path id="합치기_145-4" d="M8.391 29.488a9.7 9.7 0 0 1 .357-2.616L4.2 17.461A9.554 9.554 0 0 1 0 9.512 9.42 9.42 0 0 1 9.323 0a9.385 9.385 0 0 1 9.217 8.08 9.158 9.158 0 0 1 2.9-.47 9.42 9.42 0 0 1 9.323 9.512 9.544 9.544 0 0 1-4.654 8.235 9.629 9.629 0 0 1 .924 4.131A9.419 9.419 0 0 1 17.714 39a9.42 9.42 0 0 1-9.323-9.512z" class="cls-11" data-name="합치기 145" transform="translate(43.336)"/>
                            <path id="패스_1026-4" d="M-1032.544 1239.854c4.185 1.309 49.379 13.521 49.379 13.521s-6.313-1.773-1.913-13.521c2.335-11.711.982-32.265-19.343-37.041s-30.8 12.217-32.825 25.682c-.683 9.005.517 10.05 4.702 11.359z" class="cls-8" data-name="패스 1026" transform="translate(1037.426 -1201.816)"/>
                            <path id="패스_1135-2" d="M1.53 0a1.542 1.542 0 0 1 .006 3.084A1.542 1.542 0 0 1 1.53 0z" class="cls-12" data-name="패스 1135" transform="rotate(14.98 -35.581 73.721)"/>
                            <path id="패스_1136-2" d="M1.53 0a1.542 1.542 0 0 1 .006 3.084A1.542 1.542 0 0 1 1.53 0z" class="cls-12" data-name="패스 1136" transform="rotate(14.98 -42.263 123.587)"/>
                            <path id="패스_1137-2" d="M1.53 0a1.542 1.542 0 0 1 .006 3.084A1.542 1.542 0 0 1 1.53 0z" class="cls-12" data-name="패스 1137" transform="rotate(14.98 -66.798 91.448)"/>
                            <path id="패스_1138-2" d="M1.53 0a1.542 1.542 0 0 1 .006 3.084A1.542 1.542 0 0 1 1.53 0z" class="cls-12" data-name="패스 1138" transform="rotate(14.98 -74.544 149.268)"/>
                        </g>
                        <g id="그룹_909-2" class="cls-6" data-name="그룹 909" transform="rotate(-14.98 265.046 34.794)">
                            <path id="선_1-5" d="M0 21.028L55.066 0" class="cls-10" data-name="선 1" transform="translate(.354 -.048)"/>
                            <path id="패스_1039-5" d="M-.008 9.616L58.934-.051" class="cls-10" data-name="패스 1039" transform="translate(2.017 17.878)"/>
                            <path id="패스_1036-5" d="M.037 29.429L.079 7.192S-1.053.007 4.977 0s5.234 7.177 5.234 7.177L10.17 29.41" class="cls-8" data-name="패스 1036" transform="translate(9.661 9.212)"/>
                            <path id="패스_1038-5" d="M.025 36.815L.077 9S-1.051.007 4.979 0s5.231 8.98 5.231 8.98l-.053 27.82" class="cls-8" data-name="패스 1038" transform="translate(29.238 1.79)"/>
                            <path id="패스_1037-5" d="M.028 34.353L.079 7.192S-1.053.007 4.977 0s5.234 7.177 5.234 7.177l-.051 27.161" class="cls-8" data-name="패스 1037" transform="translate(19.455 3.039)"/>
                            <path id="패스_1035-5" d="M.05.194C-.494 7.318 3.246 16.2 12.457 22.566a51.861 51.861 0 0 0-.01 5.319 4.566 4.566 0 0 0 4.915 3.844l25.515-.048s4.612.6 4.338-3.862.01-5.319.01-5.319S60.573 15.842 60.254.08C60.357-.056.192-.1.05.194z" class="cls-13" data-name="패스 1035" transform="translate(-.033 38.634)"/>
                        </g>
                    </g>
                    <g id="그룹_1124-2" class="cls-6" data-name="그룹 1124" transform="rotate(-135 213.57 205.227)">
                        <path id="선_1-6" d="M0 0l55.066 21.028" class="cls-10" data-name="선 1" transform="translate(.388 49.382)"/>
                        <path id="패스_1039-6" d="M0 0l58.942 9.667" class="cls-10" data-name="패스 1039" transform="translate(2.043 42.868)"/>
                        <path id="패스_1036-6" d="M.043 0l.041 22.238s-1.132 7.185 4.9 7.2 5.234-7.177 5.234-7.177L10.175.019" class="cls-8" data-name="패스 1036" transform="translate(9.69 31.721)"/>
                        <path id="패스_1038-6" d="M.031 0l.053 27.819s-1.128 8.988 4.9 9 5.231-8.98 5.231-8.98L10.164.019" class="cls-8" data-name="패스 1038" transform="translate(29.266 31.758)"/>
                        <path id="패스_1037-6" d="M.033 0l.051 27.161s-1.132 7.185 4.9 7.2 5.234-7.177 5.234-7.177L10.166.019" class="cls-8" data-name="패스 1037" transform="translate(19.484 32.97)"/>
                        <path id="패스_1035-6" d="M.052 31.535c-.544-7.124 3.2-16.008 12.407-22.372a51.861 51.861 0 0 1-.01-5.319A4.566 4.566 0 0 1 17.363 0l25.515.048s4.612-.6 4.338 3.862.01 5.319.01 5.319 13.348 6.658 13.029 22.42c.103.135-60.062.184-60.203-.114z" class="cls-13" data-name="패스 1035"/>
                    </g>
                    <g id="그룹_1128" class="cls-6" data-name="그룹 1128" transform="translate(-76.955 167.234)">
                        <path id="패스_1027-5" d="M-981.4 1253.311s7.853 5.065 12-4.889 2.176-27.459-14.432-32.954" class="cls-10" data-name="패스 1027" transform="translate(1034.414 -1202.477)"/>
                        <path id="합치기_145-5" d="M8.391 29.488a9.7 9.7 0 0 1 .357-2.616L4.2 17.461A9.554 9.554 0 0 1 0 9.512 9.42 9.42 0 0 1 9.323 0a9.385 9.385 0 0 1 9.217 8.08 9.158 9.158 0 0 1 2.9-.47 9.42 9.42 0 0 1 9.323 9.512 9.544 9.544 0 0 1-4.654 8.235 9.629 9.629 0 0 1 .924 4.131A9.419 9.419 0 0 1 17.714 39a9.42 9.42 0 0 1-9.323-9.512z" class="cls-11" data-name="합치기 145" transform="translate(43.336)"/>
                        <path id="패스_1026-5" d="M-1032.544 1239.854c4.185 1.309 49.379 13.521 49.379 13.521s-6.313-1.773-1.913-13.521c2.335-11.711.982-32.265-19.343-37.041s-30.8 12.217-32.825 25.682c-.683 9.005.517 10.05 4.702 11.359z" class="cls-8" data-name="패스 1026" transform="translate(1037.426 -1201.816)"/>
                        <path id="패스_1131-3" d="M1.53 0a1.542 1.542 0 0 1 .006 3.084A1.542 1.542 0 0 1 1.53 0z" class="cls-12" data-name="패스 1131" transform="rotate(14.98 -35.581 73.721)"/>
                        <path id="패스_1132-3" d="M1.53 0a1.542 1.542 0 0 1 .006 3.084A1.542 1.542 0 0 1 1.53 0z" class="cls-12" data-name="패스 1132" transform="rotate(14.98 -42.263 123.587)"/>
                        <path id="패스_1133-3" d="M1.53 0a1.542 1.542 0 0 1 .006 3.084A1.542 1.542 0 0 1 1.53 0z" class="cls-12" data-name="패스 1133" transform="rotate(14.98 -66.798 91.448)"/>
                        <path id="패스_1134-3" d="M1.53 0a1.542 1.542 0 0 1 .006 3.084A1.542 1.542 0 0 1 1.53 0z" class="cls-12" data-name="패스 1134" transform="rotate(14.98 -74.544 149.268)"/>
                    </g>
                </g>
            </g>
        </g>
    </g>
</svg>
